<svg width="887" height="489" viewBox="0 0 887 489" fill="none" xmlns="http://www.w3.org/2000/svg">
<mask id="mask0" mask-type="alpha" maskUnits="userSpaceOnUse" x="0" y="0" width="887" height="489">
<rect width="887" height="488.174" fill="#C4C4C4"/>
</mask>
<g mask="url(#mask0)">
<g opacity="0.06">
<path d="M665.946 241.175C568.427 241.175 489.747 162.495 489.747 64.976C489.747 -32.5428 568.427 -111.223 665.946 -111.223C763.465 -111.223 842.145 -32.5428 842.145 64.976H752.383C752.383 17.3247 713.597 -21.4612 665.946 -21.4612C618.295 -21.4612 579.509 17.3247 579.509 64.976C579.509 112.627 618.295 151.413 665.946 151.413V241.175Z" fill="#B52528"/>
<path d="M454.285 64.9853H367.848C367.848 -100.132 501.936 -233.112 665.945 -233.112V-146.675C549.587 -146.675 454.285 -52.4804 454.285 64.9853Z" fill="#23346B"/>
<path d="M665.944 487.185V363.07C831.061 363.07 964.041 228.982 964.041 64.9733H1088.16C1088.16 297.689 898.66 487.185 665.944 487.185Z" fill="#B52528"/>
<path d="M527.417 388.556C448.737 354.202 384.463 293.253 347.894 215.681L474.225 155.84C496.388 202.383 535.174 238.953 582.825 260.008L527.417 388.556Z" fill="#23346B"/>
<path d="M1121.4 64.9646H964.041C964.041 -100.152 829.953 -233.133 665.944 -233.133V-390.492C916.39 -390.492 1121.4 -186.59 1121.4 64.9646Z" fill="#F5F6F8"/>
<path d="M665.946 488.293C432.122 488.293 242.625 297.689 242.625 64.9733H285.844C285.844 274.417 456.502 445.075 665.946 445.075V488.293Z" fill="#B52528"/>
<path d="M244.841 64.9792H185C185 -199.873 401.093 -415.966 665.945 -415.966V-356.125C433.23 -356.125 244.841 -167.736 244.841 64.9792Z" fill="#B52528"/>
<path d="M763.466 282.19L705.841 153.642C728.005 143.669 745.735 125.938 755.709 104.883L883.148 162.508C858.768 216.808 816.658 258.918 763.466 282.19Z" fill="#23346B"/>
</g>
</g>
</svg>
