<svg width="68" height="61" viewBox="0 0 68 61" fill="none" xmlns="http://www.w3.org/2000/svg">
<path opacity="0.08" fill-rule="evenodd" clip-rule="evenodd" d="M36.2163 3.53512C43.0796 4.51064 50.5592 4.00954 56.0258 7.3904C61.3916 10.7089 62.999 16.2547 65.0309 21.3557C67.0344 26.3855 68.7359 31.4303 67.6735 36.6318C66.4627 42.5594 64.1138 48.5111 58.6249 52.7178C52.6153 57.3236 44.6286 61.0993 36.2163 60.7405C27.9419 60.3877 21.1252 55.6404 15.5198 50.8795C10.7115 46.7957 10.454 40.9312 7.12465 36.0322C2.73346 29.5708 -0.585337 26.9534 0.0867047 19.659C0.764697 12.3 1.6405 3.75588 10.3614 0.899922C18.5764 -1.79035 27.451 2.28928 36.2163 3.53512Z" fill="#23346B"/>
<path d="M32.2021 47.3611H35.2769V44.0494C35.2769 45.8009 33.9213 47.2346 32.2021 47.3611Z" fill="white"/>
<path d="M38.6802 47.3733C36.8455 47.3733 35.3584 45.8861 35.3584 44.0515V47.3733H38.6802Z" fill="white"/>
<path d="M54.9136 8.62666V19.2372L51.5267 17.2837L48.2196 19.2372V8.62666H41.7449C38.2177 8.62666 35.3584 11.486 35.3584 15.0132V44.0514C35.3584 42.2168 36.8456 40.7297 38.6802 40.7297H55.0338V8.62666H54.9136Z" fill="white"/>
<path d="M16.2042 8.93597V19.642V17.8719V8.93597H22.8926H29.362C32.8862 8.93597 35.7432 11.821 35.7432 15.38V44.6796C35.7432 42.8284 34.2572 41.3279 32.4242 41.3279H16.0842V8.93597H16.2042Z" fill="white"/>
<path d="M36.0893 52.1497H34.5507C31.9129 52.1497 29.7744 50.0112 29.7744 47.3733H40.8657C40.8657 50.0112 38.7273 52.1497 36.0893 52.1497Z" fill="white"/>
<path d="M60.2389 11.7017C59.4294 11.7017 58.7731 12.3581 58.7731 13.1675V45.9014H38.5606C37.5938 45.8383 36.8261 45.0339 36.8261 44.0516C36.8261 43.0283 37.6589 42.1956 38.6821 42.1956H55.0356C55.845 42.1956 56.5014 41.5392 56.5014 40.7298V8.62669C56.5014 7.81722 55.8449 7.1609 55.0356 7.1609H54.9155C54.106 7.1609 53.4497 7.81732 53.4497 8.62669V16.6997L52.261 16.0141C51.803 15.7498 51.2381 15.7529 50.7831 16.0217L49.6874 16.669V8.62669C49.6874 7.81722 49.031 7.1609 48.2216 7.1609H41.7469C39.0945 7.1609 36.7469 8.48395 35.3246 10.5034C33.9033 8.47704 31.5513 7.14874 28.8938 7.14874H15.6047C14.7952 7.14874 14.1389 7.80516 14.1389 8.61453V40.7276C14.1389 41.537 14.7953 42.1934 15.6047 42.1934H31.9582C32.9816 42.1934 33.8141 43.026 33.8141 44.0493C33.8141 45.0157 33.0601 45.8284 32.0977 45.8991C32.0918 45.8995 32.0861 45.9006 32.0803 45.9013H11.8671V13.1675C11.8671 12.358 11.2107 11.7017 10.4013 11.7017C9.59197 11.7017 8.93555 12.358 8.93555 13.1675V47.3672C8.93555 48.1766 9.59197 48.833 10.4013 48.833H28.4827C29.1419 51.5728 31.6114 53.6155 34.5507 53.6155H36.0893C39.0287 53.6155 41.4984 51.5728 42.1574 48.833H60.2389C61.0484 48.833 61.7047 48.1765 61.7047 47.3672V13.1675C61.7047 12.3579 61.0483 11.7017 60.2389 11.7017ZM36.8259 15.0132C36.8259 12.2998 39.0334 10.0925 41.7466 10.0925H46.7556V19.2374C46.7556 19.7638 47.0377 20.2495 47.4947 20.5106C47.9518 20.7712 48.5137 20.7671 48.9668 20.4995L51.5371 18.9813L53.5695 20.1536V39.264H38.6821C38.0243 39.264 37.397 39.3974 36.8261 39.6383V15.0132H36.8259ZM31.9582 39.2618H17.0704V10.0803H28.8935C31.6067 10.0803 33.8141 12.2879 33.8141 15.0009V39.6361C33.2433 39.3951 32.6161 39.2618 31.9582 39.2618ZM36.0894 50.6839H34.5508C33.2514 50.6839 32.1244 49.9313 31.5829 48.8391H35.3603H38.6821H39.0576C38.5158 49.9313 37.3888 50.6839 36.0894 50.6839Z" fill="#23346B"/>
</svg>
