<svg width="73" height="62" viewBox="0 0 73 62" fill="none" xmlns="http://www.w3.org/2000/svg">
<path opacity="0.08" fill-rule="evenodd" clip-rule="evenodd" d="M34.625 1.8888C41.9483 3.76102 44.8496 10.9665 51.118 14.6692C57.5737 18.4825 68.2137 17.6749 71.5481 23.6988C74.862 29.686 69.7919 36.5536 66.5637 42.574C63.6642 47.9815 59.7455 52.8903 54.036 56.358C48.3457 59.814 41.6263 62.2929 34.625 61.9721C27.8255 61.6605 22.4051 57.7669 16.6879 54.6466C10.588 51.3174 2.17708 49.1494 0.287527 43.2315C-1.60006 37.3197 6.37484 32.4565 7.67968 26.4338C9.32541 18.8377 2.59895 9.52094 8.81855 3.85538C14.8345 -1.62467 26.1517 -0.277382 34.625 1.8888Z" fill="#23346B"/>
<path d="M58.4987 40.9999V9.97604C58.4987 7.50493 56.4956 5.50159 54.0243 5.50159H14.9764C12.5052 5.50159 10.502 7.50493 10.502 9.97604V40.9999H58.4987Z" fill="white"/>
<path d="M58.4984 15.2527C57.6691 15.2527 56.9968 14.5804 56.9968 13.7511V9.97607C56.9968 8.33689 55.6632 7.00322 54.0239 7.00322H14.9761C13.3369 7.00322 12.0032 8.33679 12.0032 9.97607V12.2494H46.2197C47.049 12.2494 47.7214 12.9216 47.7214 13.751C47.7214 14.5803 47.0489 15.2526 46.2197 15.2526H10.5016C9.67246 15.2527 9 14.5804 9 13.7511V9.97607C9 6.68089 11.6809 4 14.9761 4H54.0239C57.3191 4 60 6.68089 60 9.97607V13.7511C60 14.5804 59.3275 15.2527 58.4984 15.2527Z" fill="#23346B"/>
<path d="M10.502 36.6262V41.1193C10.502 43.5904 12.5053 45.5938 14.9764 45.5938H54.0243C56.4954 45.5938 58.4987 43.5904 58.4987 41.1193V36.6262H22.6303" fill="white"/>
<path d="M54.0239 47.0952H14.9761C11.6809 47.0952 9 44.4143 9 41.1191V36.6261C9 35.7968 9.67246 35.1245 10.5016 35.1245C11.3308 35.1245 12.0032 35.7968 12.0032 36.6261V41.1192C12.0032 42.7584 13.3368 44.092 14.9761 44.092H54.0239C55.6631 44.092 56.9968 42.7585 56.9968 41.1192V38.1278H22.63C21.8008 38.1278 21.1284 37.4556 21.1284 36.6262C21.1284 35.7969 21.8009 35.1246 22.63 35.1246H58.4984C59.3276 35.1246 60 35.7969 60 36.6262V41.1193C60 44.4143 57.3191 47.0952 54.0239 47.0952Z" fill="#23346B"/>
<path d="M10.5016 40.1519C9.67246 40.1519 9 39.4796 9 38.6503V10.865C9 10.0357 9.67246 9.3634 10.5016 9.3634C11.3308 9.3634 12.0032 10.0357 12.0032 10.865V38.6503C12.0033 39.4796 11.3309 40.1519 10.5016 40.1519Z" fill="#23346B"/>
<path d="M58.4987 40.152C57.6694 40.152 56.9971 39.4797 56.9971 38.6504V9.36343C56.9971 8.53408 57.6695 7.86182 58.4987 7.86182C59.3279 7.86182 60.0003 8.53408 60.0003 9.36343V38.6504C60.0003 39.4797 59.3278 40.152 58.4987 40.152Z" fill="#23346B"/>
<path d="M39.4554 53.1017H29.5446C28.7153 53.1017 28.043 52.4294 28.043 51.6001V45.5937C28.043 44.7643 28.7154 44.092 29.5446 44.092C30.3737 44.092 31.0462 44.7643 31.0462 45.5937V50.0984H37.9537V45.5937C37.9537 44.7643 38.6262 44.092 39.4553 44.092C40.2846 44.092 40.9569 44.7643 40.9569 45.5937V51.6001C40.957 52.4294 40.2848 53.1017 39.4554 53.1017Z" fill="#23346B"/>
<path d="M46.1126 53.1017H22.8874C22.0581 53.1017 21.3857 52.4295 21.3857 51.6001C21.3857 50.7708 22.0582 50.0985 22.8874 50.0985H46.1126C46.9418 50.0985 47.6142 50.7708 47.6142 51.6001C47.6142 52.4295 46.9419 53.1017 46.1126 53.1017Z" fill="#23346B"/>
</svg>
