<svg width="65" height="65" viewBox="0 0 65 65" fill="none" xmlns="http://www.w3.org/2000/svg">
<path d="M32.4997 43.8574C26.214 43.8574 21.1426 38.786 21.1426 32.5003C21.1426 26.2146 26.214 21.1432 32.4997 21.1432C38.7854 21.1432 43.8569 26.2146 43.8569 32.5003H38.0711C38.0711 29.4289 35.5711 26.9289 32.4997 26.9289C29.4283 26.9289 26.9283 29.4289 26.9283 32.5003C26.9283 35.5717 29.4283 38.0717 32.4997 38.0717V43.8574Z" fill="#B52528"/>
<path d="M18.8566 32.5008H13.2852C13.2852 21.8579 21.928 13.2865 32.4994 13.2865V18.8579C24.9994 18.8579 18.8566 24.9294 18.8566 32.5008Z" fill="#23346B"/>
<path d="M32.5005 59.7145V51.7145C43.1433 51.7145 51.7148 43.0716 51.7148 32.5002H59.7148C59.7148 47.5002 47.5005 59.7145 32.5005 59.7145Z" fill="#B52528"/>
<path d="M23.5714 53.3571C18.5 51.1428 14.3571 47.2143 12 42.2143L20.1429 38.3571C21.5714 41.3571 24.0714 43.7143 27.1429 45.0714L23.5714 53.3571Z" fill="#23346B"/>
<path d="M23.5714 53.3571C18.5 51.1428 14.3571 47.2143 12 42.2143L20.1429 38.3571C21.5714 41.3571 24.0714 43.7143 27.1429 45.0714L23.5714 53.3571Z" fill="#23346B"/>
<path d="M61.8576 32.4994H51.7148C51.7148 21.8566 43.0719 13.2852 32.5005 13.2852V3.1423C48.6433 3.1423 61.8576 16.2852 61.8576 32.4994Z" fill="#23346B"/>
<path d="M32.4986 59.7859C17.4272 59.7859 5.21289 47.5002 5.21289 32.5002H7.9986C7.9986 46.0002 18.9986 57.0002 32.4986 57.0002V59.7859Z" fill="#B52528"/>
<path d="M5.35666 32.5003H1.49951C1.49951 15.4288 15.4281 1.50024 32.4995 1.50024V5.35739C17.4995 5.35739 5.35666 17.5002 5.35666 32.5003Z" fill="#B52528"/>
<path d="M44.8579 26.6425C43.4293 23.6425 40.9293 21.2853 37.8579 19.9282L41.4293 11.6425C46.5008 13.8568 50.6436 17.7853 53.0008 22.7853L44.8579 26.6425Z" fill="#B52528"/>
<path d="M38.7866 46.501L35.0723 38.2153C36.5008 37.5725 37.6437 36.4296 38.2866 35.0725L46.5008 38.7868C44.9294 42.2868 42.2151 45.001 38.7866 46.501Z" fill="#23346B"/>
</svg>
