<svg width="234" height="278" viewBox="0 0 234 278" fill="none" xmlns="http://www.w3.org/2000/svg">
<mask id="mask0" mask-type="alpha" maskUnits="userSpaceOnUse" x="0" y="3" width="234" height="275">
<path d="M115.373 15.5394C126.794 17.1391 137.56 24.3745 147.148 32.9831C156.737 41.5918 165.577 51.6196 175.325 59.9629C190.404 72.9134 209.049 83.9031 215.114 105.48C219.963 122.781 214.851 141.303 216.712 159.314C218.19 172.948 223.554 185.663 226.011 199.128C228.444 212.399 227.791 226.834 222.176 237.797C214.173 253.428 197.849 258.87 182.709 257.971C167.568 257.073 152.682 251.031 137.597 248.7C119.418 245.913 101.174 248.542 83.5625 253.206C72.8014 256.049 61.5931 259.634 50.6746 255.859C40.9636 252.526 32.5075 243.434 27.5871 232.14C22.6668 220.845 21.1604 207.608 22.6925 195.327C24.797 178.304 32.2508 163.527 36.1664 147.168C39.4958 133.24 40.1772 118.408 41.1475 103.736C41.8023 94.0203 42.6427 83.9373 46.7778 75.9579C51.458 66.781 59.6501 61.7951 66.6795 55.4768C83.6845 40.2177 90.3017 12.0233 115.373 15.5394Z" fill="#F6F6F8"/>
</mask>
<g mask="url(#mask0)">
<path d="M117.558 33.3718C128.952 34.7589 139.644 41.3878 149.147 49.3029C158.651 57.2181 167.394 66.4582 177.06 74.1254C192.011 86.0269 210.54 96.0756 216.411 116.07C221.105 132.103 215.838 149.356 217.54 166.074C218.898 178.729 224.146 190.496 226.483 202.985C228.798 215.294 228.021 228.712 222.317 238.946C214.187 253.539 197.833 258.736 182.716 258.033C167.6 257.33 152.781 251.845 137.732 249.811C119.598 247.379 101.35 249.98 83.7168 254.467C72.9424 257.201 61.7149 260.63 50.8409 257.217C41.1691 254.205 32.801 245.831 27.984 235.38C23.1669 224.929 21.7771 212.643 23.4142 201.219C25.6644 185.385 33.2386 171.59 37.2921 156.357C40.7389 143.388 41.5484 129.601 42.6451 115.961C43.3835 106.928 44.3107 97.5526 48.5106 90.1029C53.2656 81.5359 61.4923 76.8324 68.5691 70.9009C85.6885 56.5759 92.5435 30.3226 117.558 33.3718Z" fill="#F6F6F8"/>
<path d="M79.1214 92.1276H84.5818V104.729H96.4511V86.1232H109.994V64.6162H117.344V94.8404H124.841V66.1435H182.033V118.76H71.6665L79.1214 92.1276Z" fill="#9199B5"/>
<path d="M170.789 34H155.789V66H170.789V34Z" fill="#23346B"/>
<path d="M170.789 34H155.789V66H170.789V34Z" fill="url(#paint0_linear)"/>
<path d="M62.9492 118.76V68.5L80.3835 70.9205V118.76H62.9492Z" fill="#23346B"/>
<path d="M87.7339 118.76V75.1186L105.168 76.5901V118.76H87.7339Z" fill="#23346B"/>
<path d="M62.9492 118.76V75.1187L80.3835 75.1186V118.76H62.9492Z" fill="#23346B"/>
<path opacity="0.34" d="M69.7886 79H67.7886V119H69.7886V79Z" fill="white"/>
<path d="M87.7886 119V75L107.789 76.4835V119H87.7886Z" fill="#23346B"/>
<path d="M144.437 53.4862H119.513V118.76H144.437V53.4862Z" fill="#23346B"/>
<path d="M178.322 40.4802H148.433V118.76H178.322V40.4802Z" fill="#23346B"/>
<path opacity="0.34" d="M75.7886 79H73.7886V119H75.7886V79Z" fill="white"/>
<path opacity="0.34" d="M95.7886 80H93.7886V120H95.7886V80Z" fill="white"/>
<path opacity="0.34" d="M101.789 80H99.7886V120H101.789V80Z" fill="white"/>
<path d="M178.315 40.4802L151.997 42.5653V118.969H148.433V40.4802H178.315Z" fill="#1A295B"/>
<path d="M144.444 53.4862L122.484 55.2296V118.969H119.506V53.4862H144.444Z" fill="#1A295B"/>
<path d="M105.168 76.5901L89.7284 76.2833V118.969H87.7339V75.1186L105.168 76.5901Z" fill="#1A295B"/>
<path opacity="0.34" d="M128.733 60.5924H126.85V118.767H128.733V60.5924Z" fill="white"/>
<path opacity="0.34" d="M134.514 60.5924H132.631V118.767H134.514V60.5924Z" fill="white"/>
<path opacity="0.34" d="M140.288 60.5924H138.405V118.767H140.288V60.5924Z" fill="white"/>
<path opacity="0.34" d="M159.019 46.5683H157.136V118.76H159.019V46.5683Z" fill="white"/>
<path opacity="0.34" d="M164.8 46.5683H162.917V118.76H164.8V46.5683Z" fill="white"/>
<path opacity="0.34" d="M170.575 46.5683H168.692V118.76H170.575V46.5683Z" fill="white"/>
<path opacity="0.1" d="M62.6964 112.778H183.949C186.046 112.78 188.057 113.675 189.539 115.269C191.022 116.862 191.856 119.023 191.857 121.277V153.365C191.856 155.619 191.022 157.78 189.539 159.373C188.057 160.967 186.046 161.862 183.949 161.864H62.6964C60.5994 161.862 58.5887 160.967 57.106 159.373C55.6232 157.78 54.7897 155.619 54.7886 153.365V121.277C54.7897 119.023 55.6232 116.862 57.106 115.269C58.5887 113.675 60.5994 112.78 62.6964 112.778Z" fill="#23346B"/>
<path opacity="0.1" d="M61.6924 168H182.885C184.981 168.001 186.99 168.841 188.472 170.334C189.954 171.827 190.787 173.852 190.789 175.964V206.036C190.787 208.148 189.954 210.173 188.472 211.666C186.99 213.159 184.981 213.999 182.885 214H61.6924C59.5965 213.999 57.5868 213.159 56.1048 211.666C54.6228 210.173 53.7897 208.148 53.7886 206.036V175.964C53.7897 173.852 54.6228 171.827 56.1048 170.334C57.5868 168.841 59.5965 168.001 61.6924 168Z" fill="#23346B"/>
<path opacity="0.1" d="M60.6924 220H181.885C183.981 220.001 185.99 220.841 187.472 222.334C188.954 223.827 189.787 225.852 189.789 227.964V258.036C189.787 260.148 188.954 262.173 187.472 263.666C185.99 265.159 183.981 265.999 181.885 266H60.6924C58.5965 265.999 56.5868 265.159 55.1048 263.666C53.6228 262.173 52.7897 260.148 52.7886 258.036V227.964C52.7897 225.852 53.6228 223.827 55.1048 222.334C56.5868 220.841 58.5965 220.001 60.6924 220Z" fill="#23346B"/>
<path d="M65.4747 110H186.727C188.824 110.001 190.835 110.897 192.318 112.49C193.8 114.084 194.634 116.245 194.635 118.498V150.587C194.634 152.841 193.8 155.001 192.318 156.595C190.835 158.188 188.824 159.084 186.727 159.085H65.4747C63.3778 159.084 61.367 158.188 59.8843 156.595C58.4015 155.001 57.568 152.841 57.5669 150.587V118.498C57.568 116.245 58.4015 114.084 59.8843 112.49C61.367 110.897 63.3778 110.001 65.4747 110Z" fill="white"/>
<path d="M69.9923 118.161H90.716C91.8038 118.161 92.847 118.593 93.6162 119.363C94.3854 120.132 94.8176 121.175 94.8176 122.263V142.986C94.8176 143.525 94.7115 144.058 94.5053 144.556C94.2992 145.054 93.9971 145.506 93.6162 145.887C93.2354 146.268 92.7832 146.57 92.2856 146.776C91.788 146.982 91.2546 147.088 90.716 147.088H69.9923C69.4537 147.088 68.9203 146.982 68.4227 146.776C67.9251 146.57 67.4729 146.268 67.0921 145.887C66.7112 145.506 66.4091 145.054 66.203 144.556C65.9968 144.058 65.8907 143.525 65.8907 142.986V122.263C65.8867 121.723 65.9901 121.188 66.1948 120.688C66.3995 120.189 66.7014 119.735 67.0831 119.354C67.4648 118.972 67.9185 118.67 68.418 118.465C68.9174 118.261 69.4526 118.157 69.9923 118.161Z" fill="#DDE0E9"/>
<path d="M79.1311 130.891H76.5051C76.2207 130.891 75.9902 130.661 75.9902 130.377V127.751C75.9902 127.466 76.2207 127.236 76.5051 127.236H79.1311C79.4155 127.236 79.6461 127.466 79.6461 127.751V130.377C79.6461 130.661 79.4155 130.891 79.1311 130.891ZM77.02 129.862H78.6162V128.265H77.02V129.862Z" fill="white"/>
<path d="M83.6062 130.891H80.9802C80.6958 130.891 80.4653 130.661 80.4653 130.377V127.751C80.4653 127.466 80.6958 127.236 80.9802 127.236H83.6062C83.8906 127.236 84.1211 127.466 84.1211 127.751V130.377C84.1211 130.661 83.8906 130.891 83.6062 130.891ZM81.4951 129.862H83.0913V128.265H81.4951V129.862Z" fill="white"/>
<path d="M79.1311 135.384H76.5051C76.2207 135.384 75.9902 135.153 75.9902 134.869V132.243C75.9902 131.959 76.2207 131.728 76.5051 131.728H79.1311C79.4155 131.728 79.6461 131.959 79.6461 132.243V134.869C79.6461 135.153 79.4155 135.384 79.1311 135.384ZM77.02 134.354H78.6162V132.758H77.02V134.354Z" fill="white"/>
<path d="M83.6062 135.384H80.9802C80.6958 135.384 80.4653 135.153 80.4653 134.869V132.243C80.4653 131.959 80.6958 131.728 80.9802 131.728H83.6062C83.8906 131.728 84.1211 131.959 84.1211 132.243V134.869C84.1211 135.153 83.8906 135.384 83.6062 135.384ZM81.4951 134.354H83.0913V132.758H81.4951V134.354Z" fill="white"/>
<path d="M83.1451 123.515H76.9663V125.601H83.1451V123.515Z" fill="white"/>
<path d="M89.1791 136.804L87.6865 135.258C87.489 135.053 87.163 135.048 86.9585 135.245C86.7539 135.443 86.7482 135.769 86.9458 135.973L88.2938 137.369V140.997H85.9776V125.601C85.9776 125.316 85.7471 125.086 85.4627 125.086H83.6604V123.515C83.6604 123.231 83.4298 123 83.1454 123H76.9666C76.6822 123 76.4517 123.231 76.4517 123.515V125.086H74.6495C74.3651 125.086 74.1346 125.316 74.1346 125.601V140.997H71.8184V137.369L73.1664 135.973C73.3639 135.769 73.3583 135.443 73.1537 135.245C72.9492 135.048 72.6232 135.053 72.4256 135.258L70.9331 136.804C70.8404 136.9 70.7886 137.028 70.7886 137.161V141.512C70.7886 141.796 71.0191 142.027 71.3035 142.027H88.8088C89.0932 142.027 89.3237 141.796 89.3237 141.512V137.161C89.3237 137.028 89.2719 136.9 89.1791 136.804ZM77.4816 124.03H82.6306V125.086H77.4816V124.03ZM75.1644 126.115H76.9667H83.1455H84.9478V140.997H78.5125V137.251H81.5997V139.545C81.5997 139.83 81.8302 140.06 82.1146 140.06C82.399 140.06 82.6295 139.83 82.6295 139.545V136.736C82.6295 136.451 82.399 136.221 82.1146 136.221H77.9976C77.7132 136.221 77.4827 136.451 77.4827 136.736V140.997H75.1644V126.115H75.1644Z" fill="white"/>
<path d="M184.318 128.825H106.173C105.829 128.825 105.5 128.689 105.257 128.446C105.014 128.203 104.877 127.874 104.877 127.53C104.877 127.187 105.014 126.857 105.257 126.614C105.5 126.371 105.829 126.235 106.173 126.235H184.318C184.662 126.235 184.991 126.371 185.234 126.614C185.477 126.857 185.614 127.187 185.614 127.53C185.614 127.874 185.477 128.203 185.234 128.446C184.991 128.689 184.662 128.825 184.318 128.825Z" fill="#DDE0E9"/>
<path d="M133.049 121.114H105.26C105.138 121.114 105.021 120.967 104.935 120.707C104.848 120.446 104.8 120.093 104.8 119.724C104.8 119.356 104.848 119.003 104.935 118.742C105.021 118.482 105.138 118.335 105.26 118.335H133.049C133.172 118.335 133.289 118.482 133.375 118.742C133.462 119.003 133.51 119.356 133.51 119.724C133.51 120.093 133.462 120.446 133.375 120.707C133.289 120.967 133.172 121.114 133.049 121.114Z" fill="#23346B"/>
<path d="M184.318 137.158H106.173C105.829 137.158 105.5 137.021 105.257 136.779C105.014 136.536 104.877 136.206 104.877 135.863C104.877 135.519 105.014 135.19 105.257 134.947C105.5 134.704 105.829 134.567 106.173 134.567H184.318C184.662 134.567 184.991 134.704 185.234 134.947C185.477 135.19 185.614 135.519 185.614 135.863C185.614 136.206 185.477 136.536 185.234 136.779C184.991 137.021 184.662 137.158 184.318 137.158Z" fill="#DDE0E9"/>
<path d="M184.318 145.491H106.173C105.829 145.491 105.5 145.354 105.257 145.112C105.014 144.869 104.877 144.539 104.877 144.196C104.877 143.852 105.014 143.523 105.257 143.28C105.5 143.037 105.829 142.9 106.173 142.9H184.318C184.662 142.9 184.991 143.037 185.234 143.28C185.477 143.523 185.614 143.852 185.614 144.196C185.614 144.539 185.477 144.869 185.234 145.112C184.991 145.354 184.662 145.491 184.318 145.491Z" fill="#DDE0E9"/>
<path d="M63.6964 166.42H184.949C187.046 166.422 189.057 167.25 190.539 168.723C192.022 170.196 192.856 172.194 192.857 174.277V203.944C192.856 206.028 192.022 208.025 190.539 209.499C189.057 210.972 187.046 211.8 184.949 211.801H63.6964C61.5994 211.8 59.5887 210.972 58.106 209.499C56.6232 208.025 55.7897 206.028 55.7886 203.944V174.277C55.7897 172.194 56.6232 170.196 58.106 168.723C59.5887 167.25 61.5994 166.422 63.6964 166.42Z" fill="white"/>
<path d="M68.214 174.582H88.9377C90.0255 174.582 91.0687 175.014 91.8379 175.783C92.6071 176.552 93.0392 177.595 93.0392 178.683V199.407C93.0392 199.946 92.9332 200.479 92.727 200.976C92.5209 201.474 92.2188 201.926 91.8379 202.307C91.4571 202.688 91.0049 202.99 90.5073 203.196C90.0097 203.402 89.4763 203.508 88.9377 203.508H68.214C67.6754 203.508 67.142 203.402 66.6444 203.196C66.1468 202.99 65.6946 202.688 65.3137 202.307C64.9329 201.926 64.6308 201.474 64.4246 200.976C64.2185 200.479 64.1124 199.946 64.1124 199.407V178.683C64.1084 178.143 64.2117 177.608 64.4164 177.109C64.6211 176.609 64.9231 176.156 65.3048 175.774C65.6864 175.392 66.1402 175.09 66.6396 174.886C67.1391 174.681 67.6742 174.578 68.214 174.582Z" fill="#DDE0E9"/>
<path d="M78.1311 186.891H75.5051C75.2207 186.891 74.9902 186.661 74.9902 186.377V183.751C74.9902 183.466 75.2207 183.236 75.5051 183.236H78.1311C78.4155 183.236 78.6461 183.466 78.6461 183.751V186.377C78.6461 186.661 78.4155 186.891 78.1311 186.891ZM76.02 185.862H77.6162V184.265H76.02V185.862Z" fill="white"/>
<path d="M82.6062 186.891H79.9802C79.6958 186.891 79.4653 186.661 79.4653 186.377V183.751C79.4653 183.466 79.6958 183.236 79.9802 183.236H82.6062C82.8906 183.236 83.1211 183.466 83.1211 183.751V186.377C83.1211 186.661 82.8906 186.891 82.6062 186.891ZM80.4951 185.862H82.0913V184.265H80.4951V185.862Z" fill="white"/>
<path d="M78.1311 191.384H75.5051C75.2207 191.384 74.9902 191.153 74.9902 190.869V188.243C74.9902 187.959 75.2207 187.728 75.5051 187.728H78.1311C78.4155 187.728 78.6461 187.959 78.6461 188.243V190.869C78.6461 191.153 78.4155 191.384 78.1311 191.384ZM76.02 190.354H77.6162V188.758H76.02V190.354Z" fill="white"/>
<path d="M82.6062 191.384H79.9802C79.6958 191.384 79.4653 191.153 79.4653 190.869V188.243C79.4653 187.959 79.6958 187.728 79.9802 187.728H82.6062C82.8906 187.728 83.1211 187.959 83.1211 188.243V190.869C83.1211 191.153 82.8906 191.384 82.6062 191.384ZM80.4951 190.354H82.0913V188.758H80.4951V190.354Z" fill="white"/>
<path d="M82.1451 179.515H75.9663V181.601H82.1451V179.515Z" fill="white"/>
<path d="M88.1791 192.804L86.6865 191.258C86.489 191.053 86.163 191.048 85.9585 191.245C85.7539 191.443 85.7482 191.769 85.9458 191.973L87.2938 193.369V196.997H84.9776V181.6C84.9776 181.316 84.7471 181.086 84.4627 181.086H82.6604V179.515C82.6604 179.23 82.4298 179 82.1454 179H75.9666C75.6822 179 75.4517 179.23 75.4517 179.515V181.086H73.6495C73.3651 181.086 73.1346 181.316 73.1346 181.601V196.997H70.8184V193.369L72.1664 191.973C72.3639 191.769 72.3583 191.443 72.1537 191.245C71.9492 191.048 71.6232 191.053 71.4256 191.258L69.9331 192.804C69.8404 192.9 69.7886 193.028 69.7886 193.161V197.512C69.7886 197.796 70.0191 198.026 70.3035 198.026H87.8088C88.0932 198.026 88.3237 197.796 88.3237 197.512V193.161C88.3237 193.028 88.2719 192.9 88.1791 192.804ZM76.4816 180.03H81.6306V181.086H76.4816V180.03ZM74.1644 182.115H75.9667H82.1455H83.9478V196.997H77.5125V193.25H80.5997V195.545C80.5997 195.83 80.8302 196.06 81.1146 196.06C81.399 196.06 81.6295 195.83 81.6295 195.545V192.736C81.6295 192.451 81.399 192.221 81.1146 192.221H76.9976C76.7132 192.221 76.4827 192.451 76.4827 192.736V196.997H74.1644V182.115H74.1644Z" fill="white"/>
<path d="M182.539 185.246H104.394C104.05 185.246 103.721 185.109 103.478 184.866C103.235 184.624 103.099 184.294 103.099 183.951C103.099 183.607 103.235 183.278 103.478 183.035C103.721 182.792 104.05 182.655 104.394 182.655H182.539C182.883 182.655 183.212 182.792 183.455 183.035C183.698 183.278 183.835 183.607 183.835 183.951C183.835 184.294 183.698 184.624 183.455 184.866C183.212 185.109 182.883 185.246 182.539 185.246Z" fill="#DDE0E9"/>
<path d="M131.271 177.534H103.482C103.36 177.534 103.243 177.388 103.156 177.127C103.07 176.867 103.021 176.513 103.021 176.145C103.021 175.776 103.07 175.423 103.156 175.163C103.243 174.902 103.36 174.756 103.482 174.756H131.271C131.393 174.756 131.51 174.902 131.597 175.163C131.683 175.423 131.732 175.776 131.732 176.145C131.732 176.513 131.683 176.867 131.597 177.127C131.51 177.388 131.393 177.534 131.271 177.534Z" fill="#23346B"/>
<path d="M182.539 193.578H104.394C104.05 193.578 103.721 193.442 103.478 193.199C103.235 192.956 103.099 192.627 103.099 192.283C103.099 191.94 103.235 191.61 103.478 191.367C103.721 191.124 104.05 190.988 104.394 190.988H182.539C182.883 190.988 183.212 191.124 183.455 191.367C183.698 191.61 183.835 191.94 183.835 192.283C183.835 192.627 183.698 192.956 183.455 193.199C183.212 193.442 182.883 193.578 182.539 193.578Z" fill="#DDE0E9"/>
<path d="M182.539 201.911H104.394C104.05 201.911 103.721 201.775 103.478 201.532C103.235 201.289 103.099 200.96 103.099 200.616C103.099 200.273 103.235 199.943 103.478 199.7C103.721 199.457 104.05 199.321 104.394 199.321H182.539C182.883 199.321 183.212 199.457 183.455 199.7C183.698 199.943 183.835 200.273 183.835 200.616C183.835 200.96 183.698 201.289 183.455 201.532C183.212 201.775 182.883 201.911 182.539 201.911Z" fill="#DDE0E9"/>
<path d="M63.6964 218.358H184.949C187.046 218.359 189.057 219.187 190.539 220.66C192.022 222.134 192.856 224.131 192.857 226.215V255.882C192.856 257.965 192.022 259.963 190.539 261.436C189.057 262.909 187.046 263.738 184.949 263.739H63.6964C61.5994 263.738 59.5887 262.909 58.106 261.436C56.6232 259.963 55.7897 257.965 55.7886 255.882V226.215C55.7897 224.131 56.6232 222.134 58.106 220.66C59.5887 219.187 61.5994 218.359 63.6964 218.358Z" fill="white"/>
<path d="M68.214 226.519H88.9377C90.0255 226.519 91.0687 226.951 91.8379 227.721C92.6071 228.49 93.0392 229.533 93.0392 230.621V251.344C93.0392 251.883 92.9332 252.416 92.727 252.914C92.5209 253.412 92.2188 253.864 91.8379 254.245C91.4571 254.626 91.0049 254.928 90.5073 255.134C90.0097 255.34 89.4763 255.446 88.9377 255.446H68.214C67.6754 255.446 67.142 255.34 66.6444 255.134C66.1468 254.928 65.6946 254.626 65.3137 254.245C64.9329 253.864 64.6308 253.412 64.4246 252.914C64.2185 252.416 64.1124 251.883 64.1124 251.344V230.621C64.1084 230.081 64.2117 229.546 64.4164 229.046C64.6211 228.547 64.9231 228.093 65.3048 227.712C65.6864 227.33 66.1402 227.028 66.6396 226.823C67.1391 226.619 67.6742 226.515 68.214 226.519Z" fill="#DDE0E9"/>
<path d="M77.1311 238.891H74.5051C74.2207 238.891 73.9902 238.661 73.9902 238.377V235.751C73.9902 235.466 74.2207 235.236 74.5051 235.236H77.1311C77.4155 235.236 77.6461 235.466 77.6461 235.751V238.377C77.6461 238.661 77.4155 238.891 77.1311 238.891ZM75.02 237.862H76.6162V236.265H75.02V237.862Z" fill="white"/>
<path d="M81.6062 238.891H78.9802C78.6958 238.891 78.4653 238.661 78.4653 238.377V235.751C78.4653 235.466 78.6958 235.236 78.9802 235.236H81.6062C81.8906 235.236 82.1211 235.466 82.1211 235.751V238.377C82.1211 238.661 81.8906 238.891 81.6062 238.891ZM79.4951 237.862H81.0913V236.265H79.4951V237.862Z" fill="white"/>
<path d="M77.1311 243.384H74.5051C74.2207 243.384 73.9902 243.153 73.9902 242.869V240.243C73.9902 239.959 74.2207 239.728 74.5051 239.728H77.1311C77.4155 239.728 77.6461 239.959 77.6461 240.243V242.869C77.6461 243.153 77.4155 243.384 77.1311 243.384ZM75.02 242.354H76.6162V240.758H75.02V242.354Z" fill="white"/>
<path d="M81.6062 243.384H78.9802C78.6958 243.384 78.4653 243.153 78.4653 242.869V240.243C78.4653 239.959 78.6958 239.728 78.9802 239.728H81.6062C81.8906 239.728 82.1211 239.959 82.1211 240.243V242.869C82.1211 243.153 81.8906 243.384 81.6062 243.384ZM79.4951 242.354H81.0913V240.758H79.4951V242.354Z" fill="white"/>
<path d="M81.1451 231.515H74.9663V233.601H81.1451V231.515Z" fill="white"/>
<path d="M87.1791 244.804L85.6865 243.258C85.489 243.053 85.163 243.048 84.9585 243.245C84.7539 243.443 84.7482 243.769 84.9458 243.973L86.2938 245.369V248.997H83.9776V233.601C83.9776 233.316 83.7471 233.086 83.4627 233.086H81.6604V231.515C81.6604 231.231 81.4298 231 81.1454 231H74.9666C74.6822 231 74.4517 231.231 74.4517 231.515V233.086H72.6495C72.3651 233.086 72.1346 233.316 72.1346 233.601V248.997H69.8184V245.369L71.1664 243.973C71.3639 243.769 71.3583 243.443 71.1537 243.245C70.9492 243.048 70.6232 243.053 70.4256 243.258L68.9331 244.804C68.8404 244.9 68.7886 245.028 68.7886 245.161V249.512C68.7886 249.796 69.0191 250.027 69.3035 250.027H86.8088C87.0932 250.027 87.3237 249.796 87.3237 249.512V245.161C87.3237 245.028 87.2719 244.9 87.1791 244.804ZM75.4816 232.03H80.6306V233.086H75.4816V232.03ZM73.1644 234.115H74.9667H81.1455H82.9478V248.997H76.5125V245.251H79.5997V247.545C79.5997 247.83 79.8302 248.06 80.1146 248.06C80.399 248.06 80.6295 247.83 80.6295 247.545V244.736C80.6295 244.451 80.399 244.221 80.1146 244.221H75.9976C75.7132 244.221 75.4827 244.451 75.4827 244.736V248.997H73.1644V234.115H73.1644Z" fill="white"/>
<path d="M182.539 237.183H104.394C104.05 237.183 103.721 237.047 103.478 236.804C103.235 236.561 103.099 236.232 103.099 235.888C103.099 235.545 103.235 235.215 103.478 234.972C103.721 234.729 104.05 234.593 104.394 234.593H182.539C182.883 234.593 183.212 234.729 183.455 234.972C183.698 235.215 183.835 235.545 183.835 235.888C183.835 236.232 183.698 236.561 183.455 236.804C183.212 237.047 182.883 237.183 182.539 237.183Z" fill="#DDE0E9"/>
<path d="M131.271 229.472H103.482C103.36 229.472 103.243 229.325 103.156 229.065C103.07 228.804 103.021 228.451 103.021 228.082C103.021 227.714 103.07 227.361 103.156 227.1C103.243 226.84 103.36 226.693 103.482 226.693H131.271C131.393 226.693 131.51 226.84 131.597 227.1C131.683 227.361 131.732 227.714 131.732 228.082C131.732 228.451 131.683 228.804 131.597 229.065C131.51 229.325 131.393 229.472 131.271 229.472Z" fill="#23346B"/>
<path d="M182.539 245.516H104.394C104.05 245.516 103.721 245.379 103.478 245.137C103.235 244.894 103.099 244.564 103.099 244.221C103.099 243.877 103.235 243.548 103.478 243.305C103.721 243.062 104.05 242.925 104.394 242.925H182.539C182.883 242.925 183.212 243.062 183.455 243.305C183.698 243.548 183.835 243.877 183.835 244.221C183.835 244.564 183.698 244.894 183.455 245.137C183.212 245.379 182.883 245.516 182.539 245.516Z" fill="#DDE0E9"/>
<path d="M182.539 253.849H104.394C104.05 253.849 103.721 253.712 103.478 253.47C103.235 253.227 103.099 252.897 103.099 252.554C103.099 252.21 103.235 251.881 103.478 251.638C103.721 251.395 104.05 251.258 104.394 251.258H182.539C182.883 251.258 183.212 251.395 183.455 251.638C183.698 251.881 183.835 252.21 183.835 252.554C183.835 252.897 183.698 253.227 183.455 253.47C183.212 253.712 182.883 253.849 182.539 253.849Z" fill="#DDE0E9"/>
<circle cx="191.789" cy="209" r="19" fill="white"/>
<g opacity="0.2">
<path d="M210.789 209C210.789 206.505 210.298 204.034 209.344 201.728C208.389 199.423 206.99 197.328 205.225 195.564C203.461 193.799 201.366 192.4 199.06 191.445C196.755 190.49 194.284 189.999 191.789 190V191.966C194.78 191.964 197.718 192.753 200.306 194.254C202.894 195.748 205.044 197.898 206.538 200.486C206.752 200.857 206.958 201.233 207.145 201.62C208.25 203.923 208.826 206.445 208.828 209H210.789Z" fill="#23346B"/>
<path d="M206.343 205.099C206.003 203.828 205.497 202.607 204.84 201.468C203.519 199.179 201.618 197.278 199.329 195.957C197.04 194.631 194.442 193.933 191.798 193.933C189.153 193.933 186.555 194.631 184.266 195.957C181.978 197.279 180.078 199.18 178.755 201.468L180.457 202.45C181.604 200.461 183.253 198.81 185.24 197.66C187.229 196.506 189.488 195.898 191.788 195.898C194.088 195.898 196.347 196.506 198.337 197.66C200.329 198.809 201.984 200.462 203.134 202.453C204.285 204.444 204.891 206.704 204.891 209.003H206.857C206.858 207.685 206.685 206.372 206.343 205.099Z" fill="#23346B"/>
<path d="M196.707 227.354C200.747 226.271 204.317 223.886 206.864 220.567C209.41 217.249 210.789 213.183 210.789 209H208.823C208.82 212.747 207.582 216.389 205.299 219.362C203.017 222.334 199.818 224.471 196.198 225.441C192.579 226.411 188.74 226.16 185.277 224.728C181.814 223.295 178.92 220.761 177.044 217.517C176.828 217.146 176.623 216.771 176.436 216.383C175.329 214.079 174.755 211.556 174.754 209C174.761 204.484 176.557 200.155 179.749 196.961C180.802 195.91 181.987 195 183.275 194.254C185.862 192.753 188.801 191.964 191.792 191.966V190C189.296 189.999 186.825 190.49 184.519 191.444C182.213 192.398 180.118 193.798 178.353 195.562C176.588 197.327 175.189 199.422 174.234 201.727C173.279 204.033 172.788 206.504 172.789 209C172.788 211.495 173.279 213.966 174.234 216.272C175.188 218.577 176.588 220.672 178.352 222.436C180.117 224.201 182.211 225.6 184.517 226.555C186.822 227.51 189.293 228.001 191.789 228C193.449 228 195.103 227.783 196.707 227.354Z" fill="#23346B"/>
<path d="M195.691 223.554C198.243 222.863 200.57 221.517 202.442 219.65C203.37 218.718 204.173 217.67 204.831 216.532C206.159 214.246 206.858 211.649 206.857 209.005H204.892C204.892 211.304 204.284 213.562 203.13 215.55C201.69 218.049 199.465 220.003 196.801 221.107C194.137 222.212 191.182 222.405 188.397 221.657C186.178 221.056 184.154 219.885 182.526 218.262C181.718 217.452 181.019 216.54 180.446 215.55C179.292 213.56 178.685 211.301 178.685 209.002C178.685 206.701 179.292 204.442 180.446 202.452L178.744 201.47C177.417 203.758 176.719 206.355 176.72 209C176.719 211.645 177.417 214.244 178.744 216.532C180.065 218.821 181.966 220.722 184.255 222.043C185.968 223.034 187.859 223.676 189.821 223.934C191.782 224.192 193.776 224.06 195.686 223.546L195.691 223.554Z" fill="#23346B"/>
</g>
<g filter="url(#filter0_d)">
<circle cx="191.789" cy="209" r="13" fill="white"/>
</g>
<circle cx="190.735" cy="207.947" r="2.87634" fill="white"/>
<path d="M191.704 211.663C192.033 211.576 192.35 211.445 192.645 211.274C193.241 210.935 193.735 210.442 194.076 209.847C194.417 209.253 194.599 208.581 194.602 207.897H193.533C193.53 208.394 193.398 208.883 193.15 209.315C192.903 209.747 192.545 210.106 192.112 210.353C191.897 210.477 191.667 210.573 191.428 210.636C191.188 210.701 190.942 210.735 190.694 210.736V211.801C191.035 211.8 191.375 211.753 191.704 211.663Z" fill="#4F5D89"/>
<path d="M190.694 210.736C190.196 210.736 189.706 210.605 189.275 210.356C188.844 210.106 188.486 209.747 188.238 209.315C187.99 208.883 187.858 208.394 187.854 207.897C187.858 207.399 187.99 206.91 188.238 206.478C188.457 206.102 188.758 205.782 189.12 205.541C189.482 205.299 189.894 205.145 190.325 205.088C190.756 205.031 191.194 205.073 191.606 205.212C192.018 205.351 192.393 205.583 192.701 205.889C192.877 206.065 193.029 206.263 193.154 206.478C193.4 206.91 193.531 207.399 193.533 207.897H194.598C194.596 207.038 194.312 206.204 193.788 205.523C193.265 204.842 192.532 204.352 191.702 204.129C191.124 203.977 190.519 203.959 189.933 204.077C189.347 204.194 188.796 204.445 188.322 204.808C187.847 205.172 187.463 205.639 187.197 206.175C186.931 206.71 186.791 207.299 186.789 207.897C186.793 208.581 186.975 209.253 187.316 209.847C187.656 210.442 188.149 210.935 188.744 211.274C189.337 211.615 190.009 211.796 190.694 211.801L190.694 210.736Z" fill="#4F5D89"/>
<rect x="192.675" y="210.322" width="1.20405" height="5.75268" rx="0.602024" transform="rotate(-48.6424 192.675 210.322)" fill="#4F5D89"/>
</g>
<mask id="mask1" mask-type="alpha" maskUnits="userSpaceOnUse" x="7" y="0" width="220" height="153">
<path d="M123.243 11.2908C134.487 11.4505 144.749 14.5783 153.762 18.4892C162.775 22.4001 170.962 27.0927 180.149 30.8563C194.358 36.7012 212.222 41.317 216.973 52.1764C220.769 60.8847 214.605 70.8134 215.393 80.0667C216.058 87.0669 220.635 93.361 222.282 100.216C223.917 106.971 222.419 114.513 216.2 120.543C207.336 129.139 190.809 132.928 175.831 133.351C160.852 133.775 146.428 131.51 131.589 131.186C113.706 130.807 95.4379 133.246 77.6794 136.707C66.8286 138.818 55.4901 141.341 44.8725 140.021C35.4275 138.86 27.5672 134.631 23.3468 129.049C19.1264 123.468 18.4095 116.675 20.6531 110.201C23.7439 101.228 32.0133 93.1084 36.8631 84.374C40.9878 76.9382 42.5369 69.1879 44.3633 61.5044C45.585 56.4152 47.0126 51.1244 51.5872 46.7332C56.7736 41.6875 65.2 38.6138 72.5504 34.9159C90.3305 25.9834 98.5587 10.938 123.243 11.2908Z" fill="#F6F6F8"/>
</mask>
<g mask="url(#mask1)">
<path d="M117.612 33.8117C129.006 35.1935 139.695 41.8075 149.197 49.7055C158.698 57.6035 167.439 66.8243 177.103 74.4747C192.05 86.3504 210.577 96.3759 216.443 116.332C221.133 132.333 215.862 149.555 217.561 166.241C218.916 178.871 224.16 190.615 226.495 203.08C228.807 215.365 228.026 228.758 222.32 238.975C214.187 253.541 197.832 258.733 182.716 258.035C167.6 257.336 152.784 251.866 137.736 249.838C119.602 247.415 101.354 250.015 83.7207 254.498C72.946 257.23 61.718 260.655 50.8451 257.251C41.1742 254.246 32.8083 245.89 27.9938 235.46C23.1794 225.029 21.7924 212.767 23.4321 201.364C25.6858 185.56 33.263 171.789 37.3199 156.584C40.7696 143.638 41.5823 129.877 42.6821 116.263C43.4226 107.247 44.3519 97.8885 48.5535 90.4519C53.3103 81.8999 61.5378 77.2033 68.6158 71.2814C85.738 56.9794 92.5989 30.774 117.612 33.8117Z" fill="#F6F6F8"/>
<path d="M79.1214 92.1276H84.5818V104.729H96.4511V86.1232H109.994V64.6162H117.344V94.8404H124.841V66.1435H182.033V118.76H71.6665L79.1214 92.1276Z" fill="#9199B5"/>
<path d="M170.789 34H155.789V66H170.789V34Z" fill="#23346B"/>
<path d="M170.789 34H155.789V66H170.789V34Z" fill="url(#paint1_linear)"/>
<path d="M62.9492 118.76V68.5L80.3835 70.9205V118.76H62.9492Z" fill="#23346B"/>
<path d="M87.7339 118.76V75.1186L105.168 76.5901V118.76H87.7339Z" fill="#23346B"/>
<path d="M62.9492 118.76V75.1187L80.3835 75.1186V118.76H62.9492Z" fill="#23346B"/>
<path opacity="0.34" d="M69.7886 79H67.7886V119H69.7886V79Z" fill="white"/>
<path d="M87.7886 119V75L107.789 76.4835V119H87.7886Z" fill="#23346B"/>
<path d="M144.437 53.4862H119.513V118.76H144.437V53.4862Z" fill="#23346B"/>
<path d="M178.322 40.4802H148.433V118.76H178.322V40.4802Z" fill="#23346B"/>
<path opacity="0.34" d="M75.7886 79H73.7886V119H75.7886V79Z" fill="white"/>
<path opacity="0.34" d="M95.7886 80H93.7886V120H95.7886V80Z" fill="white"/>
<path opacity="0.34" d="M101.789 80H99.7886V120H101.789V80Z" fill="white"/>
<path d="M178.315 40.4802L151.997 42.5653V118.969H148.433V40.4802H178.315Z" fill="#1A295B"/>
<path d="M144.444 53.4862L122.484 55.2296V118.969H119.506V53.4862H144.444Z" fill="#1A295B"/>
<path d="M105.168 76.5901L89.7284 76.2833V118.969H87.7339V75.1186L105.168 76.5901Z" fill="#1A295B"/>
<path opacity="0.34" d="M128.733 60.5924H126.85V118.767H128.733V60.5924Z" fill="white"/>
<path opacity="0.34" d="M134.514 60.5924H132.631V118.767H134.514V60.5924Z" fill="white"/>
<path opacity="0.34" d="M140.288 60.5924H138.405V118.767H140.288V60.5924Z" fill="white"/>
<path opacity="0.34" d="M159.019 46.5683H157.136V118.76H159.019V46.5683Z" fill="white"/>
<path opacity="0.34" d="M164.8 46.5683H162.917V118.76H164.8V46.5683Z" fill="white"/>
<path opacity="0.34" d="M170.575 46.5683H168.692V118.76H170.575V46.5683Z" fill="white"/>
<path opacity="0.1" d="M62.6964 112.778H183.949C186.046 112.78 188.057 113.675 189.539 115.269C191.022 116.862 191.856 119.023 191.857 121.277V153.365C191.856 155.619 191.022 157.78 189.539 159.373C188.057 160.967 186.046 161.862 183.949 161.864H62.6964C60.5994 161.862 58.5887 160.967 57.106 159.373C55.6232 157.78 54.7897 155.619 54.7886 153.365V121.277C54.7897 119.023 55.6232 116.862 57.106 115.269C58.5887 113.675 60.5994 112.78 62.6964 112.778Z" fill="#23346B"/>
<path d="M65.4747 110H186.727C188.824 110.001 190.835 110.897 192.318 112.49C193.8 114.084 194.634 116.245 194.635 118.498V150.587C194.634 152.841 193.8 155.001 192.318 156.595C190.835 158.188 188.824 159.084 186.727 159.085H65.4747C63.3778 159.084 61.367 158.188 59.8843 156.595C58.4015 155.001 57.568 152.841 57.5669 150.587V118.498C57.568 116.245 58.4015 114.084 59.8843 112.49C61.367 110.897 63.3778 110.001 65.4747 110Z" fill="white"/>
<path d="M69.9923 118.161H90.716C91.8038 118.161 92.847 118.593 93.6162 119.363C94.3854 120.132 94.8176 121.175 94.8176 122.263V142.986C94.8176 143.525 94.7115 144.058 94.5053 144.556C94.2992 145.054 93.9971 145.506 93.6162 145.887C93.2354 146.268 92.7832 146.57 92.2856 146.776C91.788 146.982 91.2546 147.088 90.716 147.088H69.9923C69.4537 147.088 68.9203 146.982 68.4227 146.776C67.9251 146.57 67.4729 146.268 67.0921 145.887C66.7112 145.506 66.4091 145.054 66.203 144.556C65.9968 144.058 65.8907 143.525 65.8907 142.986V122.263C65.8867 121.723 65.9901 121.188 66.1948 120.688C66.3995 120.189 66.7014 119.735 67.0831 119.354C67.4648 118.972 67.9185 118.67 68.418 118.465C68.9174 118.261 69.4526 118.157 69.9923 118.161Z" fill="#DDE0E9"/>
<path d="M79.1311 130.891H76.5051C76.2207 130.891 75.9902 130.661 75.9902 130.377V127.751C75.9902 127.466 76.2207 127.236 76.5051 127.236H79.1311C79.4155 127.236 79.6461 127.466 79.6461 127.751V130.377C79.6461 130.661 79.4155 130.891 79.1311 130.891ZM77.02 129.862H78.6162V128.265H77.02V129.862Z" fill="white"/>
<path d="M83.6062 130.891H80.9802C80.6958 130.891 80.4653 130.661 80.4653 130.377V127.751C80.4653 127.466 80.6958 127.236 80.9802 127.236H83.6062C83.8906 127.236 84.1211 127.466 84.1211 127.751V130.377C84.1211 130.661 83.8906 130.891 83.6062 130.891ZM81.4951 129.862H83.0913V128.265H81.4951V129.862Z" fill="white"/>
<path d="M79.1311 135.384H76.5051C76.2207 135.384 75.9902 135.153 75.9902 134.869V132.243C75.9902 131.959 76.2207 131.728 76.5051 131.728H79.1311C79.4155 131.728 79.6461 131.959 79.6461 132.243V134.869C79.6461 135.153 79.4155 135.384 79.1311 135.384ZM77.02 134.354H78.6162V132.758H77.02V134.354Z" fill="white"/>
<path d="M83.6062 135.384H80.9802C80.6958 135.384 80.4653 135.153 80.4653 134.869V132.243C80.4653 131.959 80.6958 131.728 80.9802 131.728H83.6062C83.8906 131.728 84.1211 131.959 84.1211 132.243V134.869C84.1211 135.153 83.8906 135.384 83.6062 135.384ZM81.4951 134.354H83.0913V132.758H81.4951V134.354Z" fill="white"/>
<path d="M83.1451 123.515H76.9663V125.601H83.1451V123.515Z" fill="white"/>
<path d="M89.1791 136.804L87.6865 135.258C87.489 135.053 87.163 135.048 86.9585 135.245C86.7539 135.443 86.7482 135.769 86.9458 135.973L88.2938 137.369V140.997H85.9776V125.601C85.9776 125.316 85.7471 125.086 85.4627 125.086H83.6604V123.515C83.6604 123.231 83.4298 123 83.1454 123H76.9666C76.6822 123 76.4517 123.231 76.4517 123.515V125.086H74.6495C74.3651 125.086 74.1346 125.316 74.1346 125.601V140.997H71.8184V137.369L73.1664 135.973C73.3639 135.769 73.3583 135.443 73.1537 135.245C72.9492 135.048 72.6232 135.053 72.4256 135.258L70.9331 136.804C70.8404 136.9 70.7886 137.028 70.7886 137.161V141.512C70.7886 141.796 71.0191 142.027 71.3035 142.027H88.8088C89.0932 142.027 89.3237 141.796 89.3237 141.512V137.161C89.3237 137.028 89.2719 136.9 89.1791 136.804ZM77.4816 124.03H82.6306V125.086H77.4816V124.03ZM75.1644 126.115H76.9667H83.1455H84.9478V140.997H78.5125V137.251H81.5997V139.545C81.5997 139.83 81.8302 140.06 82.1146 140.06C82.399 140.06 82.6295 139.83 82.6295 139.545V136.736C82.6295 136.451 82.399 136.221 82.1146 136.221H77.9976C77.7132 136.221 77.4827 136.451 77.4827 136.736V140.997H75.1644V126.115H75.1644Z" fill="white"/>
<path d="M184.318 128.825H106.173C105.829 128.825 105.5 128.689 105.257 128.446C105.014 128.203 104.877 127.874 104.877 127.53C104.877 127.187 105.014 126.857 105.257 126.614C105.5 126.371 105.829 126.235 106.173 126.235H184.318C184.662 126.235 184.991 126.371 185.234 126.614C185.477 126.857 185.614 127.187 185.614 127.53C185.614 127.874 185.477 128.203 185.234 128.446C184.991 128.689 184.662 128.825 184.318 128.825Z" fill="#DDE0E9"/>
<path d="M133.049 121.114H105.26C105.138 121.114 105.021 120.967 104.935 120.707C104.848 120.446 104.8 120.093 104.8 119.724C104.8 119.356 104.848 119.003 104.935 118.742C105.021 118.482 105.138 118.335 105.26 118.335H133.049C133.172 118.335 133.289 118.482 133.375 118.742C133.462 119.003 133.51 119.356 133.51 119.724C133.51 120.093 133.462 120.446 133.375 120.707C133.289 120.967 133.172 121.114 133.049 121.114Z" fill="#23346B"/>
<path d="M184.318 137.158H106.173C105.829 137.158 105.5 137.021 105.257 136.779C105.014 136.536 104.877 136.206 104.877 135.863C104.877 135.519 105.014 135.19 105.257 134.947C105.5 134.704 105.829 134.567 106.173 134.567H184.318C184.662 134.567 184.991 134.704 185.234 134.947C185.477 135.19 185.614 135.519 185.614 135.863C185.614 136.206 185.477 136.536 185.234 136.779C184.991 137.021 184.662 137.158 184.318 137.158Z" fill="#DDE0E9"/>
<path d="M184.318 145.491H106.173C105.829 145.491 105.5 145.354 105.257 145.112C105.014 144.869 104.877 144.539 104.877 144.196C104.877 143.852 105.014 143.523 105.257 143.28C105.5 143.037 105.829 142.9 106.173 142.9H184.318C184.662 142.9 184.991 143.037 185.234 143.28C185.477 143.523 185.614 143.852 185.614 144.196C185.614 144.539 185.477 144.869 185.234 145.112C184.991 145.354 184.662 145.491 184.318 145.491Z" fill="#DDE0E9"/>
</g>
<defs>
<filter id="filter0_d" x="157.789" y="190" width="58" height="58" filterUnits="userSpaceOnUse" color-interpolation-filters="sRGB">
<feFlood flood-opacity="0" result="BackgroundImageFix"/>
<feColorMatrix in="SourceAlpha" type="matrix" values="0 0 0 0 0 0 0 0 0 0 0 0 0 0 0 0 0 0 127 0"/>
<feOffset dx="-5" dy="10"/>
<feGaussianBlur stdDeviation="8"/>
<feColorMatrix type="matrix" values="0 0 0 0 0.0900173 0 0 0 0 0.152386 0 0 0 0 0.354167 0 0 0 0.15 0"/>
<feBlend mode="normal" in2="BackgroundImageFix" result="effect1_dropShadow"/>
<feBlend mode="normal" in="SourceGraphic" in2="effect1_dropShadow" result="shape"/>
</filter>
<linearGradient id="paint0_linear" x1="163.019" y1="61.8325" x2="163.86" y2="5.85891" gradientUnits="userSpaceOnUse">
<stop offset="0.01"/>
<stop offset="0.13" stop-opacity="0.69"/>
<stop offset="0.25" stop-opacity="0.32"/>
<stop offset="1" stop-opacity="0"/>
</linearGradient>
<linearGradient id="paint1_linear" x1="163.019" y1="61.8325" x2="163.86" y2="5.85891" gradientUnits="userSpaceOnUse">
<stop offset="0.01"/>
<stop offset="0.13" stop-opacity="0.69"/>
<stop offset="0.25" stop-opacity="0.32"/>
<stop offset="1" stop-opacity="0"/>
</linearGradient>
</defs>
</svg>
