<svg width="238" height="264" viewBox="0 0 238 264" fill="none" xmlns="http://www.w3.org/2000/svg">
<mask id="mask0" mask-type="alpha" maskUnits="userSpaceOnUse" x="0" y="14" width="226" height="251">
<path d="M104.118 19.8295C92.3705 22.097 81.7548 29.6937 72.4731 38.523C63.1914 47.3522 54.8017 57.4855 45.3327 66.0721C30.6888 79.3971 12.1807 91.0848 7.60055 112.046C3.94257 128.853 10.7393 146.175 10.2454 163.465C9.7991 176.556 5.23926 189.025 3.7617 202.019C2.29332 214.827 4.12736 228.545 10.8427 238.63C20.4145 253.009 37.8242 257.134 53.4957 255.293C69.1672 253.453 84.1632 246.725 99.6627 243.523C118.342 239.684 137.524 241.003 156.209 244.304C167.626 246.314 179.568 249.003 190.619 244.694C200.45 240.886 208.516 231.67 212.728 220.584C216.941 209.498 217.448 196.783 214.873 185.175C211.323 169.086 202.39 155.486 197.009 140.146C192.433 127.087 190.538 112.993 188.355 99.072C186.897 89.8532 185.217 80.2967 180.279 72.9597C174.678 64.5166 165.761 60.2968 157.946 54.7313C139.043 41.2922 129.907 14.8476 104.118 19.8295Z" fill="#F6F6F8"/>
</mask>
<g mask="url(#mask0)">
<path d="M106.448 19.8295C95.7693 22.097 86.1196 29.6938 77.6824 38.523C69.2452 47.3523 61.6189 57.4855 53.0114 66.0722C39.7 79.3971 22.8759 91.0849 18.7125 112.046C15.3873 128.853 21.5657 146.175 21.1167 163.465C20.711 176.556 16.566 189.025 15.2229 202.019C13.8881 214.827 15.5553 228.545 21.6596 238.63C30.3605 253.009 46.1861 257.134 60.4317 255.293C74.6773 253.453 88.3088 246.725 102.398 243.523C119.378 239.684 136.814 241.003 153.799 244.304C164.178 246.314 175.033 249.003 185.078 244.694C194.015 240.886 201.347 231.67 205.176 220.584C209.005 209.498 209.467 196.783 207.125 185.175C203.898 169.086 195.778 155.486 190.887 140.147C186.728 127.087 185.005 112.993 183.021 99.072C181.695 89.8532 180.168 80.2967 175.679 72.9597C170.588 64.5166 162.482 60.2968 155.378 54.7313C138.195 41.2922 129.89 14.8477 106.448 19.8295Z" fill="#F6F6F8"/>
<path d="M54.357 31.4819H132.474V272.411H54.357C50.5814 272.411 46.9604 270.911 44.2907 268.241C41.6209 265.571 40.1211 261.95 40.1211 258.175V45.7178C40.1211 41.9422 41.6209 38.3212 44.2907 35.6515C46.9604 32.9818 50.5814 31.4819 54.357 31.4819Z" fill="#23346B"/>
<path d="M53.5813 31.9462H129.988V272.093H53.5813C49.8884 272.093 46.3468 270.598 43.7355 267.937C41.1242 265.276 39.6572 261.666 39.6572 257.903V46.1359C39.6572 42.3725 41.1242 38.7633 43.7355 36.1023C46.3468 33.4412 49.8884 31.9462 53.5813 31.9462Z" fill="#1A295B"/>
<path d="M59.5007 31.9462H160.817C165.203 31.9462 169.41 33.7108 172.512 36.8519C175.613 39.993 177.356 44.2532 177.356 48.6954V255.343C177.356 259.786 175.613 264.046 172.512 267.187C169.41 270.328 165.203 272.093 160.817 272.093H59.5007C55.1143 272.093 50.9076 270.328 47.806 267.187C44.7044 264.046 42.9619 259.786 42.9619 255.343V48.6954C42.9619 44.2532 44.7044 39.993 47.806 36.8519C50.9076 33.7108 55.1143 31.9462 59.5007 31.9462Z" fill="#23346B"/>
<path d="M170.961 45.9433V246.327C170.949 248.581 170.049 250.74 168.454 252.334C166.86 253.929 164.701 254.83 162.447 254.841H54.9119C52.66 254.834 50.5031 253.933 48.915 252.337C47.327 250.74 46.4376 248.579 46.4424 246.327V45.9433C46.4376 43.6915 47.327 41.5298 48.915 39.9333C50.5031 38.3368 52.66 37.436 54.9119 37.4288H76.1756V40.0868C76.1756 42.3569 77.0774 44.5341 78.6826 46.1393C80.2878 47.7445 82.465 48.6464 84.7351 48.6464H132.443C134.713 48.6464 136.891 47.7445 138.496 46.1393C140.101 44.5341 141.003 42.3569 141.003 40.0868V37.4288H162.447C163.565 37.4277 164.673 37.6471 165.707 38.0745C166.74 38.502 167.679 39.1292 168.47 39.92C169.261 40.7109 169.888 41.65 170.316 42.6836C170.743 43.7171 170.963 44.8249 170.961 45.9433Z" fill="white"/>
<path d="M62.7764 75.3426C62.7764 75.7742 62.631 76.1254 62.3404 76.3963C62.0475 76.6649 61.6698 76.7992 61.2074 76.7992H59.394V72.0329H62.3139V72.6704H60.1339V73.8925H61.1909C61.6577 73.8925 62.0387 74.0269 62.3338 74.2955C62.6288 74.5642 62.7764 74.9132 62.7764 75.3426ZM61.0191 76.1716C61.3384 76.1716 61.5851 76.1001 61.759 75.9569C61.933 75.8138 62.02 75.609 62.02 75.3426C62.02 75.0761 61.9319 74.8702 61.7557 74.7249C61.5818 74.5818 61.3351 74.5102 61.0158 74.5102H60.1339V76.1716H61.0191ZM64.7813 76.2641C65.0478 76.2641 65.2702 76.1882 65.4485 76.0362C65.6269 75.8821 65.7161 75.6872 65.7161 75.4516V75.1708L64.8441 75.2303C64.3486 75.2611 64.1009 75.4373 64.1009 75.7588C64.1009 75.9129 64.1625 76.0351 64.2859 76.1254C64.4092 76.2179 64.5743 76.2641 64.7813 76.2641ZM64.5897 76.8356C64.2308 76.8356 63.939 76.7387 63.7144 76.5449C63.4898 76.3489 63.3775 76.0913 63.3775 75.772C63.3775 75.4593 63.4953 75.2138 63.7309 75.0354C63.9644 74.857 64.3035 74.7535 64.7483 74.7249L65.7161 74.6688V74.3913C65.7161 74.1865 65.65 74.0291 65.5179 73.919C65.388 73.8111 65.203 73.7571 64.963 73.7571C64.7692 73.7571 64.6051 73.8034 64.4708 73.8958C64.3387 73.9883 64.2572 74.1127 64.2264 74.2691H63.5559C63.5669 73.952 63.7067 73.6889 63.9754 73.4797C64.244 73.2705 64.5798 73.1659 64.9828 73.1659C65.421 73.1659 65.77 73.2727 66.0299 73.4863C66.2919 73.6999 66.4229 73.9839 66.4229 74.3384V76.7992H65.7392V76.2014H65.7227C65.6236 76.3951 65.4716 76.5493 65.2669 76.6638C65.0621 76.7783 64.8364 76.8356 64.5897 76.8356ZM68.451 76.8653C68.0326 76.8653 67.6913 76.7706 67.427 76.5812C67.1584 76.3896 67.0076 76.1309 66.9745 75.805H67.6814C67.7562 76.1287 68.0128 76.2905 68.451 76.2905C68.6866 76.2905 68.8705 76.2399 69.0026 76.1386C69.1325 76.0395 69.1975 75.9074 69.1975 75.7422C69.1975 75.3877 68.9487 75.2105 68.451 75.2105H67.9258V74.6787H68.4411C68.8705 74.6787 69.0851 74.5168 69.0851 74.1931C69.0851 74.0478 69.0334 73.9333 68.9299 73.8496C68.8199 73.7593 68.6623 73.7142 68.4576 73.7142C68.2572 73.7142 68.0932 73.7549 67.9654 73.8364C67.8377 73.9179 67.7618 74.0302 67.7375 74.1733H67.0505C67.0879 73.8562 67.2311 73.6052 67.4799 73.4202C67.7331 73.2352 68.0579 73.1428 68.4543 73.1428C68.8771 73.1428 69.2063 73.233 69.4419 73.4136C69.6687 73.5898 69.7821 73.8287 69.7821 74.1304C69.7821 74.3131 69.7292 74.475 69.6236 74.6159C69.5179 74.759 69.377 74.8515 69.2008 74.8934V74.9198C69.6698 75.0299 69.9043 75.3018 69.9043 75.7356C69.9043 76.077 69.7722 76.35 69.5079 76.5548C69.2437 76.7618 68.8914 76.8653 68.451 76.8653ZM71.8102 76.2641C72.0766 76.2641 72.299 76.1882 72.4774 76.0362C72.6558 75.8821 72.745 75.6872 72.745 75.4516V75.1708L71.8729 75.2303C71.3775 75.2611 71.1298 75.4373 71.1298 75.7588C71.1298 75.9129 71.1914 76.0351 71.3148 76.1254C71.4381 76.2179 71.6032 76.2641 71.8102 76.2641ZM71.6186 76.8356C71.2597 76.8356 70.9679 76.7387 70.7433 76.5449C70.5187 76.3489 70.4064 76.0913 70.4064 75.772C70.4064 75.4593 70.5242 75.2138 70.7599 75.0354C70.9932 74.857 71.3323 74.7535 71.7772 74.7249L72.745 74.6688V74.3913C72.745 74.1865 72.6789 74.0291 72.5468 73.919C72.4168 73.8111 72.2318 73.7571 71.9919 73.7571C71.798 73.7571 71.634 73.8034 71.4997 73.8958C71.3676 73.9883 71.2861 74.1127 71.2552 74.2691H70.5848C70.5958 73.952 70.7356 73.6889 71.0043 73.4797C71.2729 73.2705 71.6087 73.1659 72.0117 73.1659C72.4499 73.1659 72.7989 73.2727 73.0588 73.4863C73.3208 73.6999 73.4518 73.9839 73.4518 74.3384V76.7992H72.7681V76.2014H72.7516C72.6525 76.3951 72.5005 76.5493 72.2957 76.6638C72.0909 76.7783 71.8652 76.8356 71.6186 76.8356ZM78.1223 73.7802H76.474V76.7992H75.764V73.2121H78.8325V76.7992H78.1223V73.7802ZM81.4848 73.1758C81.9429 73.1758 82.3095 73.342 82.5847 73.6745C82.8622 74.0071 83.0009 74.4508 83.0009 75.0057C83.0009 75.5584 82.8632 76.0021 82.588 76.3368C82.3149 76.6693 81.9527 76.8356 81.5013 76.8356C80.9685 76.8356 80.5896 76.6275 80.3651 76.2113H80.3518V77.9718H79.6351V73.2121H80.3254V73.8067H80.342C80.4432 73.6129 80.5963 73.4598 80.8011 73.3475C81.0081 73.233 81.236 73.1758 81.4848 73.1758ZM81.3031 76.2278C81.5938 76.2278 81.8272 76.1166 82.0034 75.8942C82.1795 75.6718 82.2677 75.3756 82.2677 75.0057C82.2677 74.6357 82.1795 74.3396 82.0034 74.1171C81.8272 73.8947 81.5938 73.7835 81.3031 73.7835C81.0191 73.7835 80.7889 73.8958 80.6128 74.1205C80.4367 74.3451 80.3475 74.6401 80.3452 75.0057C80.3475 75.3712 80.4367 75.6663 80.6128 75.8909C80.7868 76.1155 81.0169 76.2278 81.3031 76.2278ZM85.1809 76.8422C84.6612 76.8422 84.2483 76.677 83.9423 76.3467C83.6361 76.0164 83.4832 75.5694 83.4832 75.0057C83.4832 74.4442 83.6373 73.9971 83.9456 73.6646C84.2516 73.3321 84.6634 73.1659 85.1809 73.1659C85.6984 73.1659 86.1102 73.331 86.4162 73.6613C86.7224 73.9938 86.8753 74.4419 86.8753 75.0057C86.8753 75.5694 86.7224 76.0164 86.4162 76.3467C86.1124 76.677 85.7006 76.8422 85.1809 76.8422ZM85.1809 76.2476C85.4848 76.2476 85.7227 76.1386 85.8944 75.9206C86.0639 75.7026 86.1487 75.3976 86.1487 75.0057C86.1487 74.6137 86.0639 74.3087 85.8944 74.0907C85.7227 73.8705 85.4848 73.7604 85.1809 73.7604C84.8771 73.7604 84.6392 73.8705 84.4674 74.0907C84.2957 74.3109 84.2098 74.6159 84.2098 75.0057C84.2098 75.3954 84.2957 75.7004 84.4674 75.9206C84.6392 76.1386 84.8771 76.2476 85.1809 76.2476ZM89.0158 73.7505C88.7581 73.7505 88.5445 73.8364 88.375 74.0082C88.2031 74.1799 88.1074 74.4034 88.0876 74.6787H89.9075C89.8987 74.399 89.8128 74.1744 89.6499 74.0048C89.487 73.8353 89.2755 73.7505 89.0158 73.7505ZM90.588 75.7489C90.5373 76.0704 90.3689 76.3335 90.0827 76.5383C89.7963 76.7409 89.4517 76.8422 89.0487 76.8422C88.5291 76.8422 88.1173 76.6781 87.8134 76.35C87.5118 76.0241 87.3609 75.5804 87.3609 75.0189C87.3609 74.4574 87.5118 74.0082 87.8134 73.6712C88.1151 73.3343 88.517 73.1659 89.0191 73.1659C89.5123 73.1659 89.9032 73.3255 90.1917 73.6448C90.4801 73.9619 90.6243 74.3924 90.6243 74.9363V75.1873H88.0843V75.2303C88.0843 75.5408 88.1735 75.7896 88.3519 75.9768C88.5302 76.1661 88.7669 76.2608 89.062 76.2608C89.2712 76.2608 89.4517 76.2146 89.6037 76.1221C89.7556 76.0296 89.8558 75.9052 89.9043 75.7489H90.588ZM94.3402 76.7992H93.4452L91.9984 75.1312H91.9719V76.7992H91.2618V73.2121H91.9719V74.7546H91.9984L93.4286 73.2121H94.2808L92.6821 74.9L94.3402 76.7992ZM97.521 73.7802H96.3882V76.7992H95.6813V73.7802H94.5484V73.2121H97.521V73.7802ZM99.5425 76.8422C99.0229 76.8422 98.61 76.677 98.3039 76.3467C97.9979 76.0164 97.8448 75.5694 97.8448 75.0057C97.8448 74.4442 97.9989 73.9971 98.3072 73.6646C98.6132 73.3321 99.0251 73.1659 99.5425 73.1659C100.06 73.1659 100.472 73.331 100.778 73.6613C101.084 73.9938 101.237 74.4419 101.237 75.0057C101.237 75.5694 101.084 76.0164 100.778 76.3467C100.474 76.677 100.062 76.8422 99.5425 76.8422ZM99.5425 76.2476C99.8464 76.2476 100.084 76.1386 100.256 75.9206C100.426 75.7026 100.51 75.3976 100.51 75.0057C100.51 74.6137 100.426 74.3087 100.256 74.0907C100.084 73.8705 99.8464 73.7604 99.5425 73.7604C99.2387 73.7604 99.0009 73.8705 98.8291 74.0907C98.6573 74.3109 98.5715 74.6159 98.5715 75.0057C98.5715 75.3954 98.6573 75.7004 98.8291 75.9206C99.0009 76.1386 99.2387 76.2476 99.5425 76.2476ZM102.588 73.7373V74.6886H103.305C103.725 74.6886 103.936 74.5289 103.936 74.2096C103.936 73.8947 103.751 73.7373 103.381 73.7373H102.588ZM102.588 75.1972V76.2707H103.443C103.873 76.2707 104.088 76.0935 104.088 75.7389C104.088 75.3778 103.843 75.1972 103.354 75.1972H102.588ZM101.884 73.2121H103.519C103.865 73.2121 104.138 73.2936 104.339 73.4565C104.537 73.6195 104.636 73.8419 104.636 74.1238C104.636 74.3109 104.578 74.4783 104.461 74.6258C104.344 74.7756 104.2 74.8669 104.028 74.9V74.9264C104.257 74.9572 104.442 75.0486 104.583 75.2005C104.724 75.3547 104.794 75.543 104.794 75.7654C104.794 76.0825 104.682 76.3335 104.458 76.5185C104.231 76.7056 103.923 76.7992 103.536 76.7992H101.884V73.2121Z" fill="#23346B"/>
<path d="M96.3573 38.1495H121C121.148 38.1483 121.295 38.1766 121.432 38.2328C121.569 38.2889 121.694 38.3719 121.799 38.4767C121.904 38.5815 121.987 38.7061 122.043 38.8433C122.099 38.9805 122.127 39.1275 122.126 39.2757V39.501C122.127 39.6492 122.099 39.7962 122.043 39.9334C121.987 40.0706 121.904 40.1952 121.799 40.3C121.694 40.4049 121.569 40.4878 121.432 40.544C121.295 40.6001 121.148 40.6284 121 40.6272H96.3573C96.209 40.6284 96.062 40.6001 95.9248 40.544C95.7876 40.4878 95.663 40.4049 95.5582 40.3C95.4534 40.1952 95.3705 40.0706 95.3143 39.9334C95.2581 39.7962 95.2298 39.6492 95.231 39.501V39.2757C95.2356 38.9785 95.3558 38.6947 95.566 38.4845C95.7762 38.2743 96.06 38.1541 96.3573 38.1495Z" fill="url(#paint0_linear)"/>
<path d="M170.884 86.2617V257.861H46.0464V86.2619L76.3723 86.2618C76.3723 86.2618 116.025 86.2617 141.433 86.2617C139.822 87.4925 143.711 86.2617 141.433 86.2617C141.433 88.0023 143.044 85.031 141.433 86.2617C149.52 86.2617 170.884 86.2617 170.884 86.2617Z" fill="#F2F3F6"/>
<path d="M80.6935 92.0522H59.0693V109.171H80.6935V92.0522Z" fill="white"/>
<path d="M80.6935 172.242H59.0693V191.163H80.6935V172.242Z" fill="white"/>
<path d="M80.6935 195.668H59.0693V215.039H80.6935V195.668Z" fill="white"/>
<path d="M80.6935 219.995H59.0693V239.367H80.6935V219.995Z" fill="white"/>
<path d="M64.7722 59.6533C63.6692 59.6533 62.7793 58.7634 62.7793 57.6604C62.7793 56.5574 63.6692 55.6675 64.7722 55.6675C65.8752 55.6675 66.7651 56.5574 66.7651 57.6604H65.7499C65.7499 57.1215 65.3112 56.6828 64.7722 56.6828C64.2332 56.6828 63.7946 57.1215 63.7946 57.6604C63.7946 58.1994 64.2332 58.6381 64.7722 58.6381V59.6533Z" fill="#D01417"/>
<path d="M62.378 57.6609H61.4004C61.4004 55.7934 62.917 54.2893 64.772 54.2893V55.2669C63.456 55.2669 62.378 56.3323 62.378 57.6609Z" fill="#23346B"/>
<path d="M64.7725 62.4358V61.032C66.64 61.032 68.1441 59.5153 68.1441 57.6603H69.5479C69.5479 60.2925 67.4046 62.4358 64.7725 62.4358Z" fill="#D01417"/>
<path d="M63.2058 61.3208C62.3159 60.9323 61.5889 60.2429 61.1753 59.3655L62.6042 58.6887C62.8549 59.2151 63.2935 59.6287 63.8325 59.8669L63.2058 61.3208Z" fill="#23346B"/>
<path d="M63.2058 61.3208C62.3159 60.9323 61.5889 60.2429 61.1753 59.3655L62.6042 58.6887C62.8549 59.2151 63.2935 59.6287 63.8325 59.8669L63.2058 61.3208Z" fill="#23346B"/>
<path d="M69.9239 57.6603H68.1441C68.1441 55.7927 66.6275 54.2887 64.7725 54.2887V52.5088C67.6052 52.5088 69.9239 54.8151 69.9239 57.6603Z" fill="#23346B"/>
<path d="M64.7724 62.4483C62.1277 62.4483 59.9844 60.2925 59.9844 57.6603H60.4732C60.4732 60.0292 62.4034 61.9595 64.7724 61.9595V62.4483Z" fill="#D01417"/>
<path d="M60.0098 57.6603H59.333C59.333 54.6647 61.7771 52.2205 64.7728 52.2205V52.8974C62.1406 52.8974 60.0098 55.0281 60.0098 57.6603Z" fill="#D01417"/>
<path d="M66.9407 56.6324C66.6901 56.1059 66.2514 55.6923 65.7124 55.4542L66.3391 54.0002C67.229 54.3888 67.956 55.0781 68.3696 55.9555L66.9407 56.6324Z" fill="#D01417"/>
<path d="M65.8754 60.1172L65.2236 58.6632C65.4743 58.5504 65.6749 58.3499 65.7877 58.1117L67.2291 58.7635C66.9533 59.3777 66.477 59.854 65.8754 60.1172Z" fill="#23346B"/>
<path d="M72.6142 59.4437H71.73V55.7698H74.2332C75.1548 55.7698 75.5285 56.131 75.5285 57.0526C75.5285 57.9866 75.1548 58.3602 74.2457 58.3602H72.6142V59.4437ZM72.6142 57.6255H74.0838C74.5321 57.6255 74.6567 57.4511 74.6567 57.0526C74.6567 56.6914 74.5446 56.4921 74.0838 56.4921H72.6142V57.6255Z" fill="#23346B"/>
<path d="M78.9409 59.443H77.3218C76.338 59.443 75.9644 59.0818 75.9644 58.1851V57.0269C75.9644 56.0181 76.3131 55.7192 77.3218 55.7192H78.9409C79.85 55.7192 80.2734 55.9932 80.2734 57.0269V58.1851C80.2734 59.1067 79.9621 59.443 78.9409 59.443ZM77.5336 58.7207H78.7042C79.2647 58.7207 79.3892 58.5961 79.3892 58.098V57.1141C79.3892 56.5786 79.2149 56.454 78.6793 56.454H77.546C76.998 56.454 76.8361 56.591 76.8361 57.1141V58.098C76.8486 58.5837 76.998 58.7207 77.5336 58.7207Z" fill="#23346B"/>
<path d="M85.0933 58.1727C85.0933 59.1565 84.8442 59.443 83.7607 59.443H82.1292C81.108 59.443 80.7842 59.1316 80.7842 58.1478V57.1016C80.7842 56.0306 81.1329 55.7192 82.2039 55.7192H83.6611C84.5328 55.7192 85.0684 55.9683 85.0684 57.002H84.1841C84.1841 56.6159 83.9849 56.454 83.4743 56.454H82.3409C81.7556 56.454 81.6311 56.5537 81.6311 57.1265V58.0357C81.6311 58.5961 81.8428 58.7082 82.3409 58.7082H83.4743C83.9973 58.7082 84.1841 58.6086 84.1841 58.1727H85.0933Z" fill="#23346B"/>
<path d="M86.5622 58.7207H86.6868L88.9285 55.7815H90.4105V59.4555H89.5263V56.5039H89.4017L87.1974 59.443H85.6904V55.7691H86.5747V58.7207H86.5622Z" fill="#D01417"/>
<path d="M91.8925 57.1764H94.1592V55.7691H95.0434V59.443H94.1592V57.9112H91.8925V59.443H91.0083V55.7691H91.8925V57.1764Z" fill="#D01417"/>
<path d="M98.9668 55.7691V56.0555H100.1C101.009 56.0555 101.445 56.3171 101.445 57.3507V57.8489C101.445 58.7705 101.134 59.1192 100.1 59.1192H98.9668V59.443H98.0826V59.1192H96.9493C95.9281 59.1192 95.6167 58.7829 95.6167 57.8614V57.3632C95.6167 56.3295 96.0401 56.0555 96.9493 56.0555H98.0826V55.7691H98.9668ZM97.1984 56.7903C96.6753 56.7903 96.4885 56.9148 96.4885 57.4504V57.7742C96.4885 58.2723 96.613 58.3969 97.1735 58.3969H98.0701V56.7903H97.1984ZM98.9668 58.3844H99.876C100.436 58.3844 100.561 58.2599 100.561 57.7617V57.4379C100.561 56.9024 100.387 56.7778 99.8635 56.7778H98.9793V58.3844H98.9668Z" fill="#D01417"/>
<path d="M102.89 59.443H102.006V55.7691H104.509C105.431 55.7691 105.804 56.1302 105.804 57.0518C105.804 57.9859 105.431 58.3595 104.522 58.3595H102.89V59.443ZM102.89 57.6247H104.36C104.808 57.6247 104.933 57.4504 104.933 57.0518C104.933 56.6907 104.82 56.4914 104.36 56.4914H102.89V57.6247Z" fill="#D01417"/>
<path d="M105.717 59.443L107.66 55.7691H108.968L110.898 59.443H109.864L109.391 58.5214H107.224L106.751 59.443H105.717ZM109.043 57.824L108.345 56.454H108.308L107.585 57.824H109.043Z" fill="#D01417"/>
<path d="M117.566 55.557V57.014H117.216V55.8484H116.313V57.014H115.963V55.557H117.566Z" fill="#23346B"/>
<path d="M119.445 55.5553V57.0123H119.096V55.8467H118.28V56.4878C118.28 56.8666 118.119 57.0123 117.872 57.0123H117.726V56.7209C117.901 56.7209 117.945 56.648 117.945 56.4441V55.5553H119.445Z" fill="#23346B"/>
<path d="M119.562 57.0123L120.334 55.5553H120.844L121.616 57.0123H121.208L121.018 56.648H120.159L119.969 57.0123H119.562ZM120.887 56.3712L120.611 55.8322H120.596L120.305 56.3712H120.887Z" fill="#23346B"/>
<path d="M123.116 55.5553V55.8467H122.49V57.0123H122.14V55.8467H121.528V55.5553H123.116Z" fill="#23346B"/>
<path d="M124.589 55.5553V55.6719H125.04C125.404 55.6719 125.579 55.7739 125.579 56.1818V56.3858C125.579 56.75 125.448 56.8812 125.04 56.8812H124.589V57.0123H124.239V56.8812H123.787C123.379 56.8812 123.263 56.75 123.263 56.3858V56.1818C123.263 55.7739 123.423 55.6719 123.787 55.6719H124.239V55.5553H124.589ZM123.889 55.9633C123.685 55.9633 123.612 56.007 123.612 56.2255V56.3567C123.612 56.5606 123.656 56.6043 123.889 56.6043H124.253V55.9633H123.889ZM124.589 56.5898H124.953C125.171 56.5898 125.23 56.5461 125.23 56.3421V56.211C125.23 55.9924 125.157 55.9487 124.953 55.9487H124.603V56.5898H124.589Z" fill="#23346B"/>
<path d="M126.978 57.0124H126.337C125.944 57.0124 125.798 56.8667 125.798 56.517V56.0653C125.798 55.672 125.944 55.5408 126.337 55.5408H126.978C127.342 55.5408 127.502 55.6574 127.502 56.0653V56.517C127.517 56.8812 127.386 57.0124 126.978 57.0124ZM126.424 56.721H126.891C127.109 56.721 127.167 56.6773 127.167 56.4733V56.0799C127.167 55.8614 127.095 55.8177 126.891 55.8177H126.439C126.22 55.8177 126.162 55.8759 126.162 56.0799V56.4733C126.148 56.6773 126.206 56.721 126.424 56.721Z" fill="#23346B"/>
<path d="M128.07 57.0123H127.735V55.5553H128.726C129.09 55.5553 129.236 55.701 129.236 56.0653C129.236 56.4295 129.09 56.5752 128.726 56.5752H128.07V57.0123ZM128.07 56.2984H128.653C128.828 56.2984 128.886 56.2255 128.886 56.0653C128.886 55.9196 128.843 55.8467 128.653 55.8467H128.07V56.2984Z" fill="#23346B"/>
<path d="M130.096 55.5553L130.576 56.7209H130.591L131.072 55.5553H131.727V57.0123H131.378V55.8467H131.334L130.839 57.0123H130.343L129.848 55.8467H129.804V57.0123H129.455V55.5553H130.096Z" fill="#23346B"/>
<path d="M131.874 57.0123L132.646 55.5553H133.156L133.928 57.0123H133.52L133.33 56.648H132.471L132.281 57.0123H131.874ZM133.185 56.3712L132.908 55.8322H132.893L132.602 56.3712H133.185Z" fill="#23346B"/>
<path d="M136.361 55.5553V57.0123H136.011V55.8467H135.108V57.0123H134.758V55.5553H136.361Z" fill="#23346B"/>
<path d="M137.759 57.0124H137.118C136.724 57.0124 136.579 56.8667 136.579 56.517V56.0653C136.579 55.672 136.724 55.5408 137.118 55.5408H137.759C138.123 55.5408 138.283 55.6574 138.283 56.0653V56.517C138.283 56.8812 138.167 57.0124 137.759 57.0124ZM137.205 56.721H137.671C137.89 56.721 137.948 56.6773 137.948 56.4733V56.0799C137.948 55.8614 137.875 55.8177 137.671 55.8177H137.205C136.987 55.8177 136.928 55.8759 136.928 56.0799V56.4733C136.928 56.6773 136.987 56.721 137.205 56.721Z" fill="#23346B"/>
<path d="M138.721 56.2547V55.5553H140.178V56.7209H140.338V57.362H140.017V57.0123H138.764V57.362H138.444V56.7209H138.546C138.677 56.6043 138.721 56.4586 138.721 56.2547ZM139.843 55.8467H139.07V56.3275C139.07 56.4878 139.041 56.6043 138.954 56.7209H139.843V55.8467Z" fill="#23346B"/>
<path d="M140.746 56.2547V55.5553H142.203V56.7209H142.363V57.362H142.042V57.0123H140.789V57.362H140.469V56.7209H140.571C140.702 56.6043 140.746 56.4586 140.746 56.2547ZM141.867 55.8467H141.095V56.3275C141.095 56.4878 141.066 56.6043 140.979 56.7209H141.867V55.8467Z" fill="#23346B"/>
<path d="M142.582 55.5553H144.068V55.8322H142.932V56.1527H144.039V56.4004H142.932V56.7355H144.068V57.0123H142.582V55.5553Z" fill="#23346B"/>
<path d="M144.651 57.0123H144.301V55.5553H145.292C145.656 55.5553 145.802 55.701 145.802 56.0653C145.802 56.4295 145.656 56.5752 145.292 56.5752H144.636V57.0123H144.651ZM144.651 56.2984H145.234C145.409 56.2984 145.467 56.2255 145.467 56.0653C145.467 55.9196 145.423 55.8467 145.234 55.8467H144.651V56.2984Z" fill="#23346B"/>
<path d="M147.156 56.3858H146.981L146.355 57.0123H145.889L146.69 56.2401L145.918 55.5553H146.413L146.981 56.0944H147.156V55.5553H147.506V56.0944H147.681L148.249 55.5553H148.744L147.972 56.2401L148.773 57.0123H148.307L147.681 56.3858H147.506V57.0123H147.156V56.3858Z" fill="#23346B"/>
<path d="M149.357 56.0944H149.56L150.202 55.5553H150.726L149.866 56.2401L150.755 57.0123H150.245L149.575 56.3858H149.357V57.0123H149.007V55.5553H149.357V56.0944Z" fill="#23346B"/>
<path d="M151.28 56.7209H151.324L152.212 55.5553H152.795V57.0123H152.445V55.8467H152.402L151.528 57.0123H150.93V55.5553H151.28V56.7209Z" fill="#23346B"/>
<path d="M116.342 59.2414H116.386L117.274 58.0759H117.857V59.5328H117.507V58.3673H117.464L116.59 59.5328H115.992V58.0759H116.342V59.2414Z" fill="#23346B"/>
<path d="M118.469 58.6439H119.373V58.0902H119.722V59.5472H119.373V58.9352H118.469V59.5472H118.12V58.0902H118.469V58.6439Z" fill="#23346B"/>
<path d="M121.267 58.0759V58.1924H121.718C122.083 58.1924 122.257 58.2944 122.257 58.7024V58.9063C122.257 59.2706 122.126 59.4017 121.718 59.4017H121.267V59.5328H120.917V59.4017H120.465C120.057 59.4017 119.941 59.2706 119.941 58.9063V58.7024C119.941 58.2944 120.101 58.1924 120.465 58.1924H120.917V58.0759H121.267ZM120.567 58.4838C120.363 58.4838 120.291 58.5275 120.291 58.7461V58.8772C120.291 59.0812 120.334 59.1249 120.567 59.1249H120.932V58.4838H120.567ZM121.267 59.1103H121.631C121.85 59.1103 121.908 59.0666 121.908 58.8626V58.7461C121.908 58.5275 121.835 58.4838 121.631 58.4838H121.281V59.1103H121.267Z" fill="#23346B"/>
<path d="M122.825 59.5328H122.49V58.0759H123.48C123.845 58.0759 123.99 58.2216 123.99 58.5858C123.99 58.95 123.845 59.0957 123.48 59.0957H122.825V59.5328ZM122.825 58.8189H123.408C123.582 58.8189 123.641 58.7461 123.641 58.5858C123.641 58.4401 123.597 58.3673 123.408 58.3673H122.825V58.8189Z" fill="#23346B"/>
<path d="M123.961 59.5328L124.734 58.0759H125.244L126.016 59.5328H125.608L125.418 59.1686H124.559L124.369 59.5328H123.961ZM125.273 58.8918L124.996 58.3527H124.981L124.69 58.8918H125.273Z" fill="#23346B"/>
<path d="M127.823 59.0375C127.823 59.4308 127.721 59.5474 127.298 59.5474H126.643C126.235 59.5474 126.104 59.4163 126.104 59.0375V58.6295C126.104 58.207 126.235 58.0759 126.672 58.0759H127.255C127.604 58.0759 127.823 58.1779 127.823 58.5858H127.473C127.473 58.4255 127.4 58.3673 127.196 58.3673H126.745C126.511 58.3673 126.468 58.411 126.468 58.6295V58.9938C126.468 59.2123 126.555 59.256 126.745 59.256H127.196C127.4 59.256 127.473 59.2123 127.473 59.0375H127.823Z" fill="#23346B"/>
<path d="M129.571 58.0759V58.3673H128.959V59.5328H128.609V58.3673H127.998V58.0759H129.571Z" fill="#23346B"/>
<path d="M130.067 59.5328H129.717V58.0759H130.708C131.072 58.0759 131.218 58.2216 131.218 58.5858C131.218 58.95 131.072 59.0957 130.708 59.0957H130.067V59.5328ZM130.067 58.8189H130.65C130.825 58.8189 130.883 58.7461 130.883 58.5858C130.883 58.4401 130.839 58.3673 130.65 58.3673H130.067V58.8189Z" fill="#23346B"/>
<path d="M133.082 58.0758L132.397 59.1685C132.194 59.4891 132.121 59.5328 131.873 59.5328H131.742V59.256H131.815C131.96 59.256 132.019 59.2122 132.019 59.1685C132.019 59.154 132.004 59.1248 131.99 59.0957L131.319 58.0612H131.727L132.208 58.8771L132.674 58.0612H133.082V58.0758Z" fill="#23346B"/>
<path d="M133.607 58.6293H133.81L134.452 58.0902H134.976L134.116 58.775L135.005 59.5472H134.495L133.825 58.9207H133.607V59.5472H133.257V58.0902H133.607V58.6293Z" fill="#23346B"/>
<path d="M136.695 58.0759V58.3673H136.083V59.5328H135.734V58.3673H135.122V58.0759H136.695Z" fill="#23346B"/>
<path d="M138.516 58.0758L137.832 59.1685C137.628 59.4891 137.555 59.5328 137.307 59.5328H137.176V59.256H137.249C137.394 59.256 137.453 59.2122 137.453 59.1685C137.453 59.154 137.438 59.1248 137.424 59.0957L136.753 58.0612H137.161L137.642 58.8771L138.108 58.0612H138.516V58.0758Z" fill="#23346B"/>
<path d="M139.042 59.5328H138.692V58.0759H139.683C140.047 58.0759 140.193 58.2216 140.193 58.5858C140.193 58.95 140.047 59.0957 139.683 59.0957H139.027V59.5328H139.042ZM139.042 58.8189H139.624C139.799 58.8189 139.857 58.7461 139.857 58.5858C139.857 58.4401 139.814 58.3673 139.624 58.3673H139.042V58.8189Z" fill="#23346B"/>
<path d="M140.717 58.6439H141.62V58.0902H141.97V59.5472H141.62V58.9352H140.717V59.5472H140.367V58.0902H140.717V58.6439Z" fill="#23346B"/>
<path d="M142.552 58.0758V58.6149H143.193C143.543 58.6149 143.718 58.7023 143.718 59.0666C143.718 59.4308 143.543 59.5182 143.193 59.5182H142.203V58.0612H142.552V58.0758ZM142.552 59.2414H143.15C143.339 59.2414 143.368 59.1977 143.368 59.0666C143.368 58.95 143.354 58.9063 143.164 58.9063H142.552V59.2414ZM144.417 59.5328H144.068V58.0758H144.417V59.5328Z" fill="#23346B"/>
<path d="M145.598 58.6149L146.079 58.0759H146.545L145.875 58.7898L146.633 59.5474H146.123L145.613 58.9646L145.103 59.5474H144.593L145.35 58.7898L144.68 58.0759H145.146L145.598 58.6149Z" fill="#23346B"/>
<path d="M149.08 58.0759V59.5328H148.73V58.3673H147.827V59.5328H147.477V58.0759H149.08Z" fill="#23346B"/>
<path d="M149.648 59.5328H149.298V58.0759H150.289C150.653 58.0759 150.799 58.2216 150.799 58.5858C150.799 58.95 150.653 59.0957 150.289 59.0957H149.633V59.5328H149.648ZM149.648 58.8189H150.231C150.406 58.8189 150.464 58.7461 150.464 58.5858C150.464 58.4401 150.42 58.3673 150.231 58.3673H149.648V58.8189Z" fill="#23346B"/>
<path d="M152.154 59.5328H151.513C151.119 59.5328 150.974 59.3871 150.974 59.0374V58.5858C150.974 58.1924 151.119 58.0612 151.513 58.0612H152.154C152.518 58.0612 152.678 58.1778 152.678 58.5858V59.0374C152.693 59.4017 152.562 59.5328 152.154 59.5328ZM151.6 59.2414H152.066C152.285 59.2414 152.343 59.1977 152.343 58.9937V58.6003C152.343 58.3818 152.27 58.3381 152.066 58.3381H151.615C151.396 58.3381 151.338 58.3963 151.338 58.6003V58.9937C151.323 59.1977 151.382 59.2414 151.6 59.2414Z" fill="#23346B"/>
<path d="M152.926 58.0759H154.412V58.3527H153.276V58.6732H154.383V58.9209H153.276V59.256H154.412V59.5328H152.926V58.0759Z" fill="#23346B"/>
<path d="M155.024 58.6293H155.228L155.87 58.0902H156.394L155.534 58.775L156.423 59.5472H155.913L155.243 58.9207H155.024V59.5472H154.675V58.0902H155.024V58.6293Z" fill="#23346B"/>
<path d="M158.098 58.0759V58.3673H157.486V59.5328H157.136V58.3673H156.524V58.0759H158.098Z" fill="#23346B"/>
<path d="M159.424 59.5328H158.783C158.39 59.5328 158.244 59.3871 158.244 59.0374V58.5858C158.244 58.1924 158.39 58.0612 158.783 58.0612H159.424C159.789 58.0612 159.949 58.1778 159.949 58.5858V59.0374C159.963 59.4017 159.832 59.5328 159.424 59.5328ZM158.871 59.2414H159.337C159.555 59.2414 159.614 59.1977 159.614 58.9937V58.6003C159.614 58.3818 159.541 58.3381 159.337 58.3381H158.885C158.667 58.3381 158.608 58.3963 158.608 58.6003V58.9937C158.594 59.1977 158.667 59.2414 158.871 59.2414Z" fill="#23346B"/>
<path d="M160.182 58.0759H161.231C161.551 58.0759 161.726 58.1779 161.726 58.4401C161.726 58.6732 161.668 58.7315 161.551 58.7606C161.697 58.8043 161.784 58.8772 161.784 59.0957C161.784 59.4017 161.624 59.5183 161.304 59.5183H160.182V58.0759ZM160.531 58.6732H161.245C161.333 58.6732 161.391 58.6004 161.391 58.4984C161.391 58.411 161.347 58.3527 161.245 58.3527H160.531V58.6732ZM160.531 59.256H161.231C161.42 59.256 161.449 59.2123 161.449 59.0812C161.449 58.9646 161.435 58.9209 161.245 58.9209H160.531V59.256Z" fill="#23346B"/>
<path d="M113.43 55.2285L113.43 59.7571" stroke="#1A295B" stroke-width="0.39" stroke-miterlimit="10"/>
<path d="M157.043 97.9088H88.1385C87.9892 97.9088 87.8412 97.8855 87.7032 97.8402C87.5652 97.7949 87.4398 97.7286 87.3342 97.6449C87.2285 97.5612 87.1447 97.4619 87.0876 97.3526C87.0304 97.2433 87.001 97.1261 87.001 97.0078C87.001 96.8895 87.0304 96.7723 87.0876 96.663C87.1447 96.5537 87.2285 96.4543 87.3342 96.3707C87.4398 96.287 87.5652 96.2206 87.7032 96.1754C87.8412 96.1301 87.9892 96.1068 88.1385 96.1068H157.043C157.345 96.1068 157.634 96.2017 157.847 96.3707C158.061 96.5397 158.18 96.7688 158.18 97.0078C158.174 97.2452 158.052 97.4715 157.84 97.6394C157.628 97.8074 157.343 97.9039 157.043 97.9088Z" fill="white"/>
<path d="M157.043 103.765H88.1385C87.9892 103.765 87.8412 103.742 87.7032 103.697C87.5652 103.652 87.4398 103.585 87.3342 103.502C87.2285 103.418 87.1447 103.319 87.0876 103.209C87.0304 103.1 87.001 102.983 87.001 102.864C87.001 102.746 87.0304 102.629 87.0876 102.52C87.1447 102.41 87.2285 102.311 87.3342 102.227C87.4398 102.144 87.5652 102.077 87.7032 102.032C87.8412 101.987 87.9892 101.963 88.1385 101.963H157.043C157.345 101.963 157.634 102.058 157.847 102.227C158.061 102.396 158.18 102.625 158.18 102.864C158.174 103.102 158.052 103.328 157.84 103.496C157.628 103.664 157.343 103.76 157.043 103.765Z" fill="white"/>
<path d="M157.043 179.45H88.1385C87.9892 179.45 87.8412 179.421 87.7032 179.364C87.5652 179.307 87.4398 179.224 87.3342 179.12C87.2285 179.015 87.1447 178.891 87.0876 178.754C87.0304 178.618 87.001 178.471 87.001 178.323C87.001 178.175 87.0304 178.029 87.0876 177.892C87.1447 177.756 87.2285 177.632 87.3342 177.527C87.4398 177.422 87.5652 177.339 87.7032 177.283C87.8412 177.226 87.9892 177.197 88.1385 177.197H157.043C157.345 177.197 157.634 177.316 157.847 177.527C158.061 177.738 158.18 178.025 158.18 178.323C158.174 178.62 158.052 178.903 157.84 179.113C157.628 179.323 157.343 179.443 157.043 179.45Z" fill="white"/>
<path d="M157.043 186.207H88.1385C87.9892 186.207 87.8412 186.178 87.7032 186.121C87.5652 186.065 87.4398 185.982 87.3342 185.877C87.2285 185.773 87.1447 185.649 87.0876 185.512C87.0304 185.375 87.001 185.229 87.001 185.081C87.001 184.933 87.0304 184.787 87.0876 184.65C87.1447 184.513 87.2285 184.389 87.3342 184.285C87.4398 184.18 87.5652 184.097 87.7032 184.04C87.8412 183.984 87.9892 183.955 88.1385 183.955H157.043C157.345 183.955 157.634 184.073 157.847 184.285C158.061 184.496 158.18 184.782 158.18 185.081C158.174 185.378 158.052 185.661 157.84 185.871C157.628 186.08 157.343 186.201 157.043 186.207Z" fill="white"/>
<path d="M157.043 203.326H88.1385C87.9892 203.326 87.8412 203.297 87.7032 203.241C87.5652 203.184 87.4398 203.101 87.3342 202.997C87.2285 202.892 87.1447 202.768 87.0876 202.631C87.0304 202.495 87.001 202.348 87.001 202.2C87.001 202.052 87.0304 201.906 87.0876 201.769C87.1447 201.633 87.2285 201.508 87.3342 201.404C87.4398 201.299 87.5652 201.216 87.7032 201.16C87.8412 201.103 87.9892 201.074 88.1385 201.074H157.043C157.192 201.074 157.34 201.103 157.478 201.16C157.616 201.216 157.742 201.299 157.847 201.404C157.953 201.508 158.037 201.633 158.094 201.769C158.151 201.906 158.18 202.052 158.18 202.2C158.174 202.497 158.052 202.78 157.84 202.99C157.628 203.2 157.343 203.32 157.043 203.326Z" fill="white"/>
<path d="M157.043 227.654H88.1385C87.9892 227.654 87.8412 227.624 87.7032 227.568C87.5652 227.511 87.4398 227.428 87.3342 227.324C87.2285 227.219 87.1447 227.095 87.0876 226.958C87.0304 226.822 87.001 226.675 87.001 226.527C87.001 226.379 87.0304 226.233 87.0876 226.096C87.1447 225.96 87.2285 225.835 87.3342 225.731C87.4398 225.626 87.5652 225.543 87.7032 225.487C87.8412 225.43 87.9892 225.401 88.1385 225.401H157.043C157.192 225.401 157.34 225.43 157.478 225.487C157.616 225.543 157.742 225.626 157.847 225.731C157.953 225.835 158.037 225.96 158.094 226.096C158.151 226.233 158.18 226.379 158.18 226.527C158.174 226.824 158.052 227.107 157.84 227.317C157.628 227.527 157.343 227.647 157.043 227.654Z" fill="white"/>
<path d="M157.043 210.084H88.1385C87.9892 210.084 87.8412 210.049 87.7032 209.981C87.5652 209.913 87.4398 209.814 87.3342 209.688C87.2285 209.563 87.1447 209.414 87.0876 209.25C87.0304 209.086 87.001 208.91 87.001 208.732C87.001 208.555 87.0304 208.379 87.0876 208.215C87.1447 208.051 87.2285 207.902 87.3342 207.777C87.4398 207.651 87.5652 207.552 87.7032 207.484C87.8412 207.416 87.9892 207.381 88.1385 207.381H157.043C157.345 207.381 157.634 207.523 157.847 207.777C158.061 208.03 158.18 208.374 158.18 208.732C158.174 209.088 158.052 209.428 157.84 209.68C157.628 209.932 157.343 210.076 157.043 210.084Z" fill="white"/>
<path d="M157.043 234.411H88.1385C87.9892 234.411 87.8412 234.376 87.7032 234.308C87.5652 234.24 87.4398 234.141 87.3342 234.015C87.2285 233.89 87.1447 233.741 87.0876 233.577C87.0304 233.413 87.001 233.237 87.001 233.059C87.001 232.882 87.0304 232.706 87.0876 232.542C87.1447 232.378 87.2285 232.229 87.3342 232.104C87.4398 231.978 87.5652 231.879 87.7032 231.811C87.8412 231.743 87.9892 231.708 88.1385 231.708H157.043C157.345 231.708 157.634 231.85 157.847 232.104C158.061 232.357 158.18 232.701 158.18 233.059C158.174 233.416 158.052 233.755 157.84 234.007C157.628 234.259 157.343 234.404 157.043 234.411Z" fill="white"/>
<path opacity="0.1" d="M76.0521 111.945H202.573C204.761 111.946 206.859 112.881 208.406 114.543C209.954 116.206 210.823 118.461 210.824 120.812V154.295C210.823 156.647 209.954 158.901 208.406 160.564C206.859 162.227 204.761 163.161 202.573 163.163H76.0521C73.8641 163.161 71.766 162.227 70.2189 160.564C68.6717 158.901 67.802 156.647 67.8008 154.295V120.812C67.802 118.461 68.6717 116.206 70.2189 114.543C71.766 112.881 73.8641 111.946 76.0521 111.945Z" fill="#23346B"/>
<path d="M73.4433 114.553H199.964C202.152 114.555 204.25 115.489 205.798 117.152C207.345 118.815 208.214 121.07 208.216 123.421V156.904C208.214 159.255 207.345 161.51 205.798 163.173C204.25 164.835 202.152 165.77 199.964 165.771H73.4433C71.2552 165.77 69.1572 164.835 67.61 163.173C66.0628 161.51 65.1931 159.255 65.1919 156.904V123.421C65.1931 121.07 66.0628 118.815 67.61 117.152C69.1572 115.489 71.2552 114.555 73.4433 114.553Z" fill="white"/>
<path d="M78.1568 123.069H99.781C100.916 123.069 102.005 123.52 102.807 124.323C103.61 125.125 104.061 126.214 104.061 127.349V148.973C104.061 149.535 103.95 150.092 103.735 150.611C103.52 151.13 103.205 151.602 102.807 151.999C102.41 152.397 101.938 152.712 101.419 152.927C100.9 153.142 100.343 153.253 99.781 153.253H78.1568C77.5948 153.253 77.0383 153.142 76.5191 152.927C75.9998 152.712 75.528 152.397 75.1306 151.999C74.7332 151.602 74.4179 151.13 74.2028 150.611C73.9878 150.092 73.8771 149.535 73.8771 148.973V127.349C73.8729 126.786 73.9807 126.227 74.1943 125.706C74.4079 125.185 74.723 124.712 75.1212 124.313C75.5195 123.915 75.993 123.6 76.5141 123.387C77.0352 123.173 77.5936 123.065 78.1568 123.069Z" fill="#DDE0E9"/>
<path d="M90.3488 142.489H87.31C86.0312 142.489 84.9907 141.448 84.9907 140.17V138.385C84.9907 138.106 85.2169 137.88 85.4958 137.88H92.163C92.4419 137.88 92.668 138.106 92.668 138.385V140.17C92.668 141.448 91.6276 142.489 90.3488 142.489ZM86.0008 138.89V140.17C86.0008 140.891 86.5881 141.479 87.3099 141.479H90.3487C91.0706 141.479 91.6578 140.891 91.6578 140.17V138.89H86.0008Z" fill="white"/>
<path d="M94.0626 134.657L83.2232 134.638C83.2232 134.638 83.2231 134.936 83.2231 134.657C83.2231 134.379 83.2231 131.087 83.2231 131.087C83.2231 130.804 83.3334 130.538 83.5336 130.338L84.5219 129.35C84.7221 129.15 84.9882 129.039 85.2712 129.039H92.0145C92.2976 129.039 92.5636 129.15 92.7638 129.35L93.7522 130.338C93.9524 130.538 94.0626 130.804 94.0626 131.087V134.657ZM92.0769 134.152H93.0524V131.087C93.0524 131.074 93.0471 131.062 93.0378 131.052L92.0495 130.064C92.0403 130.055 92.0275 130.05 92.0145 130.05H85.2712C85.2581 130.05 85.2453 130.055 85.2361 130.064L84.2479 131.052C84.2386 131.062 84.2333 131.074 84.2333 131.087V134.152H85.2088V131.68C85.2088 131.546 85.262 131.418 85.3567 131.323L85.5067 131.173C85.6015 131.078 85.7299 131.025 85.8639 131.025H91.4218C91.5557 131.025 91.6842 131.078 91.7789 131.173L91.9289 131.323C92.0237 131.418 92.0769 131.546 92.0769 131.68L92.0769 134.152ZM86.219 133.656H91.0667V132.035H86.219V133.656Z" fill="white"/>
<path d="M95.9392 147.59H81.796C80.6331 147.59 79.687 146.643 79.687 145.481V135.807C79.687 134.644 80.6331 133.698 81.796 133.698H95.9392C97.1021 133.698 98.0482 134.644 98.0482 135.807V138.325C98.0482 138.604 97.822 138.83 97.5431 138.83C97.2642 138.83 97.038 138.604 97.038 138.325V135.807C97.038 135.201 96.5451 134.708 95.9392 134.708H81.796C81.19 134.708 80.6972 135.201 80.6972 135.807V145.481C80.6972 146.086 81.1901 146.579 81.796 146.579H95.9392C96.5451 146.579 97.038 146.086 97.038 145.481V141.105C97.038 140.826 97.2641 140.6 97.5431 140.6C97.822 140.6 98.0482 140.826 98.0482 141.105V145.481C98.0482 146.643 97.1021 147.59 95.9392 147.59Z" fill="white"/>
<path d="M97.5431 138.83H80.1921C79.9132 138.83 79.687 138.604 79.687 138.325V135.807C79.687 134.644 80.6331 133.698 81.796 133.698H95.9392C97.1021 133.698 98.0482 134.644 98.0482 135.807V138.325C98.0482 138.604 97.822 138.83 97.5431 138.83ZM80.6972 137.82H97.038V135.807C97.038 135.201 96.5451 134.708 95.9392 134.708H81.796C81.19 134.708 80.6972 135.201 80.6972 135.807V137.82Z" fill="white"/>
<path d="M197.45 134.197H115.909C115.55 134.197 115.206 134.055 114.953 133.801C114.7 133.548 114.557 133.204 114.557 132.845C114.557 132.487 114.7 132.143 114.953 131.89C115.206 131.636 115.55 131.494 115.909 131.494H197.45C197.808 131.494 198.152 131.636 198.405 131.89C198.659 132.143 198.801 132.487 198.801 132.845C198.801 133.204 198.659 133.548 198.405 133.801C198.152 134.055 197.808 134.197 197.45 134.197Z" fill="#DDE0E9"/>
<path d="M143.954 126.15H114.958C114.83 126.15 114.708 125.997 114.618 125.726C114.528 125.454 114.477 125.085 114.477 124.701C114.477 124.316 114.528 123.947 114.618 123.676C114.708 123.404 114.83 123.251 114.958 123.251H143.954C144.082 123.251 144.204 123.404 144.294 123.676C144.384 123.947 144.435 124.316 144.435 124.701C144.435 125.085 144.384 125.454 144.294 125.726C144.204 125.997 144.082 126.15 143.954 126.15Z" fill="#23346B"/>
<path d="M197.45 142.891H115.909C115.55 142.891 115.206 142.749 114.953 142.496C114.7 142.242 114.557 141.898 114.557 141.54C114.557 141.182 114.7 140.838 114.953 140.584C115.206 140.331 115.55 140.188 115.909 140.188H197.45C197.808 140.188 198.152 140.331 198.405 140.584C198.659 140.838 198.801 141.182 198.801 141.54C198.801 141.898 198.659 142.242 198.405 142.496C198.152 142.749 197.808 142.891 197.45 142.891Z" fill="#DDE0E9"/>
<path d="M197.45 151.586H115.909C115.55 151.586 115.206 151.444 114.953 151.191C114.7 150.937 114.557 150.593 114.557 150.235C114.557 149.876 114.7 149.533 114.953 149.279C115.206 149.026 115.55 148.883 115.909 148.883H197.45C197.808 148.883 198.152 149.026 198.405 149.279C198.659 149.533 198.801 149.876 198.801 150.235C198.801 150.593 198.659 150.937 198.405 151.191C198.152 151.444 197.808 151.586 197.45 151.586Z" fill="#DDE0E9"/>
</g>
<mask id="mask1" mask-type="alpha" maskUnits="userSpaceOnUse" x="0" y="0" width="238" height="227">
<path d="M134.92 226.022C147.866 223.328 159.26 215.641 169.103 206.851C178.945 198.06 187.724 188.077 197.788 179.507C213.35 166.211 233.301 154.284 237.246 134.229C240.394 118.15 231.882 102.071 231.483 85.6826C231.261 73.2698 235.65 61.2546 236.581 48.8859C237.512 36.694 234.719 23.7953 226.695 14.563C215.256 1.39924 195.66 -1.69291 178.324 0.780818C160.989 3.25454 144.674 10.3223 127.605 14.0771C107.033 18.5828 85.6188 18.2294 64.6481 15.9765C51.8351 14.6072 38.4014 12.6193 26.3421 17.2134C15.6129 21.2774 7.14481 30.3771 3.06593 41.0672C-1.01294 51.7572 -0.87993 63.8166 2.62257 74.6833C7.45515 89.7465 18.14 102.204 24.9677 116.472C30.7757 128.619 33.6575 141.871 36.8496 154.947C38.9777 163.605 41.3719 172.572 47.2685 179.287C53.9632 187.017 64.116 190.595 73.1161 195.498C94.8849 207.337 106.501 231.942 134.92 226.022Z" fill="#F6F6F8"/>
</mask>
<g mask="url(#mask1)">
<path d="M106.448 19.8295C95.7693 22.097 86.1196 29.6937 77.6824 38.523C69.2452 47.3522 61.6189 57.4855 53.0114 66.0721C39.7 79.3971 22.8759 91.0848 18.7125 112.046C15.3873 128.853 21.5657 146.175 21.1167 163.465C20.711 176.556 16.566 189.025 15.2229 202.019C13.8881 214.827 15.5553 228.545 21.6596 238.63C30.3605 253.009 46.1861 257.134 60.4317 255.293C74.6773 253.453 88.3088 246.725 102.398 243.523C119.378 239.684 136.814 241.003 153.799 244.304C164.178 246.314 175.033 249.003 185.078 244.694C194.015 240.886 201.347 231.67 205.176 220.584C209.005 209.498 209.467 196.783 207.125 185.175C203.898 169.086 195.778 155.486 190.887 140.147C186.728 127.087 185.005 112.993 183.021 99.072C181.695 89.8532 180.168 80.2967 175.679 72.9597C170.588 64.5166 162.482 60.2968 155.378 54.7313C138.195 41.2922 129.89 14.8476 106.448 19.8295Z" fill="#F6F6F8"/>
<path d="M54.357 31.4819H132.474V272.411H54.357C50.5814 272.411 46.9604 270.911 44.2907 268.241C41.6209 265.571 40.1211 261.95 40.1211 258.175V45.7178C40.1211 41.9422 41.6209 38.3212 44.2907 35.6515C46.9604 32.9817 50.5814 31.4819 54.357 31.4819Z" fill="#23346B"/>
<path d="M53.5813 31.9462H129.988V272.093H53.5813C49.8884 272.093 46.3468 270.598 43.7355 267.937C41.1242 265.276 39.6572 261.666 39.6572 257.903V46.1358C39.6572 42.3725 41.1242 38.7633 43.7355 36.1022C46.3468 33.4411 49.8884 31.9462 53.5813 31.9462Z" fill="#1A295B"/>
<path d="M59.5007 31.9462H160.817C165.203 31.9462 169.41 33.7108 172.512 36.8519C175.613 39.993 177.356 44.2532 177.356 48.6954V255.343C177.356 259.786 175.613 264.046 172.512 267.187C169.41 270.328 165.203 272.093 160.817 272.093H59.5007C55.1143 272.093 50.9076 270.328 47.806 267.187C44.7044 264.046 42.9619 259.786 42.9619 255.343V48.6954C42.9619 44.2532 44.7044 39.993 47.806 36.8519C50.9076 33.7108 55.1143 31.9462 59.5007 31.9462Z" fill="#23346B"/>
<path d="M170.961 45.9433V246.327C170.949 248.581 170.049 250.74 168.454 252.334C166.86 253.929 164.701 254.829 162.447 254.841H54.9119C52.66 254.834 50.5031 253.933 48.915 252.337C47.327 250.74 46.4376 248.579 46.4424 246.327V45.9433C46.4376 43.6915 47.327 41.5298 48.915 39.9333C50.5031 38.3368 52.66 37.436 54.9119 37.4288H76.1756V40.0868C76.1756 42.3569 77.0774 44.5341 78.6826 46.1393C80.2878 47.7445 82.465 48.6463 84.7351 48.6463H132.443C134.713 48.6463 136.891 47.7445 138.496 46.1393C140.101 44.5341 141.003 42.3569 141.003 40.0868V37.4288H162.447C163.565 37.4276 164.673 37.647 165.707 38.0745C166.74 38.502 167.679 39.1291 168.47 39.92C169.261 40.7109 169.888 41.65 170.316 42.6835C170.743 43.7171 170.963 44.8248 170.961 45.9433Z" fill="white"/>
<path d="M62.7587 75.163C62.7587 75.5849 62.6219 75.9282 62.3483 76.1929C62.0726 76.4555 61.7172 76.5868 61.282 76.5868H59.5752V71.9282H62.3234V72.5512H60.2716V73.7458H61.2664C61.7058 73.7458 62.0643 73.877 62.3421 74.1396C62.6198 74.4022 62.7587 74.7434 62.7587 75.163ZM61.1048 75.9734C61.4053 75.9734 61.6374 75.9034 61.8011 75.7635C61.9649 75.6236 62.0467 75.4235 62.0467 75.163C62.0467 74.9026 61.9638 74.7014 61.798 74.5593C61.6343 74.4194 61.4022 74.3495 61.1016 74.3495H60.2716V75.9734H61.1048ZM64.6457 76.0638C64.8965 76.0638 65.1058 75.9895 65.2737 75.841C65.4416 75.6904 65.5255 75.4999 65.5255 75.2696V74.9952L64.7048 75.0533C64.2385 75.0834 64.0053 75.2556 64.0053 75.5698C64.0053 75.7205 64.0633 75.8399 64.1794 75.9282C64.2955 76.0186 64.4509 76.0638 64.6457 76.0638ZM64.4654 76.6223C64.1276 76.6223 63.853 76.5276 63.6416 76.3382C63.4302 76.1466 63.3245 75.8948 63.3245 75.5827C63.3245 75.2771 63.4354 75.0371 63.6571 74.8628C63.8768 74.6884 64.196 74.5873 64.6146 74.5593L65.5255 74.5044V74.2333C65.5255 74.0331 65.4634 73.8792 65.339 73.7716C65.2167 73.6661 65.0426 73.6134 64.8167 73.6134C64.6343 73.6134 64.4799 73.6586 64.3535 73.749C64.2291 73.8394 64.1525 73.961 64.1234 74.1138H63.4924C63.5027 73.8039 63.6343 73.5467 63.8872 73.3422C64.14 73.1377 64.4561 73.0355 64.8354 73.0355C65.2478 73.0355 65.5763 73.1399 65.8209 73.3487C66.0675 73.5574 66.1908 73.8351 66.1908 74.1816V76.5868H65.5473V76.0024H65.5318C65.4385 76.1918 65.2955 76.3425 65.1027 76.4544C64.91 76.5663 64.6975 76.6223 64.4654 76.6223ZM68.0997 76.6513C67.7059 76.6513 67.3846 76.5588 67.1359 76.3737C66.8831 76.1864 66.7411 75.9335 66.71 75.615H67.3753C67.4458 75.9314 67.6872 76.0896 68.0997 76.0896C68.3214 76.0896 68.4945 76.0401 68.6188 75.9411C68.7411 75.8442 68.8023 75.7151 68.8023 75.5537C68.8023 75.2072 68.5681 75.0339 68.0997 75.0339H67.6053V74.5141H68.0903C68.4945 74.5141 68.6966 74.3559 68.6966 74.0395C68.6966 73.8975 68.6479 73.7856 68.5504 73.7038C68.4468 73.6155 68.2986 73.5714 68.1059 73.5714C67.9173 73.5714 67.7629 73.6112 67.6427 73.6909C67.5225 73.7705 67.4509 73.8803 67.4281 74.0202H66.7815C66.8167 73.7102 66.9515 73.4649 67.1857 73.2841C67.424 73.1033 67.7297 73.0129 68.1028 73.0129C68.5007 73.0129 68.8106 73.1012 69.0323 73.2776C69.2458 73.4498 69.3525 73.6833 69.3525 73.9782C69.3525 74.1568 69.3028 74.315 69.2033 74.4528C69.1038 74.5927 68.9712 74.6831 68.8054 74.724V74.7498C69.2468 74.8574 69.4676 75.1232 69.4676 75.5472C69.4676 75.8808 69.3432 76.1477 69.0945 76.3479C68.8458 76.5502 68.5142 76.6513 68.0997 76.6513ZM71.2614 76.0638C71.5121 76.0638 71.7215 75.9895 71.8894 75.841C72.0572 75.6904 72.1412 75.4999 72.1412 75.2696V74.9952L71.3204 75.0533C70.8541 75.0834 70.6209 75.2556 70.6209 75.5698C70.6209 75.7205 70.679 75.8399 70.795 75.9282C70.9111 76.0186 71.0665 76.0638 71.2614 76.0638ZM71.0811 76.6223C70.7432 76.6223 70.4686 76.5276 70.2572 76.3382C70.0458 76.1466 69.9401 75.8948 69.9401 75.5827C69.9401 75.2771 70.051 75.0371 70.2727 74.8628C70.4925 74.6884 70.8116 74.5873 71.2303 74.5593L72.1412 74.5044V74.2333C72.1412 74.0331 72.079 73.8792 71.9546 73.7716C71.8323 73.6661 71.6583 73.6134 71.4323 73.6134C71.25 73.6134 71.0956 73.6586 70.9691 73.749C70.8448 73.8394 70.7681 73.961 70.7391 74.1138H70.108C70.1183 73.8039 70.25 73.5467 70.5028 73.3422C70.7557 73.1377 71.0717 73.0355 71.451 73.0355C71.8635 73.0355 72.1919 73.1399 72.4365 73.3487C72.6832 73.5574 72.8065 73.8351 72.8065 74.1816V76.5868H72.1629V76.0024H72.1474C72.0541 76.1918 71.9111 76.3425 71.7184 76.4544C71.5256 76.5663 71.3132 76.6223 71.0811 76.6223ZM77.2024 73.636H75.6511V76.5868H74.9827V73.0807H77.8708V76.5868H77.2024V73.636ZM79.7983 76.0638C80.049 76.0638 80.2584 75.9895 80.4263 75.841C80.5941 75.6904 80.6781 75.4999 80.6781 75.2696V74.9952L79.8573 75.0533C79.391 75.0834 79.1578 75.2556 79.1578 75.5698C79.1578 75.7205 79.2159 75.8399 79.3319 75.9282C79.448 76.0186 79.6035 76.0638 79.7983 76.0638ZM79.618 76.6223C79.2801 76.6223 79.0055 76.5276 78.7941 76.3382C78.5827 76.1466 78.477 75.8948 78.477 75.5827C78.477 75.2771 78.5879 75.0371 78.8097 74.8628C79.0293 74.6884 79.3485 74.5873 79.7672 74.5593L80.6781 74.5044V74.2333C80.6781 74.0331 80.6159 73.8792 80.4915 73.7716C80.3693 73.6661 80.1952 73.6134 79.9693 73.6134C79.7869 73.6134 79.6325 73.6586 79.506 73.749C79.3817 73.8394 79.305 73.961 79.276 74.1138H78.6449C78.6552 73.8039 78.7869 73.5467 79.0397 73.3422C79.2926 73.1377 79.6086 73.0355 79.9879 73.0355C80.4003 73.0355 80.7289 73.1399 80.9734 73.3487C81.22 73.5574 81.3434 73.8351 81.3434 74.1816V76.5868H80.6998V76.0024H80.6843C80.591 76.1918 80.448 76.3425 80.2553 76.4544C80.0625 76.5663 79.8501 76.6223 79.618 76.6223ZM83.7931 73.0452C84.2243 73.0452 84.5692 73.2077 84.8284 73.5327C85.0895 73.8577 85.22 74.2914 85.22 74.8337C85.22 75.374 85.0906 75.8076 84.8314 76.1348C84.5745 76.4598 84.2336 76.6223 83.8086 76.6223C83.3072 76.6223 82.9507 76.4189 82.7392 76.0121H82.7269V77.7329H82.0522V73.0807H82.7019V73.6618H82.7176C82.8129 73.4724 82.9568 73.3228 83.1496 73.2131C83.3445 73.1012 83.5589 73.0452 83.7931 73.0452ZM83.6221 76.0283C83.8957 76.0283 84.1154 75.9196 84.2811 75.7022C84.4471 75.4848 84.5299 75.1953 84.5299 74.8337C84.5299 74.4721 84.4471 74.1827 84.2811 73.9653C84.1154 73.7479 83.8957 73.6392 83.6221 73.6392C83.3547 73.6392 83.1383 73.749 82.9725 73.9685C82.8065 74.1881 82.7226 74.4765 82.7205 74.8337C82.7226 75.191 82.8065 75.4794 82.9725 75.6989C83.1362 75.9185 83.3527 76.0283 83.6221 76.0283ZM88.3289 73.636H87.2627V76.5868H86.5973V73.636H85.5311V73.0807H88.3289V73.636ZM91.0865 75.05H89.504V76.5868H88.8357V73.0807H89.504V74.4947H91.0865V73.0807H91.755V76.5868H91.0865V75.05ZM93.9156 73.6069C93.673 73.6069 93.472 73.6909 93.3124 73.8588C93.1507 74.0266 93.0607 74.2451 93.042 74.5141H94.7549C94.7468 74.2408 94.6658 74.0212 94.5125 73.8555C94.3591 73.6898 94.1601 73.6069 93.9156 73.6069ZM95.3953 75.5601C95.3477 75.8744 95.1893 76.1316 94.9198 76.3317C94.6503 76.5297 94.3259 76.6287 93.9466 76.6287C93.4575 76.6287 93.07 76.4684 92.7839 76.1477C92.4999 75.8292 92.358 75.3955 92.358 74.8467C92.358 74.2978 92.4999 73.8588 92.7839 73.5295C93.0679 73.2002 93.4461 73.0355 93.9186 73.0355C94.3829 73.0355 94.7508 73.1915 95.0224 73.5036C95.2939 73.8136 95.4296 74.2343 95.4296 74.7659V75.0113H93.0388V75.0533C93.0388 75.3567 93.1227 75.6 93.2908 75.7829C93.4586 75.968 93.6814 76.0605 93.9591 76.0605C94.156 76.0605 94.3259 76.0153 94.4689 75.925C94.6119 75.8346 94.7063 75.7129 94.7518 75.5601H95.3953ZM93.2937 72.519C93.1903 72.519 93.1011 72.4813 93.0263 72.406C92.9538 72.3306 92.9176 72.2402 92.9176 72.1348C92.9176 72.0293 92.9538 71.9389 93.0263 71.8636C93.1011 71.7883 93.1903 71.7506 93.2937 71.7506C93.3974 71.7506 93.4854 71.7883 93.558 71.8636C93.6305 71.9368 93.6669 72.0272 93.6669 72.1348C93.6669 72.2402 93.6305 72.3306 93.558 72.406C93.4854 72.4813 93.3974 72.519 93.2937 72.519ZM94.5467 72.519C94.443 72.519 94.3538 72.4813 94.2792 72.406C94.2067 72.3306 94.1705 72.2402 94.1705 72.1348C94.1705 72.0293 94.2067 71.9389 94.2792 71.8636C94.3538 71.7883 94.443 71.7506 94.5467 71.7506C94.6503 71.7506 94.7383 71.7883 94.8109 71.8636C94.8834 71.9368 94.9198 72.0272 94.9198 72.1348C94.9198 72.2402 94.8834 72.3306 94.8109 72.406C94.7383 72.4813 94.6503 72.519 94.5467 72.519ZM97.7706 73.0452C98.2017 73.0452 98.5467 73.2077 98.8057 73.5327C99.0669 73.8577 99.1975 74.2914 99.1975 74.8337C99.1975 75.374 99.0679 75.8076 98.8089 76.1348C98.5519 76.4598 98.211 76.6223 97.7861 76.6223C97.2844 76.6223 96.9281 76.4189 96.7166 76.0121H96.7041V77.7329H96.0295V73.0807H96.6793V73.6618H96.6948C96.7903 73.4724 96.9342 73.3228 97.1271 73.2131C97.3217 73.1012 97.5364 73.0452 97.7706 73.0452ZM97.5996 76.0283C97.8731 76.0283 98.0928 75.9196 98.2586 75.7022C98.4243 75.4848 98.5073 75.1953 98.5073 74.8337C98.5073 74.4721 98.4243 74.1827 98.2586 73.9653C98.0928 73.7479 97.8731 73.6392 97.5996 73.6392C97.3322 73.6392 97.1157 73.749 96.9497 73.9685C96.7839 74.1881 96.7 74.4765 96.698 74.8337C96.7 75.191 96.7839 75.4794 96.9497 75.6989C97.1134 75.9185 97.3301 76.0283 97.5996 76.0283ZM101.249 76.6287C100.76 76.6287 100.372 76.4673 100.084 76.1445C99.7955 75.8216 99.6513 75.3847 99.6513 74.8337C99.6513 74.2849 99.7964 73.848 100.087 73.523C100.375 73.198 100.762 73.0355 101.249 73.0355C101.737 73.0355 102.124 73.1969 102.412 73.5198C102.7 73.8448 102.844 74.2827 102.844 74.8337C102.844 75.3847 102.7 75.8216 102.412 76.1445C102.126 76.4673 101.739 76.6287 101.249 76.6287ZM101.249 76.0476C101.535 76.0476 101.759 75.9411 101.921 75.728C102.081 75.5149 102.16 75.2169 102.16 74.8337C102.16 74.4506 102.081 74.1525 101.921 73.9395C101.759 73.7242 101.535 73.6166 101.249 73.6166C100.963 73.6166 100.739 73.7242 100.578 73.9395C100.416 74.1547 100.335 74.4528 100.335 74.8337C100.335 75.2147 100.416 75.5128 100.578 75.728C100.739 75.9411 100.963 76.0476 101.249 76.0476ZM104.116 73.594V74.5238H104.79C105.186 74.5238 105.384 74.3678 105.384 74.0557C105.384 73.7479 105.21 73.594 104.862 73.594H104.116ZM104.116 75.021V76.0702H104.921C105.325 76.0702 105.527 75.897 105.527 75.5504C105.527 75.1975 105.297 75.021 104.837 75.021H104.116ZM103.454 73.0807H104.993C105.318 73.0807 105.575 73.1603 105.763 73.3196C105.95 73.4789 106.043 73.6963 106.043 73.9717C106.043 74.1547 105.988 74.3183 105.878 74.4625C105.769 74.6088 105.633 74.6982 105.471 74.7304V74.7562C105.687 74.7864 105.861 74.8757 105.993 75.0242C106.126 75.1749 106.192 75.3589 106.192 75.5763C106.192 75.8862 106.087 76.1316 105.875 76.3124C105.662 76.4953 105.373 76.5868 105.008 76.5868H103.454V73.0807Z" fill="#23346B"/>
<path d="M96.3573 38.1495H121C121.148 38.1483 121.295 38.1766 121.432 38.2327C121.569 38.2889 121.694 38.3718 121.799 38.4766C121.904 38.5815 121.987 38.7061 122.043 38.8433C122.099 38.9805 122.127 39.1275 122.126 39.2757V39.501C122.127 39.6492 122.099 39.7962 122.043 39.9334C121.987 40.0706 121.904 40.1952 121.799 40.3C121.694 40.4048 121.569 40.4878 121.432 40.5439C121.295 40.6001 121.148 40.6284 121 40.6272H96.3573C96.209 40.6284 96.062 40.6001 95.9248 40.5439C95.7876 40.4878 95.663 40.4048 95.5582 40.3C95.4534 40.1952 95.3705 40.0706 95.3143 39.9334C95.2581 39.7962 95.2298 39.6492 95.231 39.501V39.2757C95.2356 38.9785 95.3558 38.6947 95.566 38.4845C95.7762 38.2742 96.06 38.1541 96.3573 38.1495Z" fill="url(#paint1_linear)"/>
<path d="M171.01 85.8661V247.914H46.8311V85.8662L76.9972 85.8661C76.9972 85.8661 116.441 85.8661 141.715 85.8661C140.112 87.0793 143.981 85.8661 141.715 85.8661C141.715 87.5818 143.317 84.6529 141.715 85.8661C149.759 85.8661 171.01 85.8661 171.01 85.8661Z" fill="#F2F3F6"/>
<path d="M80.6935 92.0522H59.0693V109.171H80.6935V92.0522Z" fill="white"/>
<path d="M80.6935 172.242H59.0693V191.163H80.6935V172.242Z" fill="white"/>
<path d="M80.6935 195.668H59.0693V215.039H80.6935V195.668Z" fill="white"/>
<path d="M80.6935 219.995H59.0693V239.367H80.6935V219.995Z" fill="white"/>
<path d="M64.7722 59.6533C63.6692 59.6533 62.7793 58.7634 62.7793 57.6604C62.7793 56.5574 63.6692 55.6675 64.7722 55.6675C65.8752 55.6675 66.7651 56.5574 66.7651 57.6604H65.7499C65.7499 57.1214 65.3112 56.6827 64.7722 56.6827C64.2332 56.6827 63.7946 57.1214 63.7946 57.6604C63.7946 58.1994 64.2332 58.638 64.7722 58.638V59.6533Z" fill="#D01417"/>
<path d="M62.378 57.6609H61.4004C61.4004 55.7933 62.917 54.2892 64.772 54.2892V55.2669C63.456 55.2669 62.378 56.3323 62.378 57.6609Z" fill="#23346B"/>
<path d="M64.7725 62.4357V61.0319C66.64 61.0319 68.1441 59.5153 68.1441 57.6603H69.5479C69.5479 60.2924 67.4046 62.4357 64.7725 62.4357Z" fill="#D01417"/>
<path d="M63.2058 61.3208C62.3159 60.9323 61.5889 60.2429 61.1753 59.3655L62.6042 58.6887C62.8549 59.2151 63.2935 59.6287 63.8325 59.8669L63.2058 61.3208Z" fill="#23346B"/>
<path d="M63.2058 61.3208C62.3159 60.9323 61.5889 60.2429 61.1753 59.3655L62.6042 58.6887C62.8549 59.2151 63.2935 59.6287 63.8325 59.8669L63.2058 61.3208Z" fill="#23346B"/>
<path d="M69.9239 57.6603H68.1441C68.1441 55.7927 66.6275 54.2886 64.7725 54.2886V52.5088C67.6052 52.5088 69.9239 54.8151 69.9239 57.6603Z" fill="#23346B"/>
<path d="M64.7724 62.4483C62.1277 62.4483 59.9844 60.2924 59.9844 57.6603H60.4732C60.4732 60.0292 62.4034 61.9595 64.7724 61.9595V62.4483Z" fill="#D01417"/>
<path d="M60.0098 57.6603H59.333C59.333 54.6646 61.7771 52.2205 64.7728 52.2205V52.8973C62.1406 52.8973 60.0098 55.0281 60.0098 57.6603Z" fill="#D01417"/>
<path d="M66.9407 56.6323C66.6901 56.1059 66.2514 55.6923 65.7124 55.4541L66.3391 54.0002C67.229 54.3887 67.956 55.0781 68.3696 55.9555L66.9407 56.6323Z" fill="#D01417"/>
<path d="M65.8754 60.1171L65.2236 58.6632C65.4743 58.5504 65.6749 58.3498 65.7877 58.1117L67.2291 58.7635C66.9533 59.3776 66.477 59.8539 65.8754 60.1171Z" fill="#23346B"/>
<path d="M72.6142 59.4437H71.73V55.7698H74.2332C75.1548 55.7698 75.5285 56.1309 75.5285 57.0525C75.5285 57.9866 75.1548 58.3602 74.2457 58.3602H72.6142V59.4437ZM72.6142 57.6254H74.0838C74.5321 57.6254 74.6567 57.4511 74.6567 57.0525C74.6567 56.6914 74.5446 56.4921 74.0838 56.4921H72.6142V57.6254Z" fill="#23346B"/>
<path d="M78.9409 59.443H77.3218C76.338 59.443 75.9644 59.0818 75.9644 58.1851V57.0269C75.9644 56.0181 76.3131 55.7192 77.3218 55.7192H78.9409C79.85 55.7192 80.2734 55.9932 80.2734 57.0269V58.1851C80.2734 59.1067 79.9621 59.443 78.9409 59.443ZM77.5336 58.7206H78.7042C79.2647 58.7206 79.3892 58.5961 79.3892 58.0979V57.1141C79.3892 56.5785 79.2149 56.454 78.6793 56.454H77.546C76.998 56.454 76.8361 56.591 76.8361 57.1141V58.0979C76.8486 58.5836 76.998 58.7206 77.5336 58.7206Z" fill="#23346B"/>
<path d="M85.0933 58.1727C85.0933 59.1565 84.8442 59.443 83.7607 59.443H82.1292C81.108 59.443 80.7842 59.1316 80.7842 58.1477V57.1016C80.7842 56.0306 81.1329 55.7192 82.2039 55.7192H83.6611C84.5328 55.7192 85.0684 55.9683 85.0684 57.002H84.1841C84.1841 56.6159 83.9849 56.454 83.4743 56.454H82.3409C81.7556 56.454 81.6311 56.5536 81.6311 57.1265V58.0357C81.6311 58.5961 81.8428 58.7082 82.3409 58.7082H83.4743C83.9973 58.7082 84.1841 58.6085 84.1841 58.1727H85.0933Z" fill="#23346B"/>
<path d="M86.5622 58.7206H86.6868L88.9285 55.7815H90.4105V59.4554H89.5263V56.5038H89.4017L87.1974 59.443H85.6904V55.769H86.5747V58.7206H86.5622Z" fill="#D01417"/>
<path d="M91.8925 57.1763H94.1592V55.769H95.0434V59.443H94.1592V57.9111H91.8925V59.443H91.0083V55.769H91.8925V57.1763Z" fill="#D01417"/>
<path d="M98.9668 55.769V56.0555H100.1C101.009 56.0555 101.445 56.317 101.445 57.3507V57.8489C101.445 58.7705 101.134 59.1192 100.1 59.1192H98.9668V59.443H98.0826V59.1192H96.9493C95.9281 59.1192 95.6167 58.7829 95.6167 57.8613V57.3632C95.6167 56.3295 96.0401 56.0555 96.9493 56.0555H98.0826V55.769H98.9668ZM97.1984 56.7903C96.6753 56.7903 96.4885 56.9148 96.4885 57.4503V57.7741C96.4885 58.2723 96.613 58.3968 97.1735 58.3968H98.0701V56.7903H97.1984ZM98.9668 58.3844H99.876C100.436 58.3844 100.561 58.2598 100.561 57.7617V57.4379C100.561 56.9024 100.387 56.7778 99.8635 56.7778H98.9793V58.3844H98.9668Z" fill="#D01417"/>
<path d="M102.89 59.443H102.006V55.769H104.509C105.431 55.769 105.804 56.1302 105.804 57.0518C105.804 57.9859 105.431 58.3595 104.522 58.3595H102.89V59.443ZM102.89 57.6247H104.36C104.808 57.6247 104.933 57.4503 104.933 57.0518C104.933 56.6906 104.82 56.4914 104.36 56.4914H102.89V57.6247Z" fill="#D01417"/>
<path d="M105.717 59.443L107.66 55.769H108.968L110.898 59.443H109.864L109.391 58.5214H107.224L106.751 59.443H105.717ZM109.043 57.824L108.345 56.454H108.308L107.585 57.824H109.043Z" fill="#D01417"/>
<path d="M117.566 55.557V57.0139H117.216V55.8484H116.313V57.0139H115.963V55.557H117.566Z" fill="#23346B"/>
<path d="M119.445 55.5553V57.0123H119.095V55.8467H118.279V56.4878C118.279 56.8666 118.119 57.0123 117.871 57.0123H117.726V56.7209C117.9 56.7209 117.944 56.648 117.944 56.444V55.5553H119.445Z" fill="#23346B"/>
<path d="M119.562 57.0123L120.334 55.5553H120.844L121.616 57.0123H121.208L121.018 56.648H120.159L119.969 57.0123H119.562ZM120.887 56.3712L120.611 55.8321H120.596L120.305 56.3712H120.887Z" fill="#23346B"/>
<path d="M123.116 55.5553V55.8467H122.49V57.0123H122.14V55.8467H121.528V55.5553H123.116Z" fill="#23346B"/>
<path d="M124.589 55.5553V55.6719H125.04C125.404 55.6719 125.579 55.7738 125.579 56.1818V56.3858C125.579 56.75 125.448 56.8811 125.04 56.8811H124.589V57.0123H124.239V56.8811H123.787C123.379 56.8811 123.263 56.75 123.263 56.3858V56.1818C123.263 55.7738 123.423 55.6719 123.787 55.6719H124.239V55.5553H124.589ZM123.889 55.9632C123.685 55.9632 123.612 56.007 123.612 56.2255V56.3566C123.612 56.5606 123.656 56.6043 123.889 56.6043H124.253V55.9632H123.889ZM124.589 56.5897H124.953C125.171 56.5897 125.23 56.546 125.23 56.3421V56.2109C125.23 55.9924 125.157 55.9487 124.953 55.9487H124.603V56.5897H124.589Z" fill="#23346B"/>
<path d="M126.977 57.0123H126.336C125.943 57.0123 125.797 56.8666 125.797 56.517V56.0653C125.797 55.6719 125.943 55.5408 126.336 55.5408H126.977C127.342 55.5408 127.502 55.6574 127.502 56.0653V56.517C127.517 56.8812 127.385 57.0123 126.977 57.0123ZM126.424 56.7209H126.89C127.109 56.7209 127.167 56.6772 127.167 56.4733V56.0799C127.167 55.8613 127.094 55.8176 126.89 55.8176H126.438C126.22 55.8176 126.162 55.8759 126.162 56.0799V56.4733C126.147 56.6772 126.205 56.7209 126.424 56.7209Z" fill="#23346B"/>
<path d="M128.07 57.0123H127.735V55.5553H128.726C129.09 55.5553 129.236 55.701 129.236 56.0652C129.236 56.4295 129.09 56.5752 128.726 56.5752H128.07V57.0123ZM128.07 56.2983H128.653C128.828 56.2983 128.886 56.2255 128.886 56.0652C128.886 55.9195 128.842 55.8467 128.653 55.8467H128.07V56.2983Z" fill="#23346B"/>
<path d="M130.096 55.5553L130.576 56.7209H130.591L131.072 55.5553H131.727V57.0123H131.378V55.8467H131.334L130.839 57.0123H130.343L129.848 55.8467H129.804V57.0123H129.455V55.5553H130.096Z" fill="#23346B"/>
<path d="M131.874 57.0123L132.646 55.5553H133.156L133.928 57.0123H133.52L133.33 56.648H132.471L132.281 57.0123H131.874ZM133.185 56.3712L132.908 55.8321H132.893L132.602 56.3712H133.185Z" fill="#23346B"/>
<path d="M136.361 55.5553V57.0123H136.011V55.8467H135.108V57.0123H134.758V55.5553H136.361Z" fill="#23346B"/>
<path d="M137.759 57.0123H137.118C136.724 57.0123 136.579 56.8666 136.579 56.517V56.0653C136.579 55.6719 136.724 55.5408 137.118 55.5408H137.759C138.123 55.5408 138.283 55.6574 138.283 56.0653V56.517C138.283 56.8812 138.167 57.0123 137.759 57.0123ZM137.205 56.7209H137.671C137.89 56.7209 137.948 56.6772 137.948 56.4733V56.0799C137.948 55.8613 137.875 55.8176 137.671 55.8176H137.205C136.987 55.8176 136.928 55.8759 136.928 56.0799V56.4733C136.928 56.6772 136.987 56.7209 137.205 56.7209Z" fill="#23346B"/>
<path d="M138.72 56.2546V55.5553H140.177V56.7209H140.337V57.3619H140.017V57.0123H138.764V57.3619H138.443V56.7209H138.545C138.676 56.6043 138.72 56.4586 138.72 56.2546ZM139.842 55.8467H139.07V56.3275C139.07 56.4878 139.041 56.6043 138.953 56.7209H139.842V55.8467Z" fill="#23346B"/>
<path d="M140.746 56.2546V55.5553H142.203V56.7209H142.363V57.3619H142.042V57.0123H140.789V57.3619H140.469V56.7209H140.571C140.702 56.6043 140.746 56.4586 140.746 56.2546ZM141.867 55.8467H141.095V56.3275C141.095 56.4878 141.066 56.6043 140.979 56.7209H141.867V55.8467Z" fill="#23346B"/>
<path d="M142.582 55.5553H144.068V55.8321H142.932V56.1527H144.039V56.4003H142.932V56.7354H144.068V57.0123H142.582V55.5553Z" fill="#23346B"/>
<path d="M144.651 57.0123H144.301V55.5553H145.292C145.656 55.5553 145.802 55.701 145.802 56.0652C145.802 56.4295 145.656 56.5752 145.292 56.5752H144.636V57.0123H144.651ZM144.651 56.2983H145.234C145.409 56.2983 145.467 56.2255 145.467 56.0652C145.467 55.9195 145.423 55.8467 145.234 55.8467H144.651V56.2983Z" fill="#23346B"/>
<path d="M147.156 56.3858H146.981L146.355 57.0123H145.889L146.69 56.2401L145.918 55.5553H146.413L146.981 56.0944H147.156V55.5553H147.506V56.0944H147.681L148.249 55.5553H148.744L147.972 56.2401L148.773 57.0123H148.307L147.681 56.3858H147.506V57.0123H147.156V56.3858Z" fill="#23346B"/>
<path d="M149.357 56.0944H149.56L150.202 55.5553H150.726L149.866 56.2401L150.755 57.0123H150.245L149.575 56.3858H149.357V57.0123H149.007V55.5553H149.357V56.0944Z" fill="#23346B"/>
<path d="M151.28 56.7209H151.324L152.212 55.5553H152.795V57.0123H152.445V55.8467H152.402L151.528 57.0123H150.93V55.5553H151.28V56.7209Z" fill="#23346B"/>
<path d="M116.342 59.2414H116.386L117.274 58.0758H117.857V59.5328H117.507V58.3672H117.464L116.59 59.5328H115.992V58.0758H116.342V59.2414Z" fill="#23346B"/>
<path d="M118.469 58.6438H119.372V58.0902H119.722V59.5471H119.372V58.9352H118.469V59.5471H118.119V58.0902H118.469V58.6438Z" fill="#23346B"/>
<path d="M121.267 58.0758V58.1924H121.718C122.083 58.1924 122.257 58.2944 122.257 58.7023V58.9063C122.257 59.2705 122.126 59.4017 121.718 59.4017H121.267V59.5328H120.917V59.4017H120.465C120.057 59.4017 119.941 59.2705 119.941 58.9063V58.7023C119.941 58.2944 120.101 58.1924 120.465 58.1924H120.917V58.0758H121.267ZM120.567 58.4838C120.363 58.4838 120.291 58.5275 120.291 58.746V58.8772C120.291 59.0811 120.334 59.1248 120.567 59.1248H120.932V58.4838H120.567ZM121.267 59.1103H121.631C121.85 59.1103 121.908 59.0666 121.908 58.8626V58.746C121.908 58.5275 121.835 58.4838 121.631 58.4838H121.281V59.1103H121.267Z" fill="#23346B"/>
<path d="M122.825 59.5328H122.49V58.0758H123.48C123.845 58.0758 123.99 58.2215 123.99 58.5858C123.99 58.95 123.845 59.0957 123.48 59.0957H122.825V59.5328ZM122.825 58.8189H123.408C123.582 58.8189 123.641 58.746 123.641 58.5858C123.641 58.4401 123.597 58.3672 123.408 58.3672H122.825V58.8189Z" fill="#23346B"/>
<path d="M123.961 59.5328L124.733 58.0758H125.243L126.015 59.5328H125.607L125.418 59.1686H124.558L124.369 59.5328H123.961ZM125.272 58.8917L124.995 58.3527H124.981L124.689 58.8917H125.272Z" fill="#23346B"/>
<path d="M127.823 59.0374C127.823 59.4308 127.721 59.5474 127.298 59.5474H126.643C126.235 59.5474 126.104 59.4162 126.104 59.0374V58.6295C126.104 58.207 126.235 58.0758 126.672 58.0758H127.255C127.604 58.0758 127.823 58.1778 127.823 58.5858H127.473C127.473 58.4255 127.4 58.3672 127.196 58.3672H126.745C126.511 58.3672 126.468 58.4109 126.468 58.6295V58.9937C126.468 59.2123 126.555 59.256 126.745 59.256H127.196C127.4 59.256 127.473 59.2123 127.473 59.0374H127.823Z" fill="#23346B"/>
<path d="M129.571 58.0758V58.3672H128.959V59.5328H128.609V58.3672H127.998V58.0758H129.571Z" fill="#23346B"/>
<path d="M130.066 59.5328H129.717V58.0758H130.708C131.072 58.0758 131.217 58.2215 131.217 58.5858C131.217 58.95 131.072 59.0957 130.708 59.0957H130.066V59.5328ZM130.066 58.8189H130.649C130.824 58.8189 130.882 58.746 130.882 58.5858C130.882 58.4401 130.839 58.3672 130.649 58.3672H130.066V58.8189Z" fill="#23346B"/>
<path d="M133.082 58.0758L132.397 59.1685C132.194 59.489 132.121 59.5327 131.873 59.5327H131.742V59.2559H131.815C131.96 59.2559 132.019 59.2122 132.019 59.1685C132.019 59.1539 132.004 59.1248 131.99 59.0957L131.319 58.0612H131.727L132.208 58.8771L132.674 58.0612H133.082V58.0758Z" fill="#23346B"/>
<path d="M133.607 58.6293H133.81L134.452 58.0902H134.976L134.116 58.775L135.005 59.5471H134.495L133.825 58.9206H133.607V59.5471H133.257V58.0902H133.607V58.6293Z" fill="#23346B"/>
<path d="M136.695 58.0758V58.3672H136.083V59.5328H135.734V58.3672H135.122V58.0758H136.695Z" fill="#23346B"/>
<path d="M138.516 58.0758L137.832 59.1685C137.628 59.489 137.555 59.5327 137.307 59.5327H137.176V59.2559H137.249C137.394 59.2559 137.453 59.2122 137.453 59.1685C137.453 59.1539 137.438 59.1248 137.424 59.0957L136.753 58.0612H137.161L137.642 58.8771L138.108 58.0612H138.516V58.0758Z" fill="#23346B"/>
<path d="M139.042 59.5328H138.692V58.0758H139.683C140.047 58.0758 140.193 58.2215 140.193 58.5858C140.193 58.95 140.047 59.0957 139.683 59.0957H139.027V59.5328H139.042ZM139.042 58.8189H139.624C139.799 58.8189 139.857 58.746 139.857 58.5858C139.857 58.4401 139.814 58.3672 139.624 58.3672H139.042V58.8189Z" fill="#23346B"/>
<path d="M140.717 58.6438H141.62V58.0902H141.97V59.5471H141.62V58.9352H140.717V59.5471H140.367V58.0902H140.717V58.6438Z" fill="#23346B"/>
<path d="M142.552 58.0758V58.6149H143.193C143.543 58.6149 143.718 58.7023 143.718 59.0665C143.718 59.4308 143.543 59.5182 143.193 59.5182H142.203V58.0612H142.552V58.0758ZM142.552 59.2414H143.15C143.339 59.2414 143.368 59.1976 143.368 59.0665C143.368 58.95 143.354 58.9063 143.164 58.9063H142.552V59.2414ZM144.417 59.5327H144.068V58.0758H144.417V59.5327Z" fill="#23346B"/>
<path d="M145.598 58.6149L146.079 58.0758H146.545L145.875 58.7897L146.633 59.5474H146.123L145.613 58.9646L145.103 59.5474H144.593L145.35 58.7897L144.68 58.0758H145.146L145.598 58.6149Z" fill="#23346B"/>
<path d="M149.08 58.0758V59.5328H148.73V58.3672H147.827V59.5328H147.477V58.0758H149.08Z" fill="#23346B"/>
<path d="M149.648 59.5328H149.298V58.0758H150.289C150.653 58.0758 150.799 58.2215 150.799 58.5858C150.799 58.95 150.653 59.0957 150.289 59.0957H149.633V59.5328H149.648ZM149.648 58.8189H150.231C150.406 58.8189 150.464 58.746 150.464 58.5858C150.464 58.4401 150.42 58.3672 150.231 58.3672H149.648V58.8189Z" fill="#23346B"/>
<path d="M152.154 59.5327H151.513C151.119 59.5327 150.974 59.3871 150.974 59.0374V58.5857C150.974 58.1923 151.119 58.0612 151.513 58.0612H152.154C152.518 58.0612 152.678 58.1778 152.678 58.5857V59.0374C152.693 59.4016 152.562 59.5327 152.154 59.5327ZM151.6 59.2414H152.066C152.285 59.2414 152.343 59.1976 152.343 58.9937V58.6003C152.343 58.3817 152.27 58.338 152.066 58.338H151.615C151.396 58.338 151.338 58.3963 151.338 58.6003V58.9937C151.323 59.1976 151.382 59.2414 151.6 59.2414Z" fill="#23346B"/>
<path d="M152.926 58.0758H154.412V58.3527H153.275V58.6732H154.383V58.9209H153.275V59.256H154.412V59.5328H152.926V58.0758Z" fill="#23346B"/>
<path d="M155.024 58.6293H155.228L155.87 58.0902H156.394L155.534 58.775L156.423 59.5471H155.913L155.243 58.9206H155.024V59.5471H154.675V58.0902H155.024V58.6293Z" fill="#23346B"/>
<path d="M158.098 58.0758V58.3672H157.486V59.5328H157.136V58.3672H156.524V58.0758H158.098Z" fill="#23346B"/>
<path d="M159.424 59.5327H158.783C158.389 59.5327 158.244 59.3871 158.244 59.0374V58.5857C158.244 58.1923 158.389 58.0612 158.783 58.0612H159.424C159.788 58.0612 159.948 58.1778 159.948 58.5857V59.0374C159.963 59.4016 159.832 59.5327 159.424 59.5327ZM158.87 59.2414H159.336C159.555 59.2414 159.613 59.1976 159.613 58.9937V58.6003C159.613 58.3817 159.54 58.338 159.336 58.338H158.885C158.666 58.338 158.608 58.3963 158.608 58.6003V58.9937C158.593 59.1976 158.666 59.2414 158.87 59.2414Z" fill="#23346B"/>
<path d="M160.182 58.0758H161.231C161.551 58.0758 161.726 58.1778 161.726 58.4401C161.726 58.6732 161.668 58.7315 161.551 58.7606C161.697 58.8043 161.784 58.8772 161.784 59.0957C161.784 59.4017 161.624 59.5182 161.304 59.5182H160.182V58.0758ZM160.531 58.6732H161.245C161.333 58.6732 161.391 58.6003 161.391 58.4984C161.391 58.4109 161.347 58.3527 161.245 58.3527H160.531V58.6732ZM160.531 59.256H161.231C161.42 59.256 161.449 59.2123 161.449 59.0811C161.449 58.9646 161.435 58.9209 161.245 58.9209H160.531V59.256Z" fill="#23346B"/>
<path d="M113.43 55.2284L113.43 59.7571" stroke="#1A295B" stroke-width="0.39" stroke-miterlimit="10"/>
<path d="M157.043 97.9088H88.1385C87.9892 97.9088 87.8412 97.8855 87.7032 97.8402C87.5652 97.7949 87.4398 97.7285 87.3342 97.6449C87.2285 97.5612 87.1447 97.4619 87.0876 97.3526C87.0304 97.2432 87.001 97.1261 87.001 97.0078C87.001 96.8894 87.0304 96.7723 87.0876 96.663C87.1447 96.5536 87.2285 96.4543 87.3342 96.3707C87.4398 96.287 87.5652 96.2206 87.7032 96.1753C87.8412 96.1301 87.9892 96.1068 88.1385 96.1068H157.043C157.345 96.1068 157.634 96.2017 157.847 96.3707C158.061 96.5396 158.18 96.7688 158.18 97.0078C158.174 97.2452 158.052 97.4715 157.84 97.6394C157.628 97.8073 157.343 97.9038 157.043 97.9088Z" fill="white"/>
<path d="M157.043 103.765H88.1385C87.9892 103.765 87.8412 103.742 87.7032 103.697C87.5652 103.652 87.4398 103.585 87.3342 103.501C87.2285 103.418 87.1447 103.318 87.0876 103.209C87.0304 103.1 87.001 102.983 87.001 102.864C87.001 102.746 87.0304 102.629 87.0876 102.52C87.1447 102.41 87.2285 102.311 87.3342 102.227C87.4398 102.144 87.5652 102.077 87.7032 102.032C87.8412 101.987 87.9892 101.963 88.1385 101.963H157.043C157.345 101.963 157.634 102.058 157.847 102.227C158.061 102.396 158.18 102.625 158.18 102.864C158.174 103.102 158.052 103.328 157.84 103.496C157.628 103.664 157.343 103.76 157.043 103.765Z" fill="white"/>
<path d="M157.043 179.45H88.1385C87.9892 179.45 87.8412 179.42 87.7032 179.364C87.5652 179.307 87.4398 179.224 87.3342 179.12C87.2285 179.015 87.1447 178.891 87.0876 178.754C87.0304 178.618 87.001 178.471 87.001 178.323C87.001 178.175 87.0304 178.029 87.0876 177.892C87.1447 177.756 87.2285 177.632 87.3342 177.527C87.4398 177.422 87.5652 177.339 87.7032 177.283C87.8412 177.226 87.9892 177.197 88.1385 177.197H157.043C157.345 177.197 157.634 177.316 157.847 177.527C158.061 177.738 158.18 178.025 158.18 178.323C158.174 178.62 158.052 178.903 157.84 179.113C157.628 179.323 157.343 179.443 157.043 179.45Z" fill="white"/>
<path d="M157.043 186.207H88.1385C87.9892 186.207 87.8412 186.178 87.7032 186.121C87.5652 186.065 87.4398 185.982 87.3342 185.877C87.2285 185.773 87.1447 185.649 87.0876 185.512C87.0304 185.375 87.001 185.229 87.001 185.081C87.001 184.933 87.0304 184.787 87.0876 184.65C87.1447 184.513 87.2285 184.389 87.3342 184.285C87.4398 184.18 87.5652 184.097 87.7032 184.04C87.8412 183.984 87.9892 183.955 88.1385 183.955H157.043C157.345 183.955 157.634 184.073 157.847 184.285C158.061 184.496 158.18 184.782 158.18 185.081C158.174 185.378 158.052 185.661 157.84 185.87C157.628 186.08 157.343 186.201 157.043 186.207Z" fill="white"/>
<path d="M157.043 203.326H88.1385C87.9892 203.326 87.8412 203.297 87.7032 203.241C87.5652 203.184 87.4398 203.101 87.3342 202.997C87.2285 202.892 87.1447 202.768 87.0876 202.631C87.0304 202.495 87.001 202.348 87.001 202.2C87.001 202.052 87.0304 201.906 87.0876 201.769C87.1447 201.633 87.2285 201.508 87.3342 201.404C87.4398 201.299 87.5652 201.216 87.7032 201.16C87.8412 201.103 87.9892 201.074 88.1385 201.074H157.043C157.192 201.074 157.34 201.103 157.478 201.16C157.616 201.216 157.742 201.299 157.847 201.404C157.953 201.508 158.037 201.633 158.094 201.769C158.151 201.906 158.18 202.052 158.18 202.2C158.174 202.497 158.052 202.78 157.84 202.99C157.628 203.2 157.343 203.32 157.043 203.326Z" fill="white"/>
<path d="M157.043 227.653H88.1385C87.9892 227.653 87.8412 227.624 87.7032 227.568C87.5652 227.511 87.4398 227.428 87.3342 227.324C87.2285 227.219 87.1447 227.095 87.0876 226.958C87.0304 226.822 87.001 226.675 87.001 226.527C87.001 226.379 87.0304 226.233 87.0876 226.096C87.1447 225.96 87.2285 225.835 87.3342 225.731C87.4398 225.626 87.5652 225.543 87.7032 225.487C87.8412 225.43 87.9892 225.401 88.1385 225.401H157.043C157.192 225.401 157.34 225.43 157.478 225.487C157.616 225.543 157.742 225.626 157.847 225.731C157.953 225.835 158.037 225.96 158.094 226.096C158.151 226.233 158.18 226.379 158.18 226.527C158.174 226.824 158.052 227.107 157.84 227.317C157.628 227.527 157.343 227.647 157.043 227.653Z" fill="white"/>
<path d="M157.043 210.084H88.1385C87.9892 210.084 87.8412 210.049 87.7032 209.981C87.5652 209.913 87.4398 209.813 87.3342 209.688C87.2285 209.562 87.1447 209.414 87.0876 209.25C87.0304 209.086 87.001 208.91 87.001 208.732C87.001 208.555 87.0304 208.379 87.0876 208.215C87.1447 208.051 87.2285 207.902 87.3342 207.777C87.4398 207.651 87.5652 207.552 87.7032 207.484C87.8412 207.416 87.9892 207.381 88.1385 207.381H157.043C157.345 207.381 157.634 207.523 157.847 207.777C158.061 208.03 158.18 208.374 158.18 208.732C158.174 209.088 158.052 209.428 157.84 209.68C157.628 209.932 157.343 210.076 157.043 210.084Z" fill="white"/>
<path opacity="0.1" d="M76.0521 111.945H202.573C204.761 111.946 206.859 112.881 208.406 114.543C209.954 116.206 210.823 118.461 210.824 120.812V154.295C210.823 156.646 209.954 158.901 208.406 160.564C206.859 162.227 204.761 163.161 202.573 163.163H76.0521C73.8641 163.161 71.766 162.227 70.2189 160.564C68.6717 158.901 67.802 156.646 67.8008 154.295V120.812C67.802 118.461 68.6717 116.206 70.2189 114.543C71.766 112.881 73.8641 111.946 76.0521 111.945Z" fill="#23346B"/>
<path d="M73.4433 114.553H199.964C202.152 114.555 204.25 115.489 205.798 117.152C207.345 118.815 208.214 121.07 208.216 123.421V156.904C208.214 159.255 207.345 161.51 205.798 163.173C204.25 164.835 202.152 165.77 199.964 165.771H73.4433C71.2552 165.77 69.1572 164.835 67.61 163.173C66.0628 161.51 65.1931 159.255 65.1919 156.904V123.421C65.1931 121.07 66.0628 118.815 67.61 117.152C69.1572 115.489 71.2552 114.555 73.4433 114.553Z" fill="white"/>
<path d="M78.1568 123.069H99.781C100.916 123.069 102.005 123.52 102.807 124.323C103.61 125.125 104.061 126.214 104.061 127.349V148.973C104.061 149.535 103.95 150.092 103.735 150.611C103.52 151.13 103.205 151.602 102.807 151.999C102.41 152.397 101.938 152.712 101.419 152.927C100.9 153.142 100.343 153.253 99.781 153.253H78.1568C77.5948 153.253 77.0383 153.142 76.5191 152.927C75.9998 152.712 75.528 152.397 75.1306 151.999C74.7332 151.602 74.4179 151.13 74.2028 150.611C73.9878 150.092 73.8771 149.535 73.8771 148.973V127.349C73.8729 126.786 73.9807 126.227 74.1943 125.706C74.4079 125.185 74.723 124.712 75.1212 124.313C75.5195 123.915 75.993 123.6 76.5141 123.386C77.0352 123.173 77.5936 123.065 78.1568 123.069Z" fill="#23346B"/>
<path d="M90.3488 142.489H87.31C86.0312 142.489 84.9907 141.448 84.9907 140.17V138.385C84.9907 138.106 85.2169 137.88 85.4958 137.88H92.163C92.4419 137.88 92.668 138.106 92.668 138.385V140.17C92.668 141.448 91.6276 142.489 90.3488 142.489ZM86.0008 138.89V140.17C86.0008 140.891 86.5881 141.479 87.3099 141.479H90.3487C91.0706 141.479 91.6578 140.891 91.6578 140.17V138.89H86.0008Z" fill="white"/>
<path d="M94.0626 134.657L83.2232 134.638C83.2232 134.638 83.2231 134.936 83.2231 134.657C83.2231 134.378 83.2231 131.087 83.2231 131.087C83.2231 130.804 83.3334 130.538 83.5336 130.338L84.5219 129.35C84.7221 129.149 84.9882 129.039 85.2712 129.039H92.0145C92.2976 129.039 92.5636 129.149 92.7638 129.35L93.7522 130.338C93.9524 130.538 94.0626 130.804 94.0626 131.087V134.657ZM92.0769 134.152H93.0524V131.087C93.0524 131.074 93.0471 131.062 93.0378 131.052L92.0495 130.064C92.0403 130.055 92.0275 130.05 92.0145 130.05H85.2712C85.2581 130.05 85.2453 130.055 85.2361 130.064L84.2479 131.052C84.2386 131.062 84.2333 131.074 84.2333 131.087V134.152H85.2088V131.68C85.2088 131.546 85.262 131.418 85.3567 131.323L85.5067 131.173C85.6015 131.078 85.7299 131.025 85.8639 131.025H91.4218C91.5557 131.025 91.6842 131.078 91.7789 131.173L91.9289 131.323C92.0237 131.418 92.0769 131.546 92.0769 131.68L92.0769 134.152ZM86.219 133.656H91.0667V132.035H86.219V133.656Z" fill="white"/>
<path d="M95.9392 147.589H81.796C80.6331 147.589 79.687 146.643 79.687 145.481V135.807C79.687 134.644 80.6331 133.698 81.796 133.698H95.9392C97.1021 133.698 98.0482 134.644 98.0482 135.807V138.325C98.0482 138.604 97.822 138.83 97.5431 138.83C97.2642 138.83 97.038 138.604 97.038 138.325V135.807C97.038 135.201 96.5451 134.708 95.9392 134.708H81.796C81.19 134.708 80.6972 135.201 80.6972 135.807V145.481C80.6972 146.086 81.1901 146.579 81.796 146.579H95.9392C96.5451 146.579 97.038 146.086 97.038 145.481V141.105C97.038 140.826 97.2641 140.6 97.5431 140.6C97.822 140.6 98.0482 140.826 98.0482 141.105V145.481C98.0482 146.643 97.1021 147.589 95.9392 147.589Z" fill="white"/>
<path d="M97.5431 138.83H80.1921C79.9132 138.83 79.687 138.604 79.687 138.325V135.807C79.687 134.644 80.6331 133.698 81.796 133.698H95.9392C97.1021 133.698 98.0482 134.644 98.0482 135.807V138.325C98.0482 138.604 97.822 138.83 97.5431 138.83ZM80.6972 137.82H97.038V135.807C97.038 135.201 96.5451 134.708 95.9392 134.708H81.796C81.19 134.708 80.6972 135.201 80.6972 135.807V137.82Z" fill="white"/>
<path d="M197.45 134.197H115.909C115.55 134.197 115.206 134.055 114.953 133.801C114.7 133.548 114.557 133.204 114.557 132.845C114.557 132.487 114.7 132.143 114.953 131.89C115.206 131.636 115.55 131.494 115.909 131.494H197.45C197.808 131.494 198.152 131.636 198.405 131.89C198.659 132.143 198.801 132.487 198.801 132.845C198.801 133.204 198.659 133.548 198.405 133.801C198.152 134.055 197.808 134.197 197.45 134.197Z" fill="#DDE0E9"/>
<path d="M143.954 126.15H114.958C114.83 126.15 114.708 125.997 114.618 125.726C114.528 125.454 114.477 125.085 114.477 124.701C114.477 124.316 114.528 123.947 114.618 123.676C114.708 123.404 114.83 123.251 114.958 123.251H143.954C144.082 123.251 144.204 123.404 144.294 123.676C144.384 123.947 144.435 124.316 144.435 124.701C144.435 125.085 144.384 125.454 144.294 125.726C144.204 125.997 144.082 126.15 143.954 126.15Z" fill="#B52528"/>
<path d="M197.45 142.891H115.909C115.55 142.891 115.206 142.749 114.953 142.496C114.7 142.242 114.557 141.898 114.557 141.54C114.557 141.182 114.7 140.838 114.953 140.584C115.206 140.331 115.55 140.188 115.909 140.188H197.45C197.808 140.188 198.152 140.331 198.405 140.584C198.659 140.838 198.801 141.182 198.801 141.54C198.801 141.898 198.659 142.242 198.405 142.496C198.152 142.749 197.808 142.891 197.45 142.891Z" fill="#DDE0E9"/>
<path d="M197.45 151.586H115.909C115.55 151.586 115.206 151.444 114.953 151.191C114.7 150.937 114.557 150.593 114.557 150.235C114.557 149.876 114.7 149.533 114.953 149.279C115.206 149.026 115.55 148.883 115.909 148.883H197.45C197.808 148.883 198.152 149.026 198.405 149.279C198.659 149.533 198.801 149.876 198.801 150.235C198.801 150.593 198.659 150.937 198.405 151.191C198.152 151.444 197.808 151.586 197.45 151.586Z" fill="#DDE0E9"/>
</g>
<defs>
<linearGradient id="paint0_linear" x1="6910.44" y1="488.51" x2="6910.32" y2="542.042" gradientUnits="userSpaceOnUse">
<stop stop-opacity="0"/>
<stop offset="0.85" stop-opacity="0.51"/>
<stop offset="0.99"/>
</linearGradient>
<linearGradient id="paint1_linear" x1="6910.44" y1="488.51" x2="6910.32" y2="542.042" gradientUnits="userSpaceOnUse">
<stop stop-opacity="0"/>
<stop offset="0.85" stop-opacity="0.51"/>
<stop offset="0.99"/>
</linearGradient>
</defs>
</svg>
