<svg width="81" height="74" viewBox="0 0 81 74" fill="none" xmlns="http://www.w3.org/2000/svg">
<path opacity="0.08" fill-rule="evenodd" clip-rule="evenodd" d="M41.7145 0.0473768C50.6661 0.965656 50.3128 14.01 57.3736 19.0139C63.9008 23.6397 76.9251 20.2391 79.9806 27.1662C82.9756 33.9564 73.9622 40.2624 69.4219 46.3288C66.1201 50.7405 61.2664 53.5097 57.3052 57.4639C51.7931 62.9664 49.9628 73.5521 41.7145 73.9878C33.6221 74.4153 31.2289 63.5106 24.725 59.1849C18.3448 54.9414 8.54583 55.1721 4.34732 49.1346C-0.175137 42.6313 -1.63087 33.6513 2.20843 26.806C5.96178 20.114 16.5322 20.03 23.2069 15.509C30.1058 10.8361 33.1153 -0.834752 41.7145 0.0473768Z" fill="#23346B"/>
<path d="M15 28.5H22.5L24 13H61V59H15V28.5Z" fill="white"/>
<path d="M56.9089 61H22.5647C21.7663 61 21.1191 60.3527 21.1191 59.5544V17.0321C21.1191 13.7061 23.8252 11 27.1512 11H56.9091C60.2353 11 62.9413 13.7061 62.9413 17.0321V54.9681C62.9411 58.2941 60.235 61 56.9089 61ZM24.0104 58.1088H56.9091C58.6409 58.1088 60.0501 56.6999 60.0501 54.9679V17.0321C60.0501 15.3003 58.641 13.8912 56.9091 13.8912H27.1512C25.4194 13.8912 24.0104 15.3001 24.0104 17.0321V58.1088Z" fill="#23346B"/>
<path d="M23.376 60.9999H21.3241C16.1829 60.9999 12 56.8171 12 51.6758V29.7045C12 27.8235 13.5303 26.2933 15.4113 26.2933H18.0826C18.881 26.2933 19.5282 26.9406 19.5282 27.7389C19.5282 28.5371 18.881 29.1844 18.0826 29.1844H15.4113C15.1244 29.1844 14.8911 29.4177 14.8911 29.7044V51.6757C14.8911 55.2228 17.7769 58.1086 21.324 58.1086H23.3759C24.1744 58.1086 24.8215 58.7559 24.8215 59.5542C24.8216 60.3525 24.1744 60.9999 23.376 60.9999Z" fill="#23346B"/>
<path d="M31.3085 34.1893H52.7516C53.5281 34.1893 54.1577 33.5597 54.1577 32.7831V23.8935C54.1577 23.1169 53.5281 22.4873 52.7516 22.4873H31.3085C30.5319 22.4873 29.9023 23.1169 29.9023 23.8935V32.7832C29.9023 33.5598 30.5319 34.1893 31.3085 34.1893Z" fill="white"/>
<path d="M52.7518 35.6347H31.3087C29.7363 35.6347 28.457 34.3553 28.457 32.783V23.8935C28.457 22.321 29.7362 21.0416 31.3087 21.0416H52.7518C54.3242 21.0416 55.6035 22.321 55.6035 23.8935V32.7831C55.6035 34.3555 54.3243 35.6347 52.7518 35.6347ZM31.3482 32.7435H52.7123V23.9328H31.3482V32.7435Z" fill="#23346B"/>
<path d="M54.013 49.8018C53.2146 49.8018 52.5675 49.1544 52.5675 48.3562V43.4093H45.2485V48.3562C45.2485 49.1544 44.6013 49.8018 43.803 49.8018C43.0045 49.8018 42.3574 49.1544 42.3574 48.3562V43.0157C42.3574 41.6386 43.4777 40.5183 44.8549 40.5183H52.9613C54.3384 40.5183 55.4587 41.6386 55.4587 43.0157V48.3562C55.4586 49.1545 54.8115 49.8018 54.013 49.8018Z" fill="#23346B"/>
<path d="M38.3439 49.8018H30.0471C29.2487 49.8018 28.6016 49.1544 28.6016 48.3562C28.6016 47.558 29.2488 46.9106 30.0471 46.9106H38.3439C39.1423 46.9106 39.7894 47.558 39.7894 48.3562C39.7895 49.1544 39.1423 49.8018 38.3439 49.8018Z" fill="#23346B"/>
<path d="M38.3439 44.0194H30.0471C29.2487 44.0194 28.6016 43.3721 28.6016 42.5739C28.6016 41.7756 29.2488 41.1283 30.0471 41.1283H38.3439C39.1423 41.1283 39.7894 41.7756 39.7894 42.5739C39.7894 43.3721 39.1423 44.0194 38.3439 44.0194Z" fill="#23346B"/>
</svg>
