<svg width="81" height="74" viewBox="0 0 81 74" fill="none" xmlns="http://www.w3.org/2000/svg">
<path opacity="0.08" fill-rule="evenodd" clip-rule="evenodd" d="M41.7145 0.0473768C50.6661 0.965656 50.3128 14.01 57.3736 19.0139C63.9008 23.6397 76.9251 20.2391 79.9806 27.1662C82.9756 33.9564 73.9622 40.2624 69.4219 46.3288C66.1201 50.7405 61.2664 53.5097 57.3052 57.4639C51.7931 62.9664 49.9628 73.5521 41.7145 73.9878C33.6221 74.4153 31.2289 63.5106 24.725 59.1849C18.3448 54.9414 8.54583 55.1721 4.34732 49.1346C-0.175137 42.6313 -1.63087 33.6513 2.20843 26.806C5.96178 20.114 16.5322 20.03 23.2069 15.509C30.1058 10.8361 33.1153 -0.834752 41.7145 0.0473768Z" fill="#23346B"/>
<path d="M44.3123 43.1777H35.8334C33.0378 43.1777 30.7715 40.9114 30.7715 38.1157V33.1357H49.3745V38.1157C49.3743 40.9114 47.1079 43.1777 44.3123 43.1777Z" fill="white"/>
<path d="M64.2827 35.0498V49.7816C64.2827 54.9637 62.2783 59.1648 59.8059 59.1648H20.3294C17.8569 59.1648 15.8525 54.9637 15.8525 49.7816V35.0498H64.2827Z" fill="white"/>
<path d="M44.3086 44.5869H35.8297C32.2615 44.5869 29.3584 41.6838 29.3584 38.1155V33.1357C29.3584 32.3576 29.9894 31.7265 30.7677 31.7265H49.3706C50.149 31.7265 50.7799 32.3576 50.7799 33.1357V38.1157C50.7799 41.684 47.8768 44.5869 44.3086 44.5869ZM32.1769 34.545V38.1156C32.1769 40.1297 33.8155 41.7683 35.8295 41.7683H44.3084C46.3225 41.7683 47.9611 40.1297 47.9611 38.1156V34.545H32.1769Z" fill="#23346B"/>
<path d="M53.3252 15.4134L50.5676 12.6558C50.2774 12.3656 49.8837 12.2025 49.4732 12.2025H30.6578C30.2475 12.2025 29.8536 12.3656 29.5634 12.6558L26.8058 15.4134C26.5156 15.7036 26.3525 16.0974 26.3525 16.5078V26.469H53.7785V16.5078C53.7784 16.0974 53.6154 15.7036 53.3252 15.4134ZM48.238 25.0842H31.8931V18.1617L32.3117 17.743H47.8193L48.238 18.1617V25.0843V25.0842Z" fill="white"/>
<path d="M53.7814 27.8782H26.3556C25.5772 27.8782 24.9463 27.2471 24.9463 26.4689V16.5077C24.9463 15.7179 25.254 14.9752 25.8124 14.4167L28.57 11.6591C29.1288 11.1005 29.8713 10.793 30.6609 10.793H49.4763C50.266 10.793 51.0084 11.1005 51.5669 11.6589L54.3249 14.4166C54.8834 14.9751 55.191 15.7177 55.191 16.5076V26.4687C55.1908 27.2471 54.5598 27.8782 53.7814 27.8782ZM49.6503 25.0595H52.3721V16.5077C52.3721 16.4712 52.3573 16.4355 52.3315 16.4099L49.5739 13.6523C49.5483 13.6267 49.5126 13.6119 49.4761 13.6119H30.6608C30.6243 13.6119 30.5887 13.6267 30.5628 13.6525L27.8055 16.41C27.7797 16.4358 27.7648 16.4715 27.7648 16.5078V25.0595H30.4866V18.1617C30.4866 17.788 30.6351 17.4296 30.8994 17.1652L31.3181 16.7465C31.5823 16.4823 31.9407 16.3338 32.3146 16.3338H47.8223C48.196 16.3338 48.5546 16.4823 48.8188 16.7465L49.2375 17.1652C49.5018 17.4296 49.6502 17.788 49.6502 18.1617V25.0595H49.6503ZM33.3053 23.6748H46.8317V19.1523H33.3053V23.6748Z" fill="#23346B"/>
<path d="M59.8005 60.9074H20.3376C17.093 60.9074 14.4531 58.2677 14.4531 55.0229V28.0311C14.4531 24.7864 17.093 22.1466 20.3376 22.1466H59.8005C63.0452 22.1466 65.685 24.7863 65.685 28.0311V35.0574C65.685 35.8356 65.054 36.4666 64.2757 36.4666C63.4974 36.4666 62.8664 35.8356 62.8664 35.0574V28.0311C62.8664 26.3406 61.4911 24.9653 59.8006 24.9653H20.3376C18.6469 24.9653 17.2718 26.3406 17.2718 28.0311V55.023C17.2718 56.7134 18.6471 58.0888 20.3376 58.0888H59.8005C61.4912 58.0888 62.8663 56.7134 62.8663 55.023V42.8143C62.8663 42.0361 63.4973 41.405 64.2756 41.405C65.0539 41.405 65.685 42.036 65.685 42.8143V55.023C65.685 58.2677 63.0453 60.9074 59.8005 60.9074Z" fill="#23346B"/>
<path d="M64.2794 35.0573V28.0311C64.2794 25.5596 62.2758 23.5559 59.8042 23.5559H20.3415C17.8699 23.5559 15.8662 25.5596 15.8662 28.0311V35.0573H64.2794Z" fill="white"/>
<path d="M64.2757 36.4665H15.8624C15.0841 36.4665 14.4531 35.8354 14.4531 35.0572V28.0311C14.4531 24.7863 17.093 22.1466 20.3376 22.1466H59.8005C63.0452 22.1466 65.685 24.7862 65.685 28.0311V35.0572C65.685 35.8356 65.054 36.4665 64.2757 36.4665ZM17.2718 33.6479H62.8663V28.0311C62.8663 26.3406 61.491 24.9653 59.8005 24.9653H20.3376C18.6469 24.9653 17.2718 26.3406 17.2718 28.0311V33.6479Z" fill="#23346B"/>
</svg>
