<svg width="73" height="62" viewBox="0 0 73 62" fill="none" xmlns="http://www.w3.org/2000/svg">
<path opacity="0.08" fill-rule="evenodd" clip-rule="evenodd" d="M34.6249 1.8888C41.9483 3.76102 44.8496 10.9665 51.118 14.6692C57.5737 18.4825 68.2137 17.6749 71.5481 23.6988C74.862 29.686 69.7919 36.5536 66.5637 42.574C63.6642 47.9815 59.7455 52.8903 54.036 56.358C48.3457 59.814 41.6263 62.2929 34.6249 61.9721C27.8255 61.6605 22.4051 57.7669 16.6879 54.6466C10.588 51.3174 2.17708 49.1494 0.287527 43.2315C-1.60006 37.3197 6.37483 32.4565 7.67968 26.4338C9.32541 18.8377 2.59895 9.52094 8.81855 3.85538C14.8345 -1.62467 26.1517 -0.277382 34.6249 1.8888Z" fill="#23346B"/>
<rect x="21.2549" y="10.6286" width="28.3429" height="42.5143" fill="white"/>
<path d="M16.828 37.2H54.9137L58.4566 40.7429V53.1429H12.3994V40.7429L16.828 37.2Z" fill="white"/>
<path d="M32.9539 16.2552H25.9268V23.2824H32.9539V16.2552Z" fill="white"/>
<path d="M32.951 24.6605H25.9238C25.1627 24.6605 24.5459 24.0437 24.5459 23.2826V16.2555C24.5459 15.4944 25.1627 14.8776 25.9238 14.8776H32.951C33.712 14.8776 34.3289 15.4944 34.3289 16.2555V23.2826C34.3289 24.0436 33.712 24.6605 32.951 24.6605ZM27.3017 21.9047H31.5731V17.6333H27.3017V21.9047Z" fill="#23346B"/>
<path d="M44.9305 16.2552H37.9033V23.2824H44.9305V16.2552Z" fill="white"/>
<path d="M44.9275 24.6605H37.9004C37.1393 24.6605 36.5225 24.0437 36.5225 23.2826V16.2555C36.5225 15.4944 37.1393 14.8776 37.9004 14.8776H44.9275C45.6886 14.8776 46.3054 15.4944 46.3054 16.2555V23.2826C46.3054 24.0436 45.6885 24.6605 44.9275 24.6605ZM39.2782 21.9047H43.5496V17.6333H39.2782V21.9047Z" fill="#23346B"/>
<path d="M32.9539 28.2771H25.9268V35.3043H32.9539V28.2771Z" fill="white"/>
<path d="M32.951 36.6825H25.9238C25.1627 36.6825 24.5459 36.0656 24.5459 35.3046V28.2774C24.5459 27.5163 25.1627 26.8995 25.9238 26.8995H32.951C33.712 26.8995 34.3289 27.5163 34.3289 28.2774V35.3046C34.3289 36.0656 33.712 36.6825 32.951 36.6825ZM27.3017 33.9267H31.5731V29.6553H27.3017V33.9267Z" fill="#23346B"/>
<path d="M44.9305 28.2771H37.9033V35.3043H44.9305V28.2771Z" fill="white"/>
<path d="M44.9275 36.6825H37.9004C37.1393 36.6825 36.5225 36.0656 36.5225 35.3046V28.2774C36.5225 27.5163 37.1393 26.8995 37.9004 26.8995H44.9275C45.6886 26.8995 46.3054 27.5163 46.3054 28.2774V35.3046C46.3054 36.0656 45.6885 36.6825 44.9275 36.6825ZM39.2782 33.9267H43.5496V29.6553H39.2782V33.9267Z" fill="#23346B"/>
<path d="M43.6937 4.92075H27.1592V10.502H43.6937V4.92075Z" fill="white"/>
<path d="M59.84 40.4817L55.8459 36.3455C55.3173 35.7979 54.445 35.7827 53.8976 36.3114C53.3501 36.84 53.335 37.7123 53.8636 38.2597L57.471 41.9955V51.7022H51.2728V10.5019C51.2728 9.7409 50.6559 9.12405 49.8949 9.12405H45.0718V4.92077C45.0718 4.15973 44.455 3.54288 43.694 3.54288H27.1595C26.3984 3.54288 25.7816 4.15973 25.7816 4.92077V9.12415H20.9587C20.1977 9.12415 19.5809 9.741 19.5809 10.502V51.7022H13.3826V41.9955L16.9901 38.2595C17.5186 37.7121 17.5035 36.8399 16.956 36.3112C16.4087 35.7827 15.5364 35.798 15.0077 36.3453L11.0137 40.4816C10.7657 40.7385 10.627 41.0816 10.627 41.4387V53.0799C10.627 53.841 11.2438 54.4578 12.0048 54.4578H58.8491C59.6101 54.4578 60.227 53.841 60.227 53.0799V41.4388C60.2269 41.0816 60.0882 40.7385 59.84 40.4817ZM28.5374 6.29866H42.3162V9.12415H28.5374V6.29866ZM22.3366 11.8798H27.1597H43.6941H48.5172V51.7021H31.2961V41.6772H39.5576V47.8186C39.5576 48.5796 40.1744 49.1965 40.9355 49.1965C41.6965 49.1965 42.3134 48.5796 42.3134 47.8186V40.2993C42.3134 39.5383 41.6965 38.9214 40.9355 38.9214H29.9182C29.1572 38.9214 28.5403 39.5383 28.5403 40.2993V51.702H22.3365V11.8798H22.3366Z" fill="#23346B"/>
</svg>
