<svg width="323" height="71" viewBox="0 0 323 71" fill="none" xmlns="http://www.w3.org/2000/svg">
<path d="M35.4992 47.9058C28.6333 47.9058 23.0938 42.3662 23.0938 35.5003C23.0938 28.6344 28.6333 23.0948 35.4992 23.0948C42.3652 23.0948 47.9047 28.6344 47.9047 35.5003H41.585C41.585 32.1454 38.8542 29.4146 35.4992 29.4146C32.1443 29.4146 29.4135 32.1454 29.4135 35.5003C29.4135 38.8553 32.1443 41.586 35.4992 41.586V47.9058Z" fill="#B52528"/>
<path d="M20.5974 35.5009H14.5117C14.5117 23.8756 23.9524 14.5129 35.4996 14.5129V20.5987C27.3073 20.5987 20.5974 27.2305 20.5974 35.5009Z" fill="#23346B"/>
<path d="M35.5 65.2266V56.4882C47.1253 56.4882 56.4879 47.0475 56.4879 35.5002H65.2264C65.2264 51.8849 51.8846 65.2266 35.5 65.2266Z" fill="#B52528"/>
<path d="M25.748 58.2824C20.2084 55.8637 15.6831 51.5725 13.1084 46.111L22.0029 41.8978C23.5633 45.1747 26.2941 47.7494 29.6491 49.2319L25.748 58.2824Z" fill="#23346B"/>
<path d="M25.748 58.2824C20.2084 55.8637 15.6831 51.5725 13.1084 46.111L22.0029 41.8978C23.5633 45.1747 26.2941 47.7494 29.6491 49.2319L25.748 58.2824Z" fill="#23346B"/>
<path d="M67.567 35.4994H56.4879C56.4879 23.8741 47.0473 14.5115 35.5 14.5115V3.43237C53.133 3.43237 67.567 17.7884 67.567 35.4994Z" fill="#23346B"/>
<path d="M35.4987 65.3046C19.0361 65.3046 5.69434 51.8849 5.69434 35.5002H8.73719C8.73719 50.2464 20.7526 62.2618 35.4987 62.2618V65.3046Z" fill="#B52528"/>
<path d="M5.85088 35.5002H1.6377C1.6377 16.853 16.852 1.6387 35.4992 1.6387V5.85189C19.1146 5.85189 5.85088 19.1156 5.85088 35.5002Z" fill="#B52528"/>
<path d="M48.9987 29.1018C47.4383 25.8249 44.7075 23.2502 41.3525 21.7677L45.2536 12.7172C50.7932 15.1359 55.3185 19.4271 57.8932 24.8886L48.9987 29.1018Z" fill="#B52528"/>
<path d="M42.3667 50.7934L38.3096 41.7429C39.87 41.0407 41.1184 39.7923 41.8206 38.3099L50.7931 42.367C49.0766 46.1901 46.1118 49.155 42.3667 50.7934Z" fill="#23346B"/>
<path d="M84.3138 46.6014H78.8096V23.7319H94.3919C100.129 23.7319 102.454 25.9801 102.454 31.7168C102.454 37.5311 100.129 39.8568 94.4694 39.8568H84.3138V46.6014ZM84.3138 35.2829H93.4616C96.2525 35.2829 97.0277 34.1976 97.0277 31.7168C97.0277 29.4686 96.33 28.2283 93.4616 28.2283H84.3138V35.2829Z" fill="#23346B"/>
<path d="M123.696 46.5995H113.618C107.494 46.5995 105.168 44.3513 105.168 38.7696V31.5599C105.168 25.2804 107.339 23.4199 113.618 23.4199H123.696C129.355 23.4199 131.991 25.1254 131.991 31.5599V38.7696C131.991 44.5064 130.053 46.5995 123.696 46.5995ZM114.936 42.1031H122.223C125.712 42.1031 126.487 41.3279 126.487 38.2269V32.1025C126.487 28.769 125.402 27.9938 122.068 27.9938H115.014C111.602 27.9938 110.595 28.8465 110.595 32.1025V38.2269C110.672 41.2504 111.602 42.1031 114.936 42.1031Z" fill="#23346B"/>
<path d="M161.993 38.6921C161.993 44.8165 160.443 46.5995 153.698 46.5995H143.543C137.186 46.5995 135.17 44.6614 135.17 38.537V32.025C135.17 25.358 137.341 23.4199 144.008 23.4199H153.078C158.505 23.4199 161.838 24.9703 161.838 31.4048H156.334C156.334 29.0016 155.094 27.9938 151.915 27.9938H144.86C141.217 27.9938 140.442 28.614 140.442 32.1801V37.8393C140.442 41.3279 141.759 42.0256 144.86 42.0256H151.915C155.171 42.0256 156.334 41.4054 156.334 38.6921H161.993Z" fill="#23346B"/>
<path d="M171.142 42.1032H171.917L185.871 23.8076H195.096V46.6772H189.592V28.304H188.817L175.095 46.5996H165.715V23.7301H171.219V42.1032H171.142Z" fill="#B52528"/>
<path d="M204.32 32.4903H218.429V23.7301H223.933V46.5996H218.429V37.0642H204.32V46.5996H198.815V23.7301H204.32V32.4903Z" fill="#B52528"/>
<path d="M248.355 23.7301V25.5131H255.41C261.069 25.5131 263.782 27.1411 263.782 33.5756V36.6766C263.782 42.4133 261.844 44.584 255.41 44.584H248.355V46.5996H242.851V44.584H235.796C229.439 44.584 227.501 42.4909 227.501 36.7541V33.6531C227.501 27.2186 230.137 25.5131 235.796 25.5131H242.851V23.7301H248.355ZM237.347 30.087C234.091 30.087 232.928 30.8623 232.928 34.1958V36.2114C232.928 39.3124 233.703 40.0876 237.191 40.0876H242.773V30.087H237.347ZM248.355 40.0101H254.014C257.503 40.0101 258.278 39.2349 258.278 36.1339V34.1183C258.278 30.7847 257.193 30.0095 253.937 30.0095H248.432V40.0101H248.355Z" fill="#B52528"/>
<path d="M272.775 46.5996H267.271V23.7301H282.853C288.59 23.7301 290.915 25.9783 290.915 31.715C290.915 37.5293 288.59 39.855 282.93 39.855H272.775V46.5996ZM272.775 35.2811H281.923C284.713 35.2811 285.489 34.1958 285.489 31.715C285.489 29.4668 284.791 28.2265 281.923 28.2265H272.775V35.2811Z" fill="#B52528"/>
<path d="M290.373 46.5996L302.467 23.7301H310.607L322.623 46.5996H316.189L313.243 40.8629H299.753L296.808 46.5996H290.373ZM311.072 36.5215L306.731 27.9939H306.498L302.002 36.5215H311.072Z" fill="#B52528"/>
</svg>
