<svg width="33" height="33" viewBox="0 0 33 33" fill="none" xmlns="http://www.w3.org/2000/svg">
<path d="M15.1219 1.3793C14.7576 1.74362 14.5529 2.23776 14.5529 2.753C14.5529 3.26823 14.7576 3.76237 15.1219 4.12669L25.5483 14.5531L2.75864 14.5393C2.2413 14.5393 1.74514 14.7449 1.37932 15.1107C1.0135 15.4765 0.807987 15.9726 0.807987 16.49C0.807987 17.0073 1.0135 17.5035 1.37932 17.8693C1.74514 18.2351 2.2413 18.4406 2.75864 18.4406L25.5483 18.4269L15.1219 28.8533C14.7576 29.2176 14.5529 29.7117 14.5529 30.227C14.5529 30.7422 14.7576 31.2364 15.1219 31.6007C15.4863 31.965 15.9804 32.1697 16.4956 32.1697C17.0109 32.1697 17.505 31.965 17.8693 31.6007L31.6063 17.8637C31.7837 17.682 31.9237 17.4673 32.0184 17.2318C32.2147 16.7567 32.2147 16.2233 32.0184 15.7482C31.9237 15.5127 31.7837 15.298 31.6063 15.1163L17.8693 1.3793C17.505 1.01497 17.0109 0.810289 16.4956 0.81029C15.9804 0.810289 15.4863 1.01497 15.1219 1.3793Z" fill="white"/>
</svg>
