<svg width="73" height="65" viewBox="0 0 73 65" fill="none" xmlns="http://www.w3.org/2000/svg">
<path opacity="0.08" fill-rule="evenodd" clip-rule="evenodd" d="M34.802 1.9712C42.1629 3.92508 45.079 11.4449 51.3795 15.3091C57.8682 19.2887 68.5626 18.4459 71.914 24.7326C75.2449 30.9809 70.1488 38.1482 66.9041 44.4312C63.9898 50.0745 60.051 55.1975 54.3123 58.8164C48.5929 62.4232 41.8391 65.0102 34.802 64.6754C27.9678 64.3502 22.5197 60.2868 16.7732 57.0303C10.6422 53.556 2.18821 51.2934 0.288998 45.1173C-1.60824 38.9477 6.40744 33.8723 7.71895 27.5869C9.3731 19.6594 2.61224 9.93626 8.86365 4.02356C14.9104 -1.69554 26.2854 -0.289482 34.802 1.9712Z" fill="#23346B"/>
<path d="M55.02 35.2654C55.02 39.4777 53.7709 43.5955 51.4306 47.0979C49.0904 50.6004 45.7641 53.3302 41.8724 54.9422C37.9806 56.5542 33.6983 56.976 29.5669 56.1542C25.4354 55.3324 21.6405 53.304 18.6619 50.3254C15.6833 47.3468 13.6549 43.5518 12.8331 39.4204C12.0113 35.289 12.433 31.0066 14.045 27.1149C15.6571 23.2232 18.3869 19.8969 21.8893 17.5566C25.3918 15.2164 29.5096 13.9673 33.7219 13.9673V35.2654H55.02Z" fill="white"/>
<path d="M40.8201 8.64269C43.617 8.64269 46.3865 9.19358 48.9705 10.2639C51.5545 11.3342 53.9024 12.903 55.8801 14.8808C57.8578 16.8585 59.4266 19.2064 60.4969 21.7904C61.5673 24.3744 62.1182 27.1439 62.1182 29.9408L40.8201 29.9408L40.8201 8.64269Z" fill="white"/>
<path d="M56.4893 35.5676H35.1699L48.9864 51.7895C53.5765 47.8841 56.4893 42.0664 56.4893 35.5676Z" fill="white"/>
<path d="M56.4893 35.5676H35.1699L48.9864 51.7895C53.5765 47.8841 56.4893 42.0664 56.4893 35.5676Z" fill="white"/>
<path d="M57.9696 35.5673C57.9696 34.7494 57.3064 34.0862 56.4884 34.0862H36.6501V14.2769C36.6501 13.8838 36.4936 13.5067 36.2155 13.2288C35.9378 12.9516 35.5612 12.7957 35.1689 12.7957C35.1683 12.7957 35.1676 12.7957 35.1668 12.7957C22.6274 12.8124 12.4258 23.0277 12.4258 35.5673C12.4258 48.1236 22.6412 58.3392 35.1977 58.3392C40.5982 58.3392 45.8356 56.4138 49.9452 52.9174C49.9459 52.9168 49.9466 52.9162 49.9472 52.9156C55.0455 48.577 57.9696 42.254 57.9696 35.5673C57.9696 35.5674 57.9696 35.5674 57.9696 35.5673ZM15.388 35.5673C15.388 25.1576 23.4693 16.5894 33.6878 15.8151V34.0862H23.3505C22.5326 34.0862 21.8694 34.7494 21.8694 35.5673C21.8694 36.3853 22.5326 37.0485 23.3505 37.0485H34.4847L46.8607 51.579C43.487 54.0374 39.3992 55.3769 35.1977 55.3769C24.2745 55.3771 15.388 46.4905 15.388 35.5673ZM49.1177 49.6602L38.3762 37.0488H54.9521C54.5958 41.8211 52.5268 46.2934 49.1177 49.6602Z" fill="#23346B"/>
<path d="M61.9127 20.3428L61.7985 20.0944C60.6786 17.6785 59.148 15.4905 57.296 13.6213L57.035 13.3628C55.148 11.5179 52.9435 9.9966 50.5107 8.89196L50.2748 8.78801C47.4733 7.55399 44.3787 6.86716 41.1263 6.86716L41.0753 6.86776C40.266 6.87992 39.6162 7.53931 39.6162 8.34879V29.6391C39.6162 30.457 40.2794 31.1202 41.0973 31.1202H51.7008C51.7037 31.1202 51.7068 31.1206 51.7099 31.1206C51.7602 31.1206 51.8104 31.1177 51.8606 31.1125C51.8638 31.1122 51.8666 31.1115 51.8697 31.1112C51.9147 31.1063 51.9595 31.0997 52.004 31.0908C52.0163 31.0883 52.0281 31.0848 52.0404 31.082C52.0754 31.0739 52.11 31.0657 52.1443 31.0553C52.1581 31.051 52.1713 31.0457 52.1848 31.0412C52.217 31.0302 52.2492 31.0192 52.2809 31.0059C52.2933 31.0007 52.305 30.9945 52.3173 30.989C52.3491 30.9746 52.3808 30.9601 52.4118 30.9433C52.4223 30.9377 52.4324 30.9311 52.4427 30.9252C52.474 30.9073 52.5053 30.8892 52.5354 30.8688C52.5451 30.8624 52.5538 30.855 52.5633 30.8483C52.593 30.8273 52.6228 30.8061 52.6512 30.7826C52.66 30.7755 52.6678 30.7672 52.6764 30.76C52.7036 30.7365 52.7311 30.713 52.7571 30.687L59.9575 23.4879C60.5918 25.4253 60.9357 27.4928 60.9357 29.6393C60.9357 30.4572 61.5989 31.1204 62.4169 31.1204C63.2348 31.1204 63.8983 30.4569 63.8983 29.6391C63.8983 26.3295 63.1878 23.1829 61.9127 20.3428ZM42.5787 19.4987L50.0969 11.9805C51.4976 12.695 52.8029 13.5709 53.9874 14.5844L42.5788 25.994V19.4987H42.5787ZM47.1284 10.7595L42.5787 15.3093V9.882C44.153 9.9968 45.6767 10.297 47.1284 10.7595ZM51.0971 28.1579H44.604L56.0886 16.6722C57.1093 17.8482 57.9943 19.1448 58.7181 20.5382L51.0971 28.1579Z" fill="#23346B"/>
</svg>
