<svg width="73" height="62" viewBox="0 0 73 62" fill="none" xmlns="http://www.w3.org/2000/svg">
<path opacity="0.08" fill-rule="evenodd" clip-rule="evenodd" d="M34.625 1.8888C41.9483 3.76102 44.8496 10.9665 51.118 14.6692C57.5737 18.4825 68.2137 17.6749 71.5481 23.6988C74.862 29.686 69.7919 36.5536 66.5637 42.574C63.6642 47.9815 59.7455 52.8903 54.036 56.358C48.3457 59.814 41.6263 62.2929 34.625 61.9721C27.8255 61.6605 22.4051 57.7669 16.6879 54.6466C10.588 51.3174 2.17708 49.1494 0.287527 43.2315C-1.60006 37.3197 6.37484 32.4565 7.67968 26.4338C9.32541 18.8377 2.59895 9.52094 8.81855 3.85538C14.8345 -1.62467 26.1517 -0.277382 34.625 1.8888Z" fill="#23346B"/>
<path d="M24.1673 6.61586C24.4393 6.24909 24.7437 5.90758 25.077 5.59547C26.4853 4.27666 28.3425 3.54285 30.2719 3.54285H34.8749C39.8455 3.54285 43.8749 7.57229 43.8749 12.5428V17.7429C43.8749 22.7134 39.8455 26.7428 34.8749 26.7428H31.332C26.3615 26.7428 22.332 22.7134 22.332 17.7428V12.0492C22.332 10.1279 22.9499 8.25752 24.0943 6.71425L24.1673 6.61586Z" fill="white"/>
<path d="M56.8763 49.0404C56.7694 49.1854 56.6497 49.3204 56.5186 49.4439L55.0965 50.7836C54.5399 51.3079 53.8041 51.5999 53.0395 51.5999L41.9014 51.5999C40.2445 51.5999 38.9014 50.2568 38.9014 48.5999L38.9014 33.0571C38.9014 31.4002 40.2445 30.0571 41.9014 30.0571L55.7871 30.0571C57.444 30.0571 58.7871 31.4002 58.7871 33.0571L58.7871 45.4621C58.7871 46.1027 58.582 46.7266 58.2019 47.2422L56.8763 49.0404Z" fill="white"/>
<path d="M41.2783 49.3921C39.7861 48.5791 38.8576 47.0157 38.8576 45.3163V32.2006C39.6953 32.5539 40.6158 32.7494 41.582 32.7494C43.5478 32.7494 45.3237 31.9404 46.597 30.6376C44.757 28.1079 41.7754 26.4619 38.4079 26.4619H35.8936H29.8255H27.3113C21.7212 26.4619 17.1895 30.9935 17.1895 36.5837V53.4249H48.5294V53.3436L41.2783 49.3921Z" fill="white"/>
<path d="M58.5017 30.7117C57.6791 30.7117 57.0124 31.3785 57.0124 32.201V45.3167C57.0124 46.4714 56.3824 47.532 55.3683 48.0847L48.6805 51.7289L41.9927 48.0847C40.9786 47.5322 40.3486 46.4715 40.3486 45.3167V34.1504C40.7551 34.2095 41.1672 34.2392 41.5838 34.2392C41.7101 34.2392 41.8359 34.2353 41.9613 34.2298C41.9942 34.2283 42.0273 34.227 42.0601 34.2252C42.1732 34.2189 42.286 34.2109 42.3981 34.2002C42.4517 34.1952 42.5048 34.1884 42.5582 34.1824C42.6133 34.176 42.6684 34.1693 42.7233 34.1618C44.237 33.9607 45.6526 33.3596 46.8503 32.4097C46.8868 32.381 46.9232 32.3522 46.9593 32.3227C47.0024 32.2874 47.0452 32.252 47.0876 32.2157C47.1734 32.1429 47.2579 32.0686 47.3408 31.9924C47.3546 31.9798 47.3681 31.9666 47.3817 31.9539C47.4768 31.8653 47.5702 31.7746 47.6613 31.6817C47.6622 31.6808 47.6629 31.6801 47.6638 31.6792C47.6639 31.6791 47.6642 31.6788 47.6644 31.6786C48.0399 31.2946 48.3814 30.8738 48.6816 30.4191C49.4009 31.5035 50.3681 32.4246 51.4931 33.0821C52.2031 33.4972 53.1154 33.2579 53.5303 32.5478C53.9453 31.8377 53.706 30.9254 52.9959 30.5106C51.9949 29.9256 51.1863 29.0205 50.7192 27.9619C50.4811 27.4222 49.9467 27.074 49.3567 27.074H48.0037C47.4138 27.074 46.8794 27.4221 46.6413 27.9619C46.5966 28.0634 46.5469 28.1615 46.4968 28.2592C45.2056 27.0081 43.6423 26.0754 41.9428 25.5295C43.6238 23.9293 44.6746 21.6728 44.6746 19.1742V12.3223C44.6746 11.4998 44.0079 10.833 43.1853 10.833C42.3628 10.833 41.696 11.4998 41.696 12.3223V19.1739C41.696 22.3475 39.134 24.9326 35.9698 24.9728H29.7528C26.5886 24.9325 24.0265 22.3474 24.0265 19.1739V12.3223C24.0265 9.12374 26.6288 6.52145 29.8274 6.52145H35.8955C36.718 6.52145 37.3847 5.85473 37.3847 5.03218C37.3847 4.20963 36.718 3.54291 35.8955 3.54291H29.8274C24.9864 3.54291 21.048 7.48136 21.048 12.3223V19.1739C21.048 21.6705 22.0974 23.9256 23.7761 25.5256C19.0984 27.0253 15.7021 31.4146 15.7021 36.5838V53.4251C15.7021 54.2476 16.3689 54.9143 17.1914 54.9143H48.5314C48.5593 54.9143 48.5864 54.9116 48.614 54.9101C48.6362 54.9111 48.6583 54.9143 48.6805 54.9143C48.9256 54.9143 49.1709 54.8538 49.3931 54.7328L56.7936 50.7003C58.7658 49.6256 59.9909 47.5628 59.9909 45.3169V32.2012C59.991 31.3785 59.3242 30.7117 58.5017 30.7117ZM18.6809 51.9358V36.5839C18.6809 31.8239 22.5534 27.9515 27.3133 27.9515H29.753C29.7778 27.9516 29.8025 27.9534 29.8274 27.9534H31.3721V42.4184C31.3721 43.241 32.0388 43.9077 32.8613 43.9077C33.6839 43.9077 34.3506 43.241 34.3506 42.4184V27.9534H35.8953C35.9203 27.9534 35.9448 27.9518 35.9697 27.9515H38.4094C40.6858 27.9515 42.8661 28.8635 44.4699 30.4416C43.845 30.825 43.145 31.0873 42.405 31.1987C42.4001 31.1994 42.3954 31.2005 42.3903 31.2012C42.275 31.2181 42.1585 31.2301 42.0416 31.2397C42.0226 31.2412 42.0041 31.2442 41.9851 31.2455C41.8609 31.2546 41.7358 31.2588 41.6101 31.2594C41.6011 31.2594 41.5922 31.2603 41.5833 31.2603C40.8386 31.2603 40.1168 31.1151 39.4378 30.8286C38.9781 30.6346 38.4516 30.6838 38.0355 30.9599C37.6197 31.2358 37.3697 31.7016 37.3697 32.2009V45.3166C37.3697 46.0185 37.4893 46.7024 37.714 47.344C38.2084 48.7554 39.2111 49.9613 40.5671 50.7001L42.8345 51.9356H18.6809V51.9358Z" fill="#23346B"/>
<path d="M46.0381 41.392L48.5318 42.7821L52.74 39.0589" fill="#E9BEBF"/>
<path d="M48.5337 44.2708C48.2855 44.2708 48.0359 44.2089 47.809 44.0824L45.3152 42.6924C44.5968 42.292 44.339 41.3848 44.7395 40.6663C45.14 39.9477 46.047 39.69 46.7656 40.0906L48.3377 40.967L51.7555 37.943C52.3714 37.3977 53.3127 37.4553 53.8579 38.0715C54.403 38.6874 54.3453 39.6287 53.7293 40.1738L49.5212 43.897C49.2422 44.1436 48.8895 44.2708 48.5337 44.2708Z" fill="#23346B"/>
</svg>
